{
.appVersion = "926";
classes = (
{
automatic = 1;

glyphs = (
{
glyphname = exclam;
lastChange = "2016-09-03 11:05:29 +0000";
layers = (
{
layerId = UUID0;
paths = (
{
closed = 1;
nodes = (
"107 212 LINE",
"107 198 OFFCURVE",
"114 190 OFFCURVE",
"129 190 CURVE SMOOTH",
"164 190 LINE SMOOTH",
"179 190 OFFCURVE",
"186 198 OFFCURVE",
"186 212 CURVE",
"196 673 LINE",
"196 691 OFFCURVE",
"188 700 OFFCURVE",
"172 700 CURVE SMOOTH",
"121 700 LINE SMOOTH",
"105 700 OFFCURVE",
"97 691 OFFCURVE",
"97 673 CURVE"
);
},
{
closed = 1;
nodes = (
"174 0 LINE",
"188 0 OFFCURVE",
"196 7 OFFCURVE",
"196 22 CURVE SMOOTH",
"196 82 LINE SMOOTH",
"196 96 OFFCURVE",
"188 104 OFFCURVE",
"174 104 CURVE SMOOTH",
"119 104 LINE SMOOTH",
"104 104 OFFCURVE",
"97 96 OFFCURVE",
"97 82 CURVE SMOOTH",
"97 22 LINE SMOOTH",
"97 7 OFFCURVE",
"104 0 OFFCURVE",
"119 0 CURVE SMOOTH"
);
}
);
width = 293;
},
{
layerId = "A47C7914-817C-44A4-AF12-15F849B12484";
paths = (
{
closed = 1;
nodes = (
"104 237 LINE",
"104 216 OFFCURVE",
"115 205 OFFCURVE",
"136 205 CURVE SMOOTH",
"192 205 LINE SMOOTH",
"213 205 OFFCURVE",
"224 216 OFFCURVE",
"224 237 CURVE SMOOTH",
"237 664 LINE",
"238 688 OFFCURVE",
"227 700 OFFCURVE",
"203 700 CURVE SMOOTH",
"125 700 LINE SMOOTH",
"102 700 OFFCURVE",
"90 688 OFFCURVE",
"91 664 CURVE"
);
},
{
closed = 1;
nodes = (
"201 0 LINE",
"224 0 OFFCURVE",
"235 12 OFFCURVE",
"235 37 CURVE SMOOTH",
"235 102 LINE SMOOTH",
"235 126 OFFCURVE",
"224 139 OFFCURVE",
"201 139 CURVE SMOOTH",
"127 139 LINE SMOOTH",
"104 139 OFFCURVE",
"93 126 OFFCURVE",
"93 102 CURVE SMOOTH",
"93 37 LINE SMOOTH",
"93 12 OFFCURVE",
"104 0 OFFCURVE",
"127 0 CURVE SMOOTH"
);
}
);
width = 326;
}
);
unicode = 0021;
},
{
glyphname = numbersign;
lastChange = "2016-09-03 11:05:29 +0000";
layers = (
{
layerId = UUID0;
paths = (
{
closed = 1;
nodes = (
"167 183 LINE",
"139 22 LINE SMOOTH",
"136 7 OFFCURVE",
"141 0 OFFCURVE",
"152 0 CURVE SMOOTH",
"182 0 LINE SMOOTH",
"193 0 OFFCURVE",
"201 7 OFFCURVE",
"203 22 CURVE SMOOTH",
"231 183 LINE",
"396 183 LINE",
"367 22 LINE SMOOTH",
"365 7 OFFCURVE",
"369 0 OFFCURVE",
"380 0 CURVE SMOOTH",
"411 0 LINE SMOOTH",
"422 0 OFFCURVE",
"429 7 OFFCURVE",
"432 22 CURVE SMOOTH",
"460 183 LINE",
"565 183 LINE SMOOTH",
"580 183 OFFCURVE",
"588 189 OFFCURVE",
"590 200 CURVE SMOOTH",
"594 225 LINE SMOOTH",
"596 236 OFFCURVE",
"590 242 OFFCURVE",
"575 242 CURVE SMOOTH",
"470 242 LINE",
"507 453 LINE",
"612 453 LINE SMOOTH",
"627 453 OFFCURVE",
"636 458 OFFCURVE",
"638 470 CURVE SMOOTH",
"642 494 LINE SMOOTH",
"644 505 OFFCURVE",
"637 511 OFFCURVE",
"623 511 CURVE SMOOTH",
"518 511 LINE",
"546 672 LINE SMOOTH",
"549 687 OFFCURVE",
"544 694 OFFCURVE",
"533 694 CURVE SMOOTH",
"503 694 LINE SMOOTH",
"492 694 OFFCURVE",
"484 687 OFFCURVE",
"482 672 CURVE SMOOTH",
"454 511 LINE",
"290 511 LINE",
"318 672 LINE SMOOTH",
"320 687 OFFCURVE",
"316 694 OFFCURVE",
"305 694 CURVE SMOOTH",
"274 694 LINE SMOOTH",
"263 694 OFFCURVE",
"256 687 OFFCURVE",
"253 672 CURVE SMOOTH",
"225 511 LINE",
"120 511 LINE SMOOTH",
"105 511 OFFCURVE",
"97 505 OFFCURVE",
"95 494 CURVE SMOOTH",
"91 470 LINE SMOOTH",
"89 458 OFFCURVE",
"95 453 OFFCURVE",
"109 453 CURVE SMOOTH",
"214 453 LINE",
"177 242 LINE",
"72 242 LINE SMOOTH",
"58 242 OFFCURVE",
"49 236 OFFCURVE",
"47 225 CURVE SMOOTH",
"43 200 LINE SMOOTH",
"41 189 OFFCURVE",
"47 183 OFFCURVE",
"62 183 CURVE SMOOTH"
);
},
{
closed = 1;
nodes = (
"279 453 LINE",
"443 453 LINE",
"406 242 LINE",
"242 242 LINE"
);
}
);
width = 679;
},
{
layerId = "A47C7914-817C-44A4-AF12-15F849B12484";
paths = (
{
closed = 1;
nodes = (
"155 168 LINE",
"130 29 LINE SMOOTH",
"127 10 OFFCURVE",
"133 0 OFFCURVE",
"149 0 CURVE SMOOTH",
"191 0 LINE SMOOTH",
"208 0 OFFCURVE",
"218 10 OFFCURVE",
"221 29 CURVE SMOOTH",
"246 168 LINE",
"391 168 LINE",
"367 29 LINE SMOOTH",
"363 10 OFFCURVE",
"370 0 OFFCURVE",
"386 0 CURVE SMOOTH",
"428 0 LINE SMOOTH",
"444 0 OFFCURVE",
"454 10 OFFCURVE",
"458 29 CURVE SMOOTH",
"482 168 LINE",
"570 168 LINE SMOOTH",
"589 168 OFFCURVE",
"600 176 OFFCURVE",
"603 192 CURVE SMOOTH",
"610 231 LINE",
"613 248 OFFCURVE",
"604 256 OFFCURVE",
"585 256 CURVE SMOOTH",
"498 256 LINE",
"529 438 LINE",
"617 438 LINE SMOOTH",
"637 438 OFFCURVE",
"648 447 OFFCURVE",
"651 463 CURVE SMOOTH",
"658 502 LINE SMOOTH",
"660 518 OFFCURVE",
"652 526 OFFCURVE",
"633 526 CURVE SMOOTH",
"545 526 LINE",
"569 665 LINE SMOOTH",
"573 685 OFFCURVE",
"566 694 OFFCURVE",
"550 694 CURVE SMOOTH",
"508 694 LINE SMOOTH",
"492 694 OFFCURVE",
"482 685 OFFCURVE",
"479 665 CURVE SMOOTH",
"454 526 LINE",
"309 526 LINE",
"333 665 LINE SMOOTH",
"336 685 OFFCURVE",
"330 694 OFFCURVE",
"314 694 CURVE SMOOTH",
"272 694 LINE SMOOTH",
"256 694 OFFCURVE",
"246 685 OFFCURVE",
"242 665 CURVE SMOOTH",
"218 526 LINE",
"130 526 LINE SMOOTH",
"110 526 OFFCURVE",
"99 518 OFFCURVE",
"96 502 CURVE SMOOTH",
"89 463 LINE SMOOTH",
"87 447 OFFCURVE",
"95 438 OFFCURVE",
"114 438 CURVE SMOOTH",
"202 438 LINE",
"170 256 LINE",
"82 256 LINE SMOOTH",
"63 256 OFFCURVE",
"52 248 OFFCURVE",
"49 231 CURVE SMOOTH",
"42 192 LINE",
"39 176 OFFCURVE",
"47 168 OFFCURVE",
"67 168 CURVE SMOOTH"
);
},
{
closed = 1;
nodes = (
"293 438 LINE",
"438 438 LINE",
"407 256 LINE",
"261 256 LINE"
);
}
);
width = 691;
}
);
unicode = 0023;
},
{
glyphname = dollar;
lastChange = "2016-09-03 11:05:29 +0000";
layers = (
{
layerId = UUID0;
paths = (
{
closed = 1;
nodes = (
"96 27 OFFCURVE",
"124 12 OFFCURVE",
"159 1 CURVE SMOOTH",
"193 -9 OFFCURVE",
"227 -14 OFFCURVE",
"260 -14 CURVE",
"260 -81 LINE SMOOTH",
"260 -95 OFFCURVE",
"266 -103 OFFCURVE",
"277 -103 CURVE SMOOTH",
"301 -103 LINE SMOOTH",
"313 -103 OFFCURVE",
"318 -95 OFFCURVE",
"318 -81 CURVE SMOOTH",
"318 -13 LINE",
"366 -8 OFFCURVE",
"403 7 OFFCURVE",
"431 30 CURVE SMOOTH",
"459 53 OFFCURVE",
"478 77 OFFCURVE",
"488 101 CURVE SMOOTH",
"499 125 OFFCURVE",
"504 152 OFFCURVE",
"504 183 CURVE",
"506 251 OFFCURVE",
"473 316 OFFCURVE",
"404 354 CURVE",
"373 373 OFFCURVE",
"344 386 OFFCURVE",
"318 395 CURVE",
"318 633 LINE",
"326 633 OFFCURVE",
"339 629 OFFCURVE",
"356 623 CURVE SMOOTH",
"375 617 OFFCURVE",
"389 608 OFFCURVE",
"400 596 CURVE SMOOTH",
"418 576 OFFCURVE",
"433 573 OFFCURVE",
"444 589 CURVE SMOOTH",
"465 620 LINE SMOOTH",
"472 630 OFFCURVE",
"468 643 OFFCURVE",
"453 658 CURVE SMOOTH",
"439 671 OFFCURVE",
"419 683 OFFCURVE",
"391 692 CURVE",
"364 703 OFFCURVE",
"339 708 OFFCURVE",
"318 708 CURVE",
"318 767 LINE SMOOTH",
"318 782 OFFCURVE",
"313 789 OFFCURVE",
"301 789 CURVE SMOOTH",
"277 789 LINE SMOOTH",
"266 789 OFFCURVE",
"260 782 OFFCURVE",
"260 767 CURVE SMOOTH",
"260 708 LINE",
"187 701 OFFCURVE",
"131 671 OFFCURVE",
"102 617 CURVE SMOOTH",
"86 590 OFFCURVE",
"79 566 OFFCURVE",
"79 545 CURVE SMOOTH",
"79 514 OFFCURVE",
"82 489 OFFCURVE",
"86 470 CURVE SMOOTH",
"90 451 OFFCURVE",
"101 430 OFFCURVE",
"118 408 CURVE SMOOTH",
"135 385 OFFCURVE",
"159 365 OFFCURVE",
"190 348 CURVE SMOOTH",
"213 334 OFFCURVE",
"236 325 OFFCURVE",
"260 318 CURVE",
"260 59 LINE",
"236 61 OFFCURVE",
"214 64 OFFCURVE",
"192 71 CURVE SMOOTH",
"170 77 OFFCURVE",
"147 91 OFFCURVE",
"123 111 CURVE SMOOTH",
"105 127 OFFCURVE",
"91 128 OFFCURVE",
"81 114 CURVE SMOOTH",
"61 88 LINE SMOOTH",
"53 77 OFFCURVE",
"57 63 OFFCURVE",
"75 47 CURVE SMOOTH"
);
},
{
closed = 1;
nodes = (
"170 570 OFFCURVE",
"180 594 OFFCURVE",
"199 609 CURVE SMOOTH",
"219 624 OFFCURVE",
"239 633 OFFCURVE",
"260 634 CURVE",
"260 417 LINE",
"250 421 OFFCURVE",
"239 426 OFFCURVE",
"229 432 CURVE SMOOTH",
"185 457 OFFCURVE",
"170 488 OFFCURVE",
"170 539 CURVE SMOOTH"
);
},
{
closed = 1;
nodes = (
"318 299 LINE",
"326 297 OFFCURVE",
"338 291 OFFCURVE",
"355 281 CURVE SMOOTH",
"386 263 OFFCURVE",
"408 226 OFFCURVE",
"408 182 CURVE SMOOTH",
"408 142 OFFCURVE",
"399 113 OFFCURVE",
"382 96 CURVE SMOOTH",
"364 79 OFFCURVE",
"343 67 OFFCURVE",
"318 62 CURVE"
);
}
);
width = 542;
},
{
layerId = "A47C7914-817C-44A4-AF12-15F849B12484";
paths = (
{
closed = 1;
nodes = (
"105 21 OFFCURVE",
"134 8 OFFCURVE",
"171 0 CURVE SMOOTH",
"208 -9 OFFCURVE",
"243 -14 OFFCURVE",
"276 -16 CURVE",
"276 -73 LINE SMOOTH",
"276 -93 OFFCURVE",
"285 -103 OFFCURVE",
"301 -103 CURVE SMOOTH",
"340 -103 LINE SMOOTH",
"356 -103 OFFCURVE",
"364 -93 OFFCURVE",
"364 -73 CURVE SMOOTH",
"364 -16 LINE",
"438 -8 OFFCURVE",
"488 16 OFFCURVE",
"525 74 CURVE SMOOTH",
"544 103 OFFCURVE",
"554 139 OFFCURVE",
"554 182 CURVE SMOOTH",
"554 221 OFFCURVE",
"549 251 OFFCURVE",
"539 274 CURVE SMOOTH",
"528 297 OFFCURVE",
"516 316 OFFCURVE",
"501 332 CURVE SMOOTH",
"486 347 OFFCURVE",
"468 360 OFFCURVE",
"447 371 CURVE SMOOTH",
"419 385 OFFCURVE",
"391 397 OFFCURVE",
"364 407 CURVE",
"364 597 LINE",
"385 591 OFFCURVE",
"413 582 OFFCURVE",
"438 559 CURVE SMOOTH",
"454 544 OFFCURVE",
"468 545 OFFCURVE",
"479 563 CURVE SMOOTH",
"513 614 LINE SMOOTH",
"523 629 OFFCURVE",
"519 644 OFFCURVE",
"500 658 CURVE SMOOTH",
"483 669 OFFCURVE",
"463 680 OFFCURVE",
"438 690 CURVE SMOOTH",
"412 701 OFFCURVE",
"388 707 OFFCURVE",
"364 710 CURVE",
"364 760 LINE SMOOTH",
"364 779 OFFCURVE",
"356 789 OFFCURVE",
"340 789 CURVE SMOOTH",
"301 789 LINE SMOOTH",
"285 789 OFFCURVE",
"276 779 OFFCURVE",
"276 760 CURVE SMOOTH",
"276 710 LINE",
"247 708 OFFCURVE",
"221 703 OFFCURVE",
"198 696 CURVE SMOOTH",
"175 690 OFFCURVE",
"151 672 OFFCURVE",
"125 642 CURVE SMOOTH",
"99 612 OFFCURVE",
"86 575 OFFCURVE",
"86 528 CURVE SMOOTH",
"86 458 OFFCURVE",
"109 414 OFFCURVE",
"145 377 CURVE",
"163 359 OFFCURVE",
"179 346 OFFCURVE",
"194 337 CURVE SMOOTH",
"223 321 OFFCURVE",
"250 308 OFFCURVE",
"276 299 CURVE",
"276 92 LINE",
"259 95 OFFCURVE",
"238 100 OFFCURVE",
"213 107 CURVE",
"189 115 OFFCURVE",
"168 126 OFFCURVE",
"151 141 CURVE SMOOTH",
"128 160 OFFCURVE",
"111 161 OFFCURVE",
"100 146 CURVE SMOOTH",
"66 98 LINE SMOOTH",
"55 81 OFFCURVE",
"61 62 OFFCURVE",
"84 41 CURVE SMOOTH"
);
},
{
closed = 1;
nodes = (
"211 567 OFFCURVE",
"241 594 OFFCURVE",
"276 600 CURVE",
"276 442 LINE",
"256 451 LINE SMOOTH",
"246 456 OFFCURVE",
"235 464 OFFCURVE",
"226 476 CURVE SMOOTH",
"216 488 OFFCURVE",
"211 506 OFFCURVE",
"211 529 CURVE SMOOTH"
);
},
{
closed = 1;
nodes = (
"364 268 LINE",
"370 265 OFFCURVE",
"375 262 OFFCURVE",
"381 260 CURVE SMOOTH",
"416 243 OFFCURVE",
"427 221 OFFCURVE",
"427 179 CURVE SMOOTH",
"427 148 OFFCURVE",
"420 127 OFFCURVE",
"405 116 CURVE SMOOTH",
"390 104 OFFCURVE",
"376 97 OFFCURVE",
"364 94 CURVE"
);
}
);
width = 586;
}
);
unicode = 0024;
},
{
glyphname = ampersand;
lastChange = "2016-09-03 11:05:29 +0000";
layers = (
{
layerId = UUID0;
paths = (
{
closed = 1;
nodes = (
"59 108 OFFCURVE",
"77 66 OFFCURVE",
"114 34 CURVE SMOOTH",
"151 1 OFFCURVE",
"197 -15 OFFCURVE",
"253 -15 CURVE SMOOTH",
"309 -15 OFFCURVE",
"353 -5 OFFCURVE",
"386 13 CURVE SMOOTH",
"420 31 OFFCURVE",
"452 55 OFFCURVE",
"482 84 CURVE",
"536 21 LINE SMOOTH",
"547 7 OFFCURVE",
"563 0 OFFCURVE",
"582 0 CURVE SMOOTH",
"631 0 LINE SMOOTH",
"653 0 OFFCURVE",
"656 9 OFFCURVE",
"640 28 CURVE SMOOTH",
"542 145 LINE",
"556 160 OFFCURVE",
"573 182 OFFCURVE",
"593 211 CURVE SMOOTH",
"612 241 OFFCURVE",
"627 271 OFFCURVE",
"637 300 CURVE SMOOTH",
"641 313 OFFCURVE",
"637 322 OFFCURVE",
"623 326 CURVE SMOOTH",
"585 338 LINE SMOOTH",
"573 342 OFFCURVE",
"564 336 OFFCURVE",
"561 321 CURVE SMOOTH",
"557 306 OFFCURVE",
"547 286 OFFCURVE",
"533 261 CURVE SMOOTH",
"519 237 OFFCURVE",
"505 218 OFFCURVE",
"492 204 CURVE",
"339 387 LINE",
"418 447 OFFCURVE",
"469 507 OFFCURVE",
"469 576 CURVE SMOOTH",
"469 629 OFFCURVE",
"452 666 OFFCURVE",
"417 685 CURVE",
"383 705 OFFCURVE",
"348 715 OFFCURVE",
"311 715 CURVE SMOOTH",
"251 715 OFFCURVE",
"208 700 OFFCURVE",
"181 671 CURVE SMOOTH",
"154 642 OFFCURVE",
"140 607 OFFCURVE",
"140 568 CURVE SMOOTH",
"140 528 OFFCURVE",
"149 495 OFFCURVE",
"167 467 CURVE",
"185 440 OFFCURVE",
"202 417 OFFCURVE",
"218 399 CURVE",
"145 346 OFFCURVE",
"100 301 OFFCURVE",
"83 264 CURVE SMOOTH",
"67 228 OFFCURVE",
"59 193 OFFCURVE",
"59 159 CURVE SMOOTH"
);
},
{
closed = 1;
nodes = (
"154 194 OFFCURVE",
"160 223 OFFCURVE",
"173 247 CURVE SMOOTH",
"187 271 OFFCURVE",
"218 303 OFFCURVE",
"268 341 CURVE",
"433 143 LINE",
"411 120 OFFCURVE",
"384 99 OFFCURVE",
"353 82 CURVE SMOOTH",
"321 65 OFFCURVE",
"291 56 OFFCURVE",
"264 56 CURVE SMOOTH",
"227 56 OFFCURVE",
"200 66 OFFCURVE",
"181 85 CURVE",
"163 105 OFFCURVE",
"154 130 OFFCURVE",
"154 160 CURVE SMOOTH"
);
},
{
closed = 1;
nodes = (
"228 616 OFFCURVE",
"256 647 OFFCURVE",
"305 647 CURVE SMOOTH",
"331 647 OFFCURVE",
"350 640 OFFCURVE",
"362 626 CURVE SMOOTH",
"375 613 OFFCURVE",
"381 597 OFFCURVE",
"381 579 CURVE SMOOTH",
"381 557 OFFCURVE",
"375 537 OFFCURVE",
"362 519 CURVE SMOOTH",
"349 500 OFFCURVE",
"325 476 OFFCURVE",
"289 445 CURVE",
"277 459 OFFCURVE",
"264 478 OFFCURVE",
"250 500 CURVE SMOOTH",
"235 521 OFFCURVE",
"228 546 OFFCURVE",
"228 573 CURVE SMOOTH"
);
}
);
width = 675;
},
{
layerId = "A47C7914-817C-44A4-AF12-15F849B12484";
paths = (
{
closed = 1;
nodes = (
"55 95 OFFCURVE",
"74 52 OFFCURVE",
"112 24 CURVE SMOOTH",
"151 -3 OFFCURVE",
"199 -17 OFFCURVE",
"258 -17 CURVE SMOOTH",
"304 -17 OFFCURVE",
"345 -12 OFFCURVE",
"379 -1 CURVE SMOOTH",
"414 9 OFFCURVE",
"448 27 OFFCURVE",
"480 53 CURVE",
"498 29 LINE SMOOTH",
"512 10 OFFCURVE",
"531 0 OFFCURVE",
"555 0 CURVE SMOOTH",
"646 0 LINE SMOOTH",
"672 0 OFFCURVE",
"677 11 OFFCURVE",
"661 32 CURVE SMOOTH",
"584 133 LINE",
"633 176 OFFCURVE",
"659 214 OFFCURVE",
"677 259 CURVE SMOOTH",
"685 278 OFFCURVE",
"684 291 OFFCURVE",
"674 296 CURVE",
"622 327 LINE SMOOTH",
"603 338 OFFCURVE",
"589 333 OFFCURVE",
"580 313 CURVE SMOOTH",
"575 303 OFFCURVE",
"567 289 OFFCURVE",
"555 271 CURVE SMOOTH",
"543 254 OFFCURVE",
"530 238 OFFCURVE",
"515 225 CURVE",
"398 378 LINE",
"438 408 OFFCURVE",
"466 437 OFFCURVE",
"483 465 CURVE SMOOTH",
"500 494 OFFCURVE",
"508 528 OFFCURVE",
"508 569 CURVE SMOOTH",
"508 623 OFFCURVE",
"489 662 OFFCURVE",
"452 684 CURVE SMOOTH",
"414 706 OFFCURVE",
"374 717 OFFCURVE",
"330 717 CURVE SMOOTH",
"259 717 OFFCURVE",
"208 702 OFFCURVE",
"178 672 CURVE SMOOTH",
"147 642 OFFCURVE",
"132 607 OFFCURVE",
"132 568 CURVE SMOOTH",
"132 528 OFFCURVE",
"140 497 OFFCURVE",
"157 474 CURVE SMOOTH",
"173 451 OFFCURVE",
"193 426 OFFCURVE",
"216 400 CURVE",
"157 358 OFFCURVE",
"116 318 OFFCURVE",
"91 282 CURVE SMOOTH",
"67 245 OFFCURVE",
"55 203 OFFCURVE",
"55 154 CURVE SMOOTH"
);
},
{
closed = 1;
nodes = (
"201 192 OFFCURVE",
"208 218 OFFCURVE",
"221 237 CURVE SMOOTH",
"234 257 OFFCURVE",
"257 279 OFFCURVE",
"288 305 CURVE",
"413 141 LINE",
"390 121 OFFCURVE",
"369 108 OFFCURVE",
"349 101 CURVE SMOOTH",
"329 93 OFFCURVE",
"306 90 OFFCURVE",
"278 90 CURVE SMOOTH",
"258 90 OFFCURVE",
"240 96 OFFCURVE",
"224 108 CURVE",
"209 121 OFFCURVE",
"201 138 OFFCURVE",
"201 160 CURVE SMOOTH"
);
},
{
closed = 1;
nodes = (
"264 569 OFFCURVE",
"268 578 OFFCURVE",
"277 588 CURVE SMOOTH",
"287 599 OFFCURVE",
"301 604 OFFCURVE",
"319 604 CURVE SMOOTH",
"354 604 OFFCURVE",
"376 587 OFFCURVE",
"376 554 CURVE SMOOTH",
"376 533 OFFCURVE",
"373 517 OFFCURVE",
"365 507 CURVE SMOOTH",
"357 497 OFFCURVE",
"343 483 OFFCURVE",
"322 464 CURVE",
"308 479 OFFCURVE",
"294 493 OFFCURVE",
"282 507 CURVE SMOOTH",
"270 521 OFFCURVE",
"264 540 OFFCURVE",
"264 563 CURVE SMOOTH"
);
}
);
width = 703;
}
);
unicode = 0026;
},
{
glyphname = quotesingle;
lastChange = "2016-09-03 11:05:29 +0000";
layers = (
{
layerId = UUID0;
paths = (
{
closed = 1;
nodes = (
"85 424 LINE SMOOTH",
"85 410 OFFCURVE",
"91 402 OFFCURVE",
"102 402 CURVE SMOOTH",
"133 402 LINE SMOOTH",
"144 402 OFFCURVE",
"150 410 OFFCURVE",
"150 424 CURVE SMOOTH",
"161 690 LINE SMOOTH",
"161 708 OFFCURVE",
"155 717 OFFCURVE",
"143 717 CURVE SMOOTH",
"92 717 LINE SMOOTH",
"80 717 OFFCURVE",
"74 708 OFFCURVE",
"75 690 CURVE SMOOTH"
);
}
);
width = 233;
},
{
layerId = "A47C7914-817C-44A4-AF12-15F849B12484";
paths = (
{
closed = 1;
nodes = (
"83 432 LINE SMOOTH",
"83 412 OFFCURVE",
"92 402 OFFCURVE",
"107 402 CURVE SMOOTH",
"169 402 LINE SMOOTH",
"185 402 OFFCURVE",
"193 412 OFFCURVE",
"194 432 CURVE SMOOTH",
"206 686 LINE SMOOTH",
"207 707 OFFCURVE",
"198 717 OFFCURVE",
"181 717 CURVE SMOOTH",
"96 717 LINE SMOOTH",
"78 717 OFFCURVE",
"70 707 OFFCURVE",
"71 686 CURVE SMOOTH"
);
}
);
width = 273;
}
);
unicode = 0027;
},
{
glyphname = parenleft;
lastChange = "2016-09-03 11:05:29 +0000";
layers = (
{
layerId = UUID0;
paths = (
{
closed = 1;
nodes = (
"61 166 OFFCURVE",
"78 78 OFFCURVE",
"111 2 CURVE SMOOTH",
"145 -74 OFFCURVE",
"188 -140 OFFCURVE",
"240 -198 CURVE SMOOTH",
"252 -212 OFFCURVE",
"263 -215 OFFCURVE",
"273 -208 CURVE SMOOTH",
"290 -194 LINE SMOOTH",
"300 -187 OFFCURVE",
"300 -177 OFFCURVE",
"289 -166 CURVE SMOOTH",
"260 -134 OFFCURVE",
"230 -82 OFFCURVE",
"201 -7 CURVE SMOOTH",
"171 66 OFFCURVE",
"156 158 OFFCURVE",
"156 266 CURVE SMOOTH",
"156 374 OFFCURVE",
"171 465 OFFCURVE",
"201 539 CURVE SMOOTH",
"230 613 OFFCURVE",
"260 666 OFFCURVE",
"289 697 CURVE SMOOTH",
"300 708 OFFCURVE",
"300 718 OFFCURVE",
"290 726 CURVE SMOOTH",
"273 739 LINE SMOOTH",
"263 746 OFFCURVE",
"252 743 OFFCURVE",
"240 729 CURVE SMOOTH",
"188 671 OFFCURVE",
"145 605 OFFCURVE",
"111 529 CURVE SMOOTH",
"78 454 OFFCURVE",
"61 366 OFFCURVE",
"61 266 CURVE SMOOTH"
);
}
);
width = 327;
},
{
layerId = "A47C7914-817C-44A4-AF12-15F849B12484";
paths = (
{
closed = 1;
nodes = (
"56 145 OFFCURVE",
"77 46 OFFCURVE",
"119 -32 CURVE SMOOTH",
"161 -109 OFFCURVE",
"202 -168 OFFCURVE",
"244 -208 CURVE SMOOTH",
"261 -224 OFFCURVE",
"274 -228 OFFCURVE",
"285 -220 CURVE SMOOTH",
"326 -187 LINE SMOOTH",
"337 -178 OFFCURVE",
"337 -167 OFFCURVE",
"326 -152 CURVE SMOOTH",
"300 -118 OFFCURVE",
"273 -71 OFFCURVE",
"245 -9 CURVE SMOOTH",
"217 52 OFFCURVE",
"203 144 OFFCURVE",
"203 266 CURVE SMOOTH",
"203 388 OFFCURVE",
"217 479 OFFCURVE",
"245 541 CURVE SMOOTH",
"273 602 OFFCURVE",
"300 649 OFFCURVE",
"326 683 CURVE SMOOTH",
"337 698 OFFCURVE",
"337 709 OFFCURVE",
"326 718 CURVE SMOOTH",
"285 751 LINE SMOOTH",
"274 759 OFFCURVE",
"261 755 OFFCURVE",
"244 739 CURVE SMOOTH",
"202 700 OFFCURVE",
"161 641 OFFCURVE",
"119 563 CURVE SMOOTH",
"77 485 OFFCURVE",
"56 386 OFFCURVE",
"56 266 CURVE SMOOTH"
);
}
);
width = 361;
}
);
unicode = 0028;
},
{
glyphname = parenright;
lastChange = "2016-09-03 11:05:29 +0000";
layers = (
{
layerId = UUID0;
paths = (
{
closed = 1;
nodes = (
"69 -208 LINE SMOOTH",
"79 -215 OFFCURVE",
"90 -212 OFFCURVE",
"103 -198 CURVE SMOOTH",
"154 -140 OFFCURVE",
"197 -74 OFFCURVE",
"231 2 CURVE SMOOTH",
"265 78 OFFCURVE",
"282 166 OFFCURVE",
"282 266 CURVE SMOOTH",
"282 366 OFFCURVE",
"265 454 OFFCURVE",
"231 529 CURVE SMOOTH",
"197 605 OFFCURVE",
"154 671 OFFCURVE",
"103 729 CURVE SMOOTH",
"90 743 OFFCURVE",
"79 746 OFFCURVE",
"69 739 CURVE SMOOTH",
"52 726 LINE SMOOTH",
"42 718 OFFCURVE",
"42 708 OFFCURVE",
"53 697 CURVE SMOOTH",
"83 666 OFFCURVE",
"112 613 OFFCURVE",
"142 539 CURVE SMOOTH",
"171 465 OFFCURVE",
"186 374 OFFCURVE",
"186 266 CURVE SMOOTH",
"186 158 OFFCURVE",
"171 66 OFFCURVE",
"142 -7 CURVE SMOOTH",
"112 -82 OFFCURVE",
"83 -134 OFFCURVE",
"53 -166 CURVE SMOOTH",
"42 -177 OFFCURVE",
"42 -187 OFFCURVE",
"52 -194 CURVE SMOOTH"
);
}
);
width = 327;
},
{
layerId = "A47C7914-817C-44A4-AF12-15F849B12484";
paths = (
{
closed = 1;
nodes = (
"93 -220 LINE SMOOTH",
"104 -228 OFFCURVE",
"117 -224 OFFCURVE",
"134 -208 CURVE SMOOTH",
"176 -168 OFFCURVE",
"217 -109 OFFCURVE",
"259 -32 CURVE SMOOTH",
"301 46 OFFCURVE",
"322 145 OFFCURVE",
"322 266 CURVE SMOOTH",
"322 386 OFFCURVE",
"301 485 OFFCURVE",
"259 563 CURVE SMOOTH",
"217 641 OFFCURVE",
"176 700 OFFCURVE",
"134 739 CURVE SMOOTH",
"117 755 OFFCURVE",
"104 759 OFFCURVE",
"93 751 CURVE SMOOTH",
"52 718 LINE SMOOTH",
"41 709 OFFCURVE",
"41 698 OFFCURVE",
"52 683 CURVE SMOOTH",
"78 649 OFFCURVE",
"105 602 OFFCURVE",
"133 541 CURVE",
"161 479 OFFCURVE",
"175 388 OFFCURVE",
"175 266 CURVE SMOOTH",
"175 144 OFFCURVE",
"161 52 OFFCURVE",
"133 -9 CURVE",
"105 -71 OFFCURVE",
"78 -118 OFFCURVE",
"52 -152 CURVE SMOOTH",
"41 -167 OFFCURVE",
"41 -178 OFFCURVE",
"52 -187 CURVE SMOOTH"
);
}
);
width = 361;
}
);
unicode = 0029;
},
{
glyphname = asterisk;
lastChange = "2016-09-03 11:05:29 +0000";
layers = (
{
layerId = UUID0;
paths = (
{
closed = 1;
nodes = (
"96 471 LINE SMOOTH",
"69 460 OFFCURVE",
"63 442 OFFCURVE",
"76 419 CURVE SMOOTH",
"79 415 LINE SMOOTH",
"92 392 OFFCURVE",
"111 389 OFFCURVE",
"134 406 CURVE SMOOTH",
"225 474 LINE",
"212 361 LINE SMOOTH",
"208 332 OFFCURVE",
"220 318 OFFCURVE",
"247 318 CURVE SMOOTH",
"252 318 LINE SMOOTH",
"279 318 OFFCURVE",
"291 332 OFFCURVE",
"287 361 CURVE SMOOTH",
"274 474 LINE",
"365 406 LINE SMOOTH",
"388 389 OFFCURVE",
"407 392 OFFCURVE",
"420 415 CURVE SMOOTH",
"423 419 LINE SMOOTH",
"436 442 OFFCURVE",
"430 460 OFFCURVE",
"403 471 CURVE SMOOTH",
"298 516 LINE",
"403 562 LINE",
"430 573 OFFCURVE",
"436 590 OFFCURVE",
"423 613 CURVE SMOOTH",
"420 618 LINE SMOOTH",
"407 641 OFFCURVE",
"388 644 OFFCURVE",
"365 626 CURVE SMOOTH",
"274 559 LINE",
"287 672 LINE SMOOTH",
"291 701 OFFCURVE",
"279 715 OFFCURVE",
"252 715 CURVE SMOOTH",
"247 715 LINE SMOOTH",
"220 715 OFFCURVE",
"208 701 OFFCURVE",
"212 672 CURVE SMOOTH",
"225 559 LINE",
"134 626 LINE SMOOTH",
"111 644 OFFCURVE",
"92 641 OFFCURVE",
"79 618 CURVE SMOOTH",
"76 613 LINE SMOOTH",
"63 590 OFFCURVE",
"69 573 OFFCURVE",
"96 562 CURVE",
"201 516 LINE"
);
}
);
width = 459;
},
{
layerId = "A47C7914-817C-44A4-AF12-15F849B12484";
paths = (
{
closed = 1;
nodes = (
"95 476 LINE SMOOTH",
"66 463 OFFCURVE",
"59 445 OFFCURVE",
"73 421 CURVE SMOOTH",
"82 406 LINE SMOOTH",
"96 382 OFFCURVE",
"115 380 OFFCURVE",
"140 398 CURVE SMOOTH",
"223 461 LINE",
"211 357 LINE SMOOTH",
"208 327 OFFCURVE",
"219 312 OFFCURVE",
"247 312 CURVE SMOOTH",
"264 312 LINE SMOOTH",
"292 312 OFFCURVE",
"303 327 OFFCURVE",
"300 357 CURVE SMOOTH",
"288 461 LINE",
"372 398 LINE SMOOTH",
"396 380 OFFCURVE",
"415 383 OFFCURVE",
"429 407 CURVE SMOOTH",
"438 422 LINE SMOOTH",
"451 445 OFFCURVE",
"444 463 OFFCURVE",
"416 475 CURVE SMOOTH",
"320 517 LINE",
"416 558 LINE SMOOTH",
"444 570 OFFCURVE",
"451 587 OFFCURVE",
"438 611 CURVE SMOOTH",
"429 626 LINE SMOOTH",
"415 650 OFFCURVE",
"396 653 OFFCURVE",
"371 635 CURVE SMOOTH",
"288 572 LINE",
"300 676 LINE SMOOTH",
"303 707 OFFCURVE",
"292 722 OFFCURVE",
"264 722 CURVE SMOOTH",
"247 722 LINE SMOOTH",
"219 722 OFFCURVE",
"208 707 OFFCURVE",
"211 676 CURVE SMOOTH",
"223 572 LINE",
"140 635 LINE SMOOTH",
"115 653 OFFCURVE",
"96 650 OFFCURVE",
"83 627 CURVE SMOOTH",
"74 612 LINE SMOOTH",
"60 588 OFFCURVE",
"67 570 OFFCURVE",
"95 558 CURVE SMOOTH",
"191 517 LINE"
);
}
);
width = 469;
}
);
unicode = 002A;
},
{
glyphname = plus;
lastChange = "2016-09-03 11:05:29 +0000";
layers = (
{
layerId = UUID0;
paths = (
{
closed = 1;
nodes = (
"283 325 LINE",
"283 103 LINE SMOOTH",
"283 88 OFFCURVE",
"289 81 OFFCURVE",
"300 81 CURVE SMOOTH",
"324 81 LINE SMOOTH",
"335 81 OFFCURVE",
"341 88 OFFCURVE",
"341 103 CURVE SMOOTH",
"341 325 LINE",
"564 325 LINE SMOOTH",
"579 325 OFFCURVE",
"586 331 OFFCURVE",
"586 342 CURVE SMOOTH",
"586 366 LINE SMOOTH",
"586 377 OFFCURVE",
"579 383 OFFCURVE",
"564 383 CURVE SMOOTH",
"341 383 LINE",
"341 605 LINE SMOOTH",
"341 620 OFFCURVE",
"335 627 OFFCURVE",
"324 627 CURVE SMOOTH",
"300 627 LINE SMOOTH",
"289 627 OFFCURVE",
"283 620 OFFCURVE",
"283 605 CURVE SMOOTH",
"283 383 LINE",
"61 383 LINE SMOOTH",
"46 383 OFFCURVE",
"39 377 OFFCURVE",
"39 366 CURVE SMOOTH",
"39 342 LINE SMOOTH",
"39 331 OFFCURVE",
"46 325 OFFCURVE",
"61 325 CURVE SMOOTH"
);
}
);
width = 625;
},
{
layerId = "A47C7914-817C-44A4-AF12-15F849B12484";
paths = (
{
closed = 1;
nodes = (
"267 309 LINE",
"267 107 LINE SMOOTH",
"267 88 OFFCURVE",
"275 78 OFFCURVE",
"292 78 CURVE SMOOTH",
"333 78 LINE SMOOTH",
"350 78 OFFCURVE",
"358 88 OFFCURVE",
"358 107 CURVE SMOOTH",
"358 309 LINE",
"559 309 LINE SMOOTH",
"579 309 OFFCURVE",
"588 317 OFFCURVE",
"588 333 CURVE SMOOTH",
"588 375 LINE SMOOTH",
"588 391 OFFCURVE",
"579 399 OFFCURVE",
"559 399 CURVE SMOOTH",
"358 399 LINE",
"358 601 LINE SMOOTH",
"358 620 OFFCURVE",
"350 630 OFFCURVE",
"333 630 CURVE SMOOTH",
"292 630 LINE SMOOTH",
"275 630 OFFCURVE",
"267 620 OFFCURVE",
"267 601 CURVE SMOOTH",
"267 399 LINE",
"66 399 LINE SMOOTH",
"46 399 OFFCURVE",
"37 391 OFFCURVE",
"37 375 CURVE SMOOTH",
"37 333 LINE SMOOTH",
"37 317 OFFCURVE",
"46 309 OFFCURVE",
"66 309 CURVE SMOOTH"
);
}
);
width = 625;
}
);
unicode = 002B;
},
{
glyphname = comma;
lastChange = "2016-09-03 11:05:29 +0000";
layers = (
{
layerId = UUID0;
paths = (
{
closed = 1;
nodes = (
"145 0 LINE",
"145 -41 OFFCURVE",
"129 -81 OFFCURVE",
"107 -100 CURVE SMOOTH",
"100 -106 OFFCURVE",
"99 -112 OFFCURVE",
"104 -117 CURVE SMOOTH",
"125 -137 LINE SMOOTH",
"130 -142 OFFCURVE",
"136 -141 OFFCURVE",
"144 -135 CURVE SMOOTH",
"187 -96 OFFCURVE",
"198 -46 OFFCURVE",
"198 22 CURVE SMOOTH",
"198 82 LINE SMOOTH",
"198 96 OFFCURVE",
"190 104 OFFCURVE",
"176 104 CURVE SMOOTH",
"119 104 LINE SMOOTH",
"104 104 OFFCURVE",
"97 96 OFFCURVE",
"97 82 CURVE SMOOTH",
"97 22 LINE SMOOTH",
"97 7 OFFCURVE",
"104 0 OFFCURVE",
"119 0 CURVE SMOOTH"
);
}
);
width = 293;
},
{
layerId = "A47C7914-817C-44A4-AF12-15F849B12484";
paths = (
{
closed = 1;
nodes = (
"159 0 LINE",
"159 -45 OFFCURVE",
"153 -69 OFFCURVE",
"132 -85 CURVE SMOOTH",
"117 -98 OFFCURVE",
"115 -110 OFFCURVE",
"127 -122 CURVE SMOOTH",
"146 -142 LINE SMOOTH",
"155 -152 OFFCURVE",
"168 -151 OFFCURVE",
"185 -138 CURVE SMOOTH",
"208 -121 OFFCURVE",
"222 -98 OFFCURVE",
"227 -69 CURVE SMOOTH",
"232 -41 OFFCURVE",
"235 -5 OFFCURVE",
"235 37 CURVE SMOOTH",
"235 102 LINE SMOOTH",
"235 126 OFFCURVE",
"224 139 OFFCURVE",
"201 139 CURVE SMOOTH",
"125 139 LINE SMOOTH",
"102 139 OFFCURVE",
"91 126 OFFCURVE",
"91 102 CURVE SMOOTH",
"91 37 LINE SMOOTH",
"91 12 OFFCURVE",
"102 0 OFFCURVE",
"125 0 CURVE SMOOTH"
);
}
);
width = 326;
}
);
unicode = 002C;
},
{
glyphname = hyphen;
lastChange = "2016-09-03 11:05:29 +0000";
layers = (
{
layerId = UUID0;
paths = (
{
closed = 1;
nodes = (
"283 236 LINE SMOOTH",
"297 236 OFFCURVE",
"305 242 OFFCURVE",
"305 253 CURVE SMOOTH",
"305 287 LINE SMOOTH",
"305 298 OFFCURVE",
"297 304 OFFCURVE",
"283 304 CURVE SMOOTH",
"49 304 LINE SMOOTH",
"35 304 OFFCURVE",
"27 298 OFFCURVE",
"27 287 CURVE SMOOTH",
"27 253 LINE SMOOTH",
"27 242 OFFCURVE",
"35 236 OFFCURVE",
"49 236 CURVE SMOOTH"
);
}
);
width = 332;
},
{
layerId = "A47C7914-817C-44A4-AF12-15F849B12484";
paths = (
{
closed = 1;
nodes = (
"287 218 LINE SMOOTH",
"306 218 OFFCURVE",
"316 226 OFFCURVE",
"316 242 CURVE SMOOTH",
"316 298 LINE SMOOTH",
"316 314 OFFCURVE",
"306 322 OFFCURVE",
"287 322 CURVE SMOOTH",
"55 322 LINE SMOOTH",
"36 322 OFFCURVE",
"26 314 OFFCURVE",
"26 298 CURVE SMOOTH",
"26 242 LINE SMOOTH",
"26 226 OFFCURVE",
"36 218 OFFCURVE",
"55 218 CURVE SMOOTH"
);
}
);
width = 342;
}
);
unicode = 002D;
},
{
glyphname = period;
lastChange = "2016-09-03 11:05:29 +0000";
layers = (
{
layerId = UUID0;
paths = (
{
closed = 1;
nodes = (
"174 0 LINE SMOOTH",
"188 0 OFFCURVE",
"196 7 OFFCURVE",
"196 22 CURVE SMOOTH",
"196 82 LINE SMOOTH",
"196 96 OFFCURVE",
"188 104 OFFCURVE",
"174 104 CURVE SMOOTH",
"119 104 LINE SMOOTH",
"104 104 OFFCURVE",
"97 96 OFFCURVE",
"97 82 CURVE SMOOTH",
"97 22 LINE SMOOTH",
"97 7 OFFCURVE",
"104 0 OFFCURVE",
"119 0 CURVE SMOOTH"
);
}
);
width = 293;
},
{
layerId = "A47C7914-817C-44A4-AF12-15F849B12484";
paths = (
{
closed = 1;
nodes = (
"200 0 LINE SMOOTH",
"223 0 OFFCURVE",
"234 12 OFFCURVE",
"234 37 CURVE SMOOTH",
"234 102 LINE SMOOTH",
"234 126 OFFCURVE",
"223 139 OFFCURVE",
"200 139 CURVE SMOOTH",
"126 139 LINE SMOOTH",
"103 139 OFFCURVE",
"92 126 OFFCURVE",
"92 102 CURVE SMOOTH",
"92 37 LINE SMOOTH",
"92 12 OFFCURVE",
"103 0 OFFCURVE",
"126 0 CURVE SMOOTH"
);
}
);
width = 326;
}
);
unicode = 002E;
},
{
glyphname = slash;
lastChange = "2016-09-03 11:05:29 +0000";
layers = (
{
layerId = UUID0;
paths = (
{
closed = 1;
nodes = (
"42 -200 LINE SMOOTH",
"52 -204 OFFCURVE",
"61 -199 OFFCURVE",
"66 -186 CURVE SMOOTH",
"415 679 LINE SMOOTH",
"420 693 OFFCURVE",
"418 702 OFFCURVE",
"408 706 CURVE SMOOTH",
"386 715 LINE SMOOTH",
"375 719 OFFCURVE",
"366 715 OFFCURVE",
"361 701 CURVE SMOOTH",
"12 -164 LINE SMOOTH",
"6 -177 OFFCURVE",
"9 -187 OFFCURVE",
"20 -191 CURVE SMOOTH"
);
}
);
width = 410;
},
{
layerId = "A47C7914-817C-44A4-AF12-15F849B12484";
paths = (
{
closed = 1;
nodes = (
"67 -200 LINE SMOOTH",
"82 -206 OFFCURVE",
"93 -199 OFFCURVE",
"100 -181 CURVE",
"424 664 LINE",
"432 682 OFFCURVE",
"427 694 OFFCURVE",
"412 700 CURVE SMOOTH",
"373 715 LINE SMOOTH",
"357 721 OFFCURVE",
"347 714 OFFCURVE",
"339 696 CURVE",
"15 -148 LINE",
"8 -167 OFFCURVE",
"12 -179 OFFCURVE",
"27 -185 CURVE SMOOTH"
);
}
);
width = 418;
}
);
unicode = 002F;
},
{
glyphname = zero;
lastChange = "2016-09-03 11:05:29 +0000";
layers = (
{
layerId = UUID0;
paths = (
{
closed = 1;
nodes = (
"45 233 OFFCURVE",
"61 145 OFFCURVE",
"92 81 CURVE SMOOTH",
"124 17 OFFCURVE",
"183 -15 OFFCURVE",
"271 -15 CURVE SMOOTH",
"359 -15 OFFCURVE",
"418 17 OFFCURVE",
"450 81 CURVE SMOOTH",
"481 145 OFFCURVE",
"497 233 OFFCURVE",
"497 347 CURVE SMOOTH",
"497 461 OFFCURVE",
"481 550 OFFCURVE",
"450 613 CURVE SMOOTH",
"418 677 OFFCURVE",
"359 709 OFFCURVE",
"271 709 CURVE SMOOTH",
"183 709 OFFCURVE",
"124 677 OFFCURVE",
"92 613 CURVE SMOOTH",
"61 550 OFFCURVE",
"45 461 OFFCURVE",
"45 347 CURVE SMOOTH"
);
},
{
closed = 1;
nodes = (
"136 438 OFFCURVE",
"144 510 OFFCURVE",
"160 561 CURVE SMOOTH",
"175 613 OFFCURVE",
"212 639 OFFCURVE",
"271 639 CURVE SMOOTH",
"330 639 OFFCURVE",
"367 613 OFFCURVE",
"382 561 CURVE SMOOTH",
"398 510 OFFCURVE",
"406 438 OFFCURVE",
"406 347 CURVE SMOOTH",
"406 256 OFFCURVE",
"398 185 OFFCURVE",
"382 133 CURVE SMOOTH",
"367 82 OFFCURVE",
"330 56 OFFCURVE",
"271 56 CURVE SMOOTH",
"212 56 OFFCURVE",
"175 82 OFFCURVE",
"160 133 CURVE SMOOTH",
"144 185 OFFCURVE",
"136 256 OFFCURVE",
"136 347 CURVE SMOOTH"
);
}
);
width = 542;
},
{
layerId = "A47C7914-817C-44A4-AF12-15F849B12484";
paths = (
{
closed = 1;
nodes = (
"43 215 OFFCURVE",
"63 122 OFFCURVE",
"104 66 CURVE SMOOTH",
"146 11 OFFCURVE",
"208 -17 OFFCURVE",
"293 -17 CURVE SMOOTH",
"377 -17 OFFCURVE",
"440 11 OFFCURVE",
"481 66 CURVE SMOOTH",
"522 122 OFFCURVE",
"543 215 OFFCURVE",
"543 347 CURVE SMOOTH",
"543 479 OFFCURVE",
"522 573 OFFCURVE",
"481 628 CURVE SMOOTH",
"440 683 OFFCURVE",
"377 711 OFFCURVE",
"293 711 CURVE SMOOTH",
"208 711 OFFCURVE",
"146 683 OFFCURVE",
"104 628 CURVE SMOOTH",
"63 573 OFFCURVE",
"43 479 OFFCURVE",
"43 347 CURVE SMOOTH"
);
},
{
closed = 1;
nodes = (
"188 407 OFFCURVE",
"192 465 OFFCURVE",
"202 521 CURVE SMOOTH",
"212 577 OFFCURVE",
"243 604 OFFCURVE",
"293 604 CURVE SMOOTH",
"343 604 OFFCURVE",
"374 577 OFFCURVE",
"383 521 CURVE SMOOTH",
"394 465 OFFCURVE",
"398 407 OFFCURVE",
"398 347 CURVE SMOOTH",
"398 287 OFFCURVE",
"394 229 OFFCURVE",
"383 173 CURVE SMOOTH",
"374 118 OFFCURVE",
"343 90 OFFCURVE",
"293 90 CURVE SMOOTH",
"243 90 OFFCURVE",
"212 118 OFFCURVE",
"202 173 CURVE SMOOTH",
"192 229 OFFCURVE",
"188 287 OFFCURVE",
"188 347 CURVE SMOOTH"
);
}
);
width = 586;
}
);
unicode = 0030;
},
{
glyphname = one;
lastChange = "2016-09-03 11:05:29 +0000";
layers = (
{
layerId = UUID0;
paths = (
{
closed = 1;
nodes = (
"100 526 LINE SMOOTH",
"104 515 OFFCURVE",
"114 513 OFFCURVE",
"128 518 CURVE SMOOTH",
"145 524 OFFCURVE",
"163 534 OFFCURVE",
"182 547 CURVE SMOOTH",
"202 561 OFFCURVE",
"216 574 OFFCURVE",
"227 586 CURVE",
"228 586 LINE",
"227 577 OFFCURVE",
"227 567 OFFCURVE",
"227 557 CURVE SMOOTH",
"227 22 LINE SMOOTH",
"227 7 OFFCURVE",
"234 0 OFFCURVE",
"249 0 CURVE SMOOTH",
"291 0 LINE SMOOTH",
"305 0 OFFCURVE",
"313 7 OFFCURVE",
"313 22 CURVE SMOOTH",
"313 681 LINE SMOOTH",
"313 696 OFFCURVE",
"305 703 OFFCURVE",
"290 703 CURVE SMOOTH",
"249 703 LINE SMOOTH",
"240 703 OFFCURVE",
"230 697 OFFCURVE",
"221 686 CURVE SMOOTH",
"208 669 OFFCURVE",
"190 651 OFFCURVE",
"168 630 CURVE SMOOTH",
"146 609 OFFCURVE",
"122 594 OFFCURVE",
"97 584 CURVE SMOOTH",
"84 580 OFFCURVE",
"81 572 OFFCURVE",
"85 562 CURVE SMOOTH"
);
}
);
width = 404;
},
{
layerId = "A47C7914-817C-44A4-AF12-15F849B12484";
paths = (
{
closed = 1;
nodes = (
"123 491 LINE SMOOTH",
"130 476 OFFCURVE",
"142 472 OFFCURVE",
"157 479 CURVE SMOOTH",
"182 489 OFFCURVE",
"207 507 OFFCURVE",
"227 533 CURVE",
"229 533 LINE",
"228 520 OFFCURVE",
"227 507 OFFCURVE",
"227 494 CURVE SMOOTH",
"227 29 LINE SMOOTH",
"227 10 OFFCURVE",
"237 0 OFFCURVE",
"256 0 CURVE SMOOTH",
"334 0 LINE SMOOTH",
"354 0 OFFCURVE",
"364 10 OFFCURVE",
"364 29 CURVE SMOOTH",
"364 674 LINE SMOOTH",
"364 693 OFFCURVE",
"354 703 OFFCURVE",
"334 703 CURVE SMOOTH",
"257 703 LINE SMOOTH",
"244 703 OFFCURVE",
"229 694 OFFCURVE",
"215 676 CURVE SMOOTH",
"202 660 OFFCURVE",
"185 644 OFFCURVE",
"165 628 CURVE SMOOTH",
"144 613 OFFCURVE",
"125 601 OFFCURVE",
"105 593 CURVE SMOOTH",
"85 584 OFFCURVE",
"80 572 OFFCURVE",
"88 556 CURVE SMOOTH"
);
}
);
width = 443;
}
);
unicode = 0031;
},
{
glyphname = two;
lastChange = "2016-09-03 11:05:29 +0000";
layers = (
{
layerId = UUID0;
paths = (
{
closed = 1;
nodes = (
"469 0 LINE SMOOTH",
"487 0 OFFCURVE",
"496 7 OFFCURVE",
"496 22 CURVE SMOOTH",
"496 58 LINE SMOOTH",
"496 73 OFFCURVE",
"487 80 OFFCURVE",
"469 80 CURVE SMOOTH",
"203 80 LINE SMOOTH",
"186 80 OFFCURVE",
"172 80 OFFCURVE",
"164 79 CURVE",
"164 81 LINE",
"324 237 LINE SMOOTH",
"375 286 OFFCURVE",
"415 330 OFFCURVE",
"444 370 CURVE SMOOTH",
"473 409 OFFCURVE",
"488 456 OFFCURVE",
"488 510 CURVE SMOOTH",
"488 566 OFFCURVE",
"470 613 OFFCURVE",
"435 651 CURVE SMOOTH",
"399 690 OFFCURVE",
"344 709 OFFCURVE",
"267 709 CURVE SMOOTH",
"207 709 OFFCURVE",
"159 692 OFFCURVE",
"122 659 CURVE SMOOTH",
"86 626 OFFCURVE",
"63 588 OFFCURVE",
"54 546 CURVE SMOOTH",
"48 521 OFFCURVE",
"51 507 OFFCURVE",
"61 504 CURVE SMOOTH",
"99 493 LINE SMOOTH",
"114 489 OFFCURVE",
"124 496 OFFCURVE",
"128 515 CURVE SMOOTH",
"149 602 OFFCURVE",
"198 636 OFFCURVE",
"271 636 CURVE SMOOTH",
"312 636 OFFCURVE",
"342 624 OFFCURVE",
"362 600 CURVE SMOOTH",
"382 576 OFFCURVE",
"392 547 OFFCURVE",
"392 513 CURVE SMOOTH",
"392 473 OFFCURVE",
"383 437 OFFCURVE",
"365 405 CURVE SMOOTH",
"348 375 OFFCURVE",
"311 331 OFFCURVE",
"254 273 CURVE SMOOTH",
"63 81 LINE SMOOTH",
"52 70 OFFCURVE",
"46 58 OFFCURVE",
"46 45 CURVE SMOOTH",
"46 22 LINE SMOOTH",
"46 7 OFFCURVE",
"55 0 OFFCURVE",
"73 0 CURVE SMOOTH"
);
}
);
width = 542;
},
{
layerId = "A47C7914-817C-44A4-AF12-15F849B12484";
paths = (
{
closed = 1;
nodes = (
"505 0 LINE SMOOTH",
"530 0 OFFCURVE",
"542 11 OFFCURVE",
"542 32 CURVE SMOOTH",
"542 89 LINE SMOOTH",
"542 110 OFFCURVE",
"530 121 OFFCURVE",
"505 121 CURVE SMOOTH",
"277 121 LINE SMOOTH",
"264 121 OFFCURVE",
"248 121 OFFCURVE",
"229 119 CURVE",
"229 122 LINE",
"312 209 LINE SMOOTH",
"354 255 OFFCURVE",
"402 301 OFFCURVE",
"455 349 CURVE SMOOTH",
"508 396 OFFCURVE",
"534 452 OFFCURVE",
"534 515 CURVE SMOOTH",
"534 563 OFFCURVE",
"516 608 OFFCURVE",
"480 649 CURVE SMOOTH",
"444 690 OFFCURVE",
"386 711 OFFCURVE",
"306 711 CURVE SMOOTH",
"229 711 OFFCURVE",
"171 694 OFFCURVE",
"132 661 CURVE SMOOTH",
"93 627 OFFCURVE",
"67 587 OFFCURVE",
"54 541 CURVE SMOOTH",
"47 516 OFFCURVE",
"52 500 OFFCURVE",
"68 495 CURVE SMOOTH",
"117 479 LINE SMOOTH",
"137 472 OFFCURVE",
"151 480 OFFCURVE",
"158 503 CURVE SMOOTH",
"166 527 OFFCURVE",
"179 549 OFFCURVE",
"196 570 CURVE SMOOTH",
"214 591 OFFCURVE",
"245 602 OFFCURVE",
"290 602 CURVE SMOOTH",
"347 602 OFFCURVE",
"388 568 OFFCURVE",
"388 494 CURVE SMOOTH",
"388 457 OFFCURVE",
"370 420 OFFCURVE",
"333 383 CURVE SMOOTH",
"296 347 OFFCURVE",
"256 306 OFFCURVE",
"212 259 CURVE SMOOTH",
"66 105 LINE SMOOTH",
"51 89 OFFCURVE",
"43 72 OFFCURVE",
"43 55 CURVE SMOOTH",
"43 32 LINE SMOOTH",
"43 11 OFFCURVE",
"55 0 OFFCURVE",
"80 0 CURVE SMOOTH"
);
}
);
width = 586;
}
);
unicode = 0032;
},
{
glyphname = three;
lastChange = "2016-09-03 11:05:29 +0000";
layers = (
{
layerId = UUID0;
paths = (
{
closed = 1;
nodes = (
"82 53 OFFCURVE",
"106 34 OFFCURVE",
"139 14 CURVE SMOOTH",
"171 -5 OFFCURVE",
"212 -15 OFFCURVE",
"261 -15 CURVE SMOOTH",
"347 -15 OFFCURVE",
"409 5 OFFCURVE",
"448 43 CURVE SMOOTH",
"487 83 OFFCURVE",
"507 136 OFFCURVE",
"507 204 CURVE SMOOTH",
"507 249 OFFCURVE",
"491 289 OFFCURVE",
"459 321 CURVE SMOOTH",
"427 354 OFFCURVE",
"394 373 OFFCURVE",
"359 378 CURVE",
"359 380 LINE",
"389 386 OFFCURVE",
"417 403 OFFCURVE",
"441 431 CURVE SMOOTH",
"467 458 OFFCURVE",
"479 493 OFFCURVE",
"479 534 CURVE SMOOTH",
"479 585 OFFCURVE",
"462 627 OFFCURVE",
"426 660 CURVE SMOOTH",
"391 693 OFFCURVE",
"339 709 OFFCURVE",
"272 709 CURVE SMOOTH",
"228 709 OFFCURVE",
"190 701 OFFCURVE",
"158 685 CURVE SMOOTH",
"126 669 OFFCURVE",
"103 651 OFFCURVE",
"85 631 CURVE SMOOTH",
"69 612 OFFCURVE",
"66 599 OFFCURVE",
"74 591 CURVE SMOOTH",
"103 563 LINE SMOOTH",
"114 552 OFFCURVE",
"126 555 OFFCURVE",
"138 570 CURVE SMOOTH",
"147 582 OFFCURVE",
"163 596 OFFCURVE",
"185 612 CURVE SMOOTH",
"207 628 OFFCURVE",
"236 636 OFFCURVE",
"271 636 CURVE SMOOTH",
"308 636 OFFCURVE",
"336 627 OFFCURVE",
"357 609 CURVE SMOOTH",
"377 591 OFFCURVE",
"388 568 OFFCURVE",
"388 540 CURVE SMOOTH",
"388 500 OFFCURVE",
"375 468 OFFCURVE",
"349 444 CURVE SMOOTH",
"324 421 OFFCURVE",
"293 409 OFFCURVE",
"257 409 CURVE SMOOTH",
"223 409 LINE SMOOTH",
"208 409 OFFCURVE",
"201 403 OFFCURVE",
"201 392 CURVE SMOOTH",
"201 356 LINE SMOOTH",
"201 345 OFFCURVE",
"208 340 OFFCURVE",
"223 340 CURVE SMOOTH",
"266 340 LINE SMOOTH",
"303 340 OFFCURVE",
"336 329 OFFCURVE",
"366 308 CURVE SMOOTH",
"396 287 OFFCURVE",
"411 253 OFFCURVE",
"411 206 CURVE SMOOTH",
"411 161 OFFCURVE",
"400 125 OFFCURVE",
"377 99 CURVE SMOOTH",
"355 72 OFFCURVE",
"317 59 OFFCURVE",
"263 59 CURVE SMOOTH",
"208 59 OFFCURVE",
"156 88 OFFCURVE",
"122 131 CURVE SMOOTH",
"107 150 OFFCURVE",
"94 153 OFFCURVE",
"83 140 CURVE SMOOTH",
"57 109 LINE SMOOTH",
"49 100 OFFCURVE",
"52 87 OFFCURVE",
"65 72 CURVE SMOOTH"
);
}
);
width = 542;
},
{
layerId = "A47C7914-817C-44A4-AF12-15F849B12484";
paths = (
{
closed = 1;
nodes = (
"89 29 OFFCURVE",
"122 13 OFFCURVE",
"163 1 CURVE SMOOTH",
"205 -11 OFFCURVE",
"245 -17 OFFCURVE",
"284 -17 CURVE SMOOTH",
"468 -17 OFFCURVE",
"557 61 OFFCURVE",
"557 204 CURVE SMOOTH",
"557 249 OFFCURVE",
"540 287 OFFCURVE",
"507 318 CURVE SMOOTH",
"474 349 OFFCURVE",
"438 369 OFFCURVE",
"401 378 CURVE",
"401 380 LINE",
"433 391 OFFCURVE",
"462 411 OFFCURVE",
"490 440 CURVE SMOOTH",
"518 470 OFFCURVE",
"532 503 OFFCURVE",
"532 539 CURVE SMOOTH",
"532 587 OFFCURVE",
"512 627 OFFCURVE",
"471 661 CURVE SMOOTH",
"431 694 OFFCURVE",
"368 711 OFFCURVE",
"285 711 CURVE SMOOTH",
"249 711 OFFCURVE",
"213 706 OFFCURVE",
"176 695 CURVE SMOOTH",
"139 684 OFFCURVE",
"108 667 OFFCURVE",
"85 645 CURVE SMOOTH",
"68 629 OFFCURVE",
"64 613 OFFCURVE",
"75 597 CURVE SMOOTH",
"104 556 LINE SMOOTH",
"118 535 OFFCURVE",
"134 534 OFFCURVE",
"154 553 CURVE SMOOTH",
"181 580 OFFCURVE",
"229 602 OFFCURVE",
"293 602 CURVE SMOOTH",
"361 602 OFFCURVE",
"390 569 OFFCURVE",
"390 525 CURVE SMOOTH",
"390 498 OFFCURVE",
"378 474 OFFCURVE",
"355 456 CURVE SMOOTH",
"332 437 OFFCURVE",
"306 428 OFFCURVE",
"276 428 CURVE SMOOTH",
"247 428 LINE SMOOTH",
"226 428 OFFCURVE",
"215 419 OFFCURVE",
"215 401 CURVE SMOOTH",
"215 347 LINE SMOOTH",
"215 330 OFFCURVE",
"226 321 OFFCURVE",
"247 321 CURVE SMOOTH",
"284 321 LINE SMOOTH",
"324 321 OFFCURVE",
"355 310 OFFCURVE",
"377 286 CURVE SMOOTH",
"399 262 OFFCURVE",
"410 236 OFFCURVE",
"410 206 CURVE SMOOTH",
"410 177 OFFCURVE",
"401 151 OFFCURVE",
"382 127 CURVE SMOOTH",
"364 104 OFFCURVE",
"333 93 OFFCURVE",
"290 93 CURVE SMOOTH",
"228 93 OFFCURVE",
"177 112 OFFCURVE",
"137 141 CURVE SMOOTH",
"113 158 OFFCURVE",
"95 157 OFFCURVE",
"84 137 CURVE SMOOTH",
"62 96 LINE SMOOTH",
"51 76 OFFCURVE",
"52 61 OFFCURVE",
"65 50 CURVE SMOOTH"
);
}
);
width = 586;
}
);
unicode = 0033;
},
{
glyphname = four;
lastChange = "2016-09-03 11:05:29 +0000";
layers = (
{
layerId = UUID0;
paths = (
{
closed = 1;
nodes = (
"319 173 LINE",
"319 22 LINE SMOOTH",
"319 7 OFFCURVE",
"327 0 OFFCURVE",
"341 0 CURVE SMOOTH",
"383 0 LINE SMOOTH",
"398 0 OFFCURVE",
"405 7 OFFCURVE",
"405 22 CURVE SMOOTH",
"405 173 LINE",
"489 173 LINE SMOOTH",
"503 173 OFFCURVE",
"511 180 OFFCURVE",
"511 195 CURVE SMOOTH",
"511 231 LINE SMOOTH",
"511 246 OFFCURVE",
"503 253 OFFCURVE",
"489 253 CURVE SMOOTH",
"405 253 LINE",
"405 681 LINE SMOOTH",
"405 696 OFFCURVE",
"398 703 OFFCURVE",
"383 703 CURVE SMOOTH",
"338 703 LINE SMOOTH",
"328 703 OFFCURVE",
"318 697 OFFCURVE",
"311 686 CURVE SMOOTH",
"43 271 LINE SMOOTH",
"35 259 OFFCURVE",
"31 248 OFFCURVE",
"31 238 CURVE SMOOTH",
"31 195 LINE SMOOTH",
"31 180 OFFCURVE",
"39 173 OFFCURVE",
"53 173 CURVE SMOOTH"
);
},
{
closed = 1;
nodes = (
"319 563 LINE",
"320 563 LINE",
"320 553 OFFCURVE",
"319 543 OFFCURVE",
"319 534 CURVE SMOOTH",
"319 253 LINE",
"119 253 LINE"
);
}
);
width = 542;
},
{
layerId = "A47C7914-817C-44A4-AF12-15F849B12484";
paths = (
{
closed = 1;
nodes = (
"328 152 LINE",
"328 32 LINE SMOOTH",
"328 11 OFFCURVE",
"339 0 OFFCURVE",
"360 0 CURVE SMOOTH",
"433 0 LINE SMOOTH",
"454 0 OFFCURVE",
"465 11 OFFCURVE",
"465 32 CURVE SMOOTH",
"465 152 LINE",
"524 152 LINE SMOOTH",
"545 152 OFFCURVE",
"556 163 OFFCURVE",
"556 184 CURVE SMOOTH",
"556 242 LINE SMOOTH",
"556 263 OFFCURVE",
"545 273 OFFCURVE",
"524 273 CURVE SMOOTH",
"465 273 LINE",
"465 671 LINE SMOOTH",
"465 692 OFFCURVE",
"454 703 OFFCURVE",
"433 703 CURVE SMOOTH",
"361 703 LINE SMOOTH",
"343 703 OFFCURVE",
"328 695 OFFCURVE",
"315 678 CURVE SMOOTH",
"45 297 LINE SMOOTH",
"35 283 OFFCURVE",
"30 267 OFFCURVE",
"30 249 CURVE SMOOTH",
"30 184 LINE SMOOTH",
"30 163 OFFCURVE",
"41 152 OFFCURVE",
"62 152 CURVE SMOOTH"
);
},
{
closed = 1;
nodes = (
"328 501 LINE",
"330 501 LINE",
"329 488 OFFCURVE",
"328 476 OFFCURVE",
"328 462 CURVE SMOOTH",
"328 273 LINE",
"167 273 LINE"
);
}
);
width = 586;
}
);
unicode = 0034;
},
{
glyphname = five;
lastChange = "2016-09-03 11:05:29 +0000";
layers = (
{
layerId = UUID0;
paths = (
{
closed = 1;
nodes = (
"84 61 OFFCURVE",
"107 40 OFFCURVE",
"140 18 CURVE SMOOTH",
"172 -4 OFFCURVE",
"215 -15 OFFCURVE",
"268 -15 CURVE SMOOTH",
"341 -15 OFFCURVE",
"398 5 OFFCURVE",
"440 46 CURVE SMOOTH",
"482 86 OFFCURVE",
"503 142 OFFCURVE",
"503 213 CURVE SMOOTH",
"503 279 OFFCURVE",
"486 332 OFFCURVE",
"451 372 CURVE SMOOTH",
"416 413 OFFCURVE",
"368 433 OFFCURVE",
"307 433 CURVE SMOOTH",
"286 433 OFFCURVE",
"264 430 OFFCURVE",
"239 424 CURVE SMOOTH",
"215 418 OFFCURVE",
"193 407 OFFCURVE",
"175 392 CURVE",
"173 392 LINE",
"174 402 OFFCURVE",
"174 412 OFFCURVE",
"174 421 CURVE SMOOTH",
"174 614 LINE",
"447 614 LINE SMOOTH",
"462 614 OFFCURVE",
"469 622 OFFCURVE",
"469 636 CURVE SMOOTH",
"469 672 LINE SMOOTH",
"469 687 OFFCURVE",
"462 694 OFFCURVE",
"447 694 CURVE SMOOTH",
"110 694 LINE SMOOTH",
"96 694 OFFCURVE",
"88 687 OFFCURVE",
"88 672 CURVE SMOOTH",
"88 327 LINE SMOOTH",
"88 313 OFFCURVE",
"96 305 OFFCURVE",
"110 305 CURVE SMOOTH",
"133 305 LINE SMOOTH",
"147 305 OFFCURVE",
"160 311 OFFCURVE",
"172 321 CURVE SMOOTH",
"190 337 OFFCURVE",
"208 347 OFFCURVE",
"224 352 CURVE SMOOTH",
"241 357 OFFCURVE",
"262 359 OFFCURVE",
"287 359 CURVE SMOOTH",
"367 359 OFFCURVE",
"408 305 OFFCURVE",
"408 215 CURVE SMOOTH",
"408 168 OFFCURVE",
"396 130 OFFCURVE",
"372 102 CURVE SMOOTH",
"349 73 OFFCURVE",
"313 59 OFFCURVE",
"267 59 CURVE SMOOTH",
"231 59 OFFCURVE",
"203 68 OFFCURVE",
"181 87 CURVE SMOOTH",
"159 106 OFFCURVE",
"143 121 OFFCURVE",
"134 131 CURVE SMOOTH",
"120 149 OFFCURVE",
"107 153 OFFCURVE",
"96 144 CURVE SMOOTH",
"65 117 LINE SMOOTH",
"56 108 OFFCURVE",
"58 96 OFFCURVE",
"70 80 CURVE SMOOTH"
);
}
);
width = 542;
},
{
layerId = "A47C7914-817C-44A4-AF12-15F849B12484";
paths = (
{
closed = 1;
nodes = (
"75 30 OFFCURVE",
"104 15 OFFCURVE",
"145 2 CURVE",
"187 -10 OFFCURVE",
"237 -17 OFFCURVE",
"294 -17 CURVE SMOOTH",
"363 -17 OFFCURVE",
"422 3 OFFCURVE",
"472 42 CURVE SMOOTH",
"522 82 OFFCURVE",
"547 139 OFFCURVE",
"547 213 CURVE SMOOTH",
"547 295 OFFCURVE",
"527 355 OFFCURVE",
"488 394 CURVE",
"449 433 OFFCURVE",
"401 452 OFFCURVE",
"344 452 CURVE SMOOTH",
"295 452 OFFCURVE",
"253 444 OFFCURVE",
"218 415 CURVE",
"215 415 LINE",
"217 428 OFFCURVE",
"217 440 OFFCURVE",
"217 454 CURVE SMOOTH",
"217 573 LINE",
"464 573 LINE SMOOTH",
"485 573 OFFCURVE",
"496 584 OFFCURVE",
"496 605 CURVE SMOOTH",
"496 663 LINE SMOOTH",
"496 684 OFFCURVE",
"485 694 OFFCURVE",
"464 694 CURVE SMOOTH",
"112 694 LINE SMOOTH",
"91 694 OFFCURVE",
"81 684 OFFCURVE",
"81 663 CURVE SMOOTH",
"81 326 LINE SMOOTH",
"81 305 OFFCURVE",
"91 294 OFFCURVE",
"112 294 CURVE SMOOTH",
"166 294 LINE SMOOTH",
"183 294 OFFCURVE",
"198 299 OFFCURVE",
"210 310 CURVE SMOOTH",
"229 326 OFFCURVE",
"246 335 OFFCURVE",
"262 338 CURVE SMOOTH",
"279 341 OFFCURVE",
"297 343 OFFCURVE",
"317 343 CURVE SMOOTH",
"340 343 OFFCURVE",
"360 331 OFFCURVE",
"376 308 CURVE SMOOTH",
"392 284 OFFCURVE",
"400 253 OFFCURVE",
"400 215 CURVE SMOOTH",
"400 175 OFFCURVE",
"388 145 OFFCURVE",
"362 124 CURVE SMOOTH",
"336 103 OFFCURVE",
"305 93 OFFCURVE",
"268 93 CURVE SMOOTH",
"244 93 OFFCURVE",
"219 97 OFFCURVE",
"195 105 CURVE SMOOTH",
"170 114 OFFCURVE",
"152 124 OFFCURVE",
"141 135 CURVE SMOOTH",
"121 153 OFFCURVE",
"104 152 OFFCURVE",
"91 133 CURVE SMOOTH",
"57 86 LINE SMOOTH",
"49 76 OFFCURVE",
"50 63 OFFCURVE",
"61 49 CURVE SMOOTH"
);
}
);
width = 586;
}
);
unicode = 0035;
},
{
glyphname = six;
lastChange = "2016-09-03 11:05:29 +0000";
layers = (
{
layerId = UUID0;
paths = (
{
closed = 1;
nodes = (
"45 222 OFFCURVE",
"64 138 OFFCURVE",
"102 77 CURVE SMOOTH",
"141 16 OFFCURVE",
"198 -15 OFFCURVE",
"275 -15 CURVE SMOOTH",
"349 -15 OFFCURVE",
"404 7 OFFCURVE",
"441 52 CURVE SMOOTH",
"479 96 OFFCURVE",
"498 154 OFFCURVE",
"498 225 CURVE SMOOTH",
"498 296 OFFCURVE",
"479 350 OFFCURVE",
"439 385 CURVE SMOOTH",
"399 421 OFFCURVE",
"354 439 OFFCURVE",
"302 439 CURVE SMOOTH",
"260 439 OFFCURVE",
"225 432 OFFCURVE",
"197 417 CURVE SMOOTH",
"170 402 OFFCURVE",
"149 384 OFFCURVE",
"134 363 CURVE",
"133 363 LINE",
"133 457 OFFCURVE",
"149 526 OFFCURVE",
"182 570 CURVE SMOOTH",
"215 614 OFFCURVE",
"253 636 OFFCURVE",
"297 636 CURVE SMOOTH",
"328 636 OFFCURVE",
"352 632 OFFCURVE",
"369 625 CURVE SMOOTH",
"386 617 OFFCURVE",
"400 608 OFFCURVE",
"413 598 CURVE SMOOTH",
"427 585 OFFCURVE",
"439 584 OFFCURVE",
"448 595 CURVE SMOOTH",
"471 622 LINE SMOOTH",
"479 630 OFFCURVE",
"476 641 OFFCURVE",
"462 653 CURVE SMOOTH",
"444 669 OFFCURVE",
"423 683 OFFCURVE",
"399 693 CURVE SMOOTH",
"375 704 OFFCURVE",
"342 709 OFFCURVE",
"301 709 CURVE SMOOTH",
"230 709 OFFCURVE",
"169 681 OFFCURVE",
"120 625 CURVE SMOOTH",
"70 570 OFFCURVE",
"45 471 OFFCURVE",
"45 328 CURVE SMOOTH"
);
},
{
closed = 1;
nodes = (
"150 263 OFFCURVE",
"162 298 OFFCURVE",
"186 325 CURVE SMOOTH",
"209 351 OFFCURVE",
"243 364 OFFCURVE",
"286 364 CURVE SMOOTH",
"319 364 OFFCURVE",
"347 352 OFFCURVE",
"369 328 CURVE SMOOTH",
"391 304 OFFCURVE",
"402 269 OFFCURVE",
"402 222 CURVE SMOOTH",
"402 174 OFFCURVE",
"392 135 OFFCURVE",
"370 104 CURVE SMOOTH",
"348 74 OFFCURVE",
"316 59 OFFCURVE",
"276 59 CURVE SMOOTH",
"236 59 OFFCURVE",
"206 75 OFFCURVE",
"183 108 CURVE",
"161 141 OFFCURVE",
"150 178 OFFCURVE",
"150 218 CURVE SMOOTH"
);
}
);
width = 542;
},
{
layerId = "A47C7914-817C-44A4-AF12-15F849B12484";
paths = (
{
closed = 1;
nodes = (
"43 218 OFFCURVE",
"63 133 OFFCURVE",
"103 73 CURVE",
"143 13 OFFCURVE",
"207 -17 OFFCURVE",
"296 -17 CURVE SMOOTH",
"380 -17 OFFCURVE",
"442 5 OFFCURVE",
"483 47 CURVE SMOOTH",
"523 90 OFFCURVE",
"544 147 OFFCURVE",
"544 219 CURVE SMOOTH",
"544 285 OFFCURVE",
"526 340 OFFCURVE",
"492 385 CURVE SMOOTH",
"457 430 OFFCURVE",
"405 452 OFFCURVE",
"337 452 CURVE SMOOTH",
"263 452 OFFCURVE",
"210 435 OFFCURVE",
"181 390 CURVE",
"179 390 LINE",
"179 467 OFFCURVE",
"193 521 OFFCURVE",
"222 553 CURVE SMOOTH",
"251 585 OFFCURVE",
"282 602 OFFCURVE",
"316 602 CURVE SMOOTH",
"357 602 OFFCURVE",
"398 588 OFFCURVE",
"418 573 CURVE SMOOTH",
"438 557 OFFCURVE",
"453 557 OFFCURVE",
"463 573 CURVE SMOOTH",
"496 621 LINE SMOOTH",
"504 634 OFFCURVE",
"501 648 OFFCURVE",
"485 662 CURVE SMOOTH",
"469 677 OFFCURVE",
"445 688 OFFCURVE",
"414 697 CURVE SMOOTH",
"383 707 OFFCURVE",
"352 711 OFFCURVE",
"321 711 CURVE SMOOTH",
"241 711 OFFCURVE",
"174 684 OFFCURVE",
"122 629 CURVE SMOOTH",
"69 575 OFFCURVE",
"43 475 OFFCURVE",
"43 328 CURVE SMOOTH"
);
},
{
closed = 1;
nodes = (
"203 248 OFFCURVE",
"212 277 OFFCURVE",
"229 303 CURVE SMOOTH",
"248 330 OFFCURVE",
"272 343 OFFCURVE",
"305 343 CURVE SMOOTH",
"363 343 OFFCURVE",
"397 306 OFFCURVE",
"397 220 CURVE SMOOTH",
"397 171 OFFCURVE",
"389 138 OFFCURVE",
"373 120 CURVE SMOOTH",
"357 102 OFFCURVE",
"332 93 OFFCURVE",
"299 93 CURVE SMOOTH",
"236 93 OFFCURVE",
"203 137 OFFCURVE",
"203 216 CURVE SMOOTH"
);
}
);
width = 586;
}
);
unicode = 0036;
},
{
glyphname = seven;
lastChange = "2016-09-03 11:05:29 +0000";
layers = (
{
layerId = UUID0;
paths = (
{
closed = 1;
nodes = (
"376 614 LINE SMOOTH",
"386 614 OFFCURVE",
"396 615 OFFCURVE",
"406 615 CURVE",
"406 614 LINE",
"339 533 OFFCURVE",
"284 447 OFFCURVE",
"239 358 CURVE SMOOTH",
"195 269 OFFCURVE",
"172 166 OFFCURVE",
"172 48 CURVE SMOOTH",
"172 19 LINE SMOOTH",
"172 4 OFFCURVE",
"180 -3 OFFCURVE",
"194 -3 CURVE SMOOTH",
"239 -3 LINE SMOOTH",
"253 -3 OFFCURVE",
"261 4 OFFCURVE",
"261 19 CURVE SMOOTH",
"261 65 LINE SMOOTH",
"261 171 OFFCURVE",
"280 269 OFFCURVE",
"320 358 CURVE SMOOTH",
"359 448 OFFCURVE",
"412 530 OFFCURVE",
"477 604 CURVE SMOOTH",
"488 617 OFFCURVE",
"494 628 OFFCURVE",
"494 639 CURVE SMOOTH",
"494 672 LINE SMOOTH",
"494 687 OFFCURVE",
"487 694 OFFCURVE",
"472 694 CURVE SMOOTH",
"65 694 LINE SMOOTH",
"50 694 OFFCURVE",
"43 687 OFFCURVE",
"43 672 CURVE SMOOTH",
"43 636 LINE SMOOTH",
"43 622 OFFCURVE",
"50 614 OFFCURVE",
"65 614 CURVE SMOOTH"
);
}
);
width = 537;
},
{
layerId = "A47C7914-817C-44A4-AF12-15F849B12484";
paths = (
{
closed = 1;
nodes = (
"335 573 LINE SMOOTH",
"349 573 OFFCURVE",
"361 574 OFFCURVE",
"375 575 CURVE",
"375 573 LINE",
"310 497 OFFCURVE",
"258 418 OFFCURVE",
"219 338 CURVE SMOOTH",
"181 258 OFFCURVE",
"161 160 OFFCURVE",
"161 42 CURVE SMOOTH",
"161 29 LINE SMOOTH",
"161 8 OFFCURVE",
"172 -3 OFFCURVE",
"193 -3 CURVE SMOOTH",
"266 -3 LINE SMOOTH",
"287 -3 OFFCURVE",
"298 8 OFFCURVE",
"298 29 CURVE SMOOTH",
"298 59 LINE SMOOTH",
"298 165 OFFCURVE",
"311 255 OFFCURVE",
"338 330 CURVE SMOOTH",
"365 405 OFFCURVE",
"411 480 OFFCURVE",
"478 555 CURVE SMOOTH",
"494 573 OFFCURVE",
"502 591 OFFCURVE",
"502 607 CURVE SMOOTH",
"502 663 LINE SMOOTH",
"502 684 OFFCURVE",
"492 694 OFFCURVE",
"471 694 CURVE SMOOTH",
"72 694 LINE SMOOTH",
"51 694 OFFCURVE",
"41 684 OFFCURVE",
"41 663 CURVE SMOOTH",
"41 605 LINE SMOOTH",
"41 584 OFFCURVE",
"51 573 OFFCURVE",
"72 573 CURVE SMOOTH"
);
}
);
width = 543;
}
);
unicode = 0037;
},
{
glyphname = eight;
lastChange = "2016-09-03 11:05:29 +0000";
layers = (
{
layerId = UUID0;
paths = (
{
closed = 1;
nodes = (
"45 135 OFFCURVE",
"63 83 OFFCURVE",
"99 44 CURVE SMOOTH",
"136 5 OFFCURVE",
"193 -15 OFFCURVE",
"271 -15 CURVE SMOOTH",
"349 -15 OFFCURVE",
"406 5 OFFCURVE",
"442 44 CURVE SMOOTH",
"479 83 OFFCURVE",
"497 135 OFFCURVE",
"497 200 CURVE SMOOTH",
"497 246 OFFCURVE",
"482 285 OFFCURVE",
"453 316 CURVE SMOOTH",
"423 349 OFFCURVE",
"395 368 OFFCURVE",
"367 375 CURVE",
"367 376 LINE",
"396 385 OFFCURVE",
"423 403 OFFCURVE",
"446 429 CURVE SMOOTH",
"469 455 OFFCURVE",
"480 489 OFFCURVE",
"480 531 CURVE SMOOTH",
"480 585 OFFCURVE",
"460 628 OFFCURVE",
"422 660 CURVE SMOOTH",
"383 693 OFFCURVE",
"333 709 OFFCURVE",
"271 709 CURVE SMOOTH",
"209 709 OFFCURVE",
"159 693 OFFCURVE",
"120 660 CURVE SMOOTH",
"82 628 OFFCURVE",
"62 585 OFFCURVE",
"62 531 CURVE SMOOTH",
"62 489 OFFCURVE",
"73 455 OFFCURVE",
"94 429 CURVE SMOOTH",
"116 403 OFFCURVE",
"142 386 OFFCURVE",
"171 376 CURVE",
"171 375 LINE",
"144 368 OFFCURVE",
"116 349 OFFCURVE",
"87 316 CURVE SMOOTH",
"59 285 OFFCURVE",
"45 246 OFFCURVE",
"45 200 CURVE SMOOTH"
);
},
{
closed = 1;
nodes = (
"140 234 OFFCURVE",
"152 266 OFFCURVE",
"175 293 CURVE SMOOTH",
"198 320 OFFCURVE",
"230 334 OFFCURVE",
"271 334 CURVE SMOOTH",
"312 334 OFFCURVE",
"344 320 OFFCURVE",
"367 293 CURVE SMOOTH",
"390 266 OFFCURVE",
"401 234 OFFCURVE",
"401 198 CURVE SMOOTH",
"401 107 OFFCURVE",
"355 59 OFFCURVE",
"271 59 CURVE SMOOTH",
"187 59 OFFCURVE",
"140 107 OFFCURVE",
"140 198 CURVE SMOOTH"
);
},
{
closed = 1;
nodes = (
"154 557 OFFCURVE",
"163 581 OFFCURVE",
"181 603 CURVE SMOOTH",
"199 625 OFFCURVE",
"229 636 OFFCURVE",
"271 636 CURVE SMOOTH",
"313 636 OFFCURVE",
"343 625 OFFCURVE",
"361 603 CURVE SMOOTH",
"379 581 OFFCURVE",
"388 557 OFFCURVE",
"388 531 CURVE SMOOTH",
"388 499 OFFCURVE",
"379 471 OFFCURVE",
"360 448 CURVE SMOOTH",
"341 425 OFFCURVE",
"312 413 OFFCURVE",
"271 413 CURVE SMOOTH",
"230 413 OFFCURVE",
"201 425 OFFCURVE",
"182 448 CURVE SMOOTH",
"163 471 OFFCURVE",
"154 499 OFFCURVE",
"154 531 CURVE SMOOTH"
);
}
);
width = 542;
},
{
layerId = "A47C7914-817C-44A4-AF12-15F849B12484";
paths = (
{
closed = 1;
nodes = (
"42 127 OFFCURVE",
"62 78 OFFCURVE",
"101 40 CURVE SMOOTH",
"140 2 OFFCURVE",
"204 -17 OFFCURVE",
"293 -17 CURVE SMOOTH",
"382 -17 OFFCURVE",
"446 2 OFFCURVE",
"485 40 CURVE SMOOTH",
"524 78 OFFCURVE",
"544 127 OFFCURVE",
"544 187 CURVE SMOOTH",
"544 243 OFFCURVE",
"527 287 OFFCURVE",
"492 317 CURVE",
"458 349 OFFCURVE",
"429 368 OFFCURVE",
"404 375 CURVE",
"404 377 LINE",
"432 386 OFFCURVE",
"458 403 OFFCURVE",
"484 429 CURVE SMOOTH",
"511 455 OFFCURVE",
"524 489 OFFCURVE",
"524 531 CURVE SMOOTH",
"524 582 OFFCURVE",
"503 625 OFFCURVE",
"462 659 CURVE SMOOTH",
"421 694 OFFCURVE",
"365 711 OFFCURVE",
"293 711 CURVE SMOOTH",
"221 711 OFFCURVE",
"165 694 OFFCURVE",
"124 659 CURVE SMOOTH",
"83 625 OFFCURVE",
"62 582 OFFCURVE",
"62 531 CURVE SMOOTH",
"62 489 OFFCURVE",
"75 455 OFFCURVE",
"101 429 CURVE SMOOTH",
"127 403 OFFCURVE",
"154 386 OFFCURVE",
"182 377 CURVE",
"182 375 LINE",
"157 368 OFFCURVE",
"128 349 OFFCURVE",
"93 317 CURVE SMOOTH",
"59 287 OFFCURVE",
"42 243 OFFCURVE",
"42 187 CURVE SMOOTH"
);
},
{
closed = 1;
nodes = (
"188 229 OFFCURVE",
"197 255 OFFCURVE",
"215 279 CURVE SMOOTH",
"233 303 OFFCURVE",
"259 314 OFFCURVE",
"293 314 CURVE SMOOTH",
"327 314 OFFCURVE",
"353 303 OFFCURVE",
"371 279 CURVE",
"389 255 OFFCURVE",
"397 229 OFFCURVE",
"397 202 CURVE SMOOTH",
"397 128 OFFCURVE",
"367 93 OFFCURVE",
"293 93 CURVE SMOOTH",
"219 93 OFFCURVE",
"188 128 OFFCURVE",
"188 202 CURVE SMOOTH"
);
},
{
closed = 1;
nodes = (
"205 569 OFFCURVE",
"237 602 OFFCURVE",
"293 602 CURVE SMOOTH",
"349 602 OFFCURVE",
"381 569 OFFCURVE",
"381 517 CURVE SMOOTH",
"381 464 OFFCURVE",
"352 433 OFFCURVE",
"293 433 CURVE SMOOTH",
"234 433 OFFCURVE",
"205 464 OFFCURVE",
"205 517 CURVE SMOOTH"
);
}
);
width = 586;
}
);
unicode = 0038;
},
{
glyphname = nine;
lastChange = "2016-09-03 11:05:29 +0000";
layers = (
{
layerId = UUID0;
paths = (
{
closed = 1;
nodes = (
"44 398 OFFCURVE",
"63 344 OFFCURVE",
"103 309 CURVE SMOOTH",
"143 273 OFFCURVE",
"188 255 OFFCURVE",
"240 255 CURVE SMOOTH",
"282 255 OFFCURVE",
"317 263 OFFCURVE",
"344 277 CURVE SMOOTH",
"372 292 OFFCURVE",
"393 311 OFFCURVE",
"408 332 CURVE",
"409 332 LINE",
"409 237 OFFCURVE",
"393 168 OFFCURVE",
"360 125 CURVE SMOOTH",
"327 81 OFFCURVE",
"289 59 OFFCURVE",
"245 59 CURVE SMOOTH",
"214 59 OFFCURVE",
"190 63 OFFCURVE",
"173 70 CURVE SMOOTH",
"156 77 OFFCURVE",
"142 86 OFFCURVE",
"129 97 CURVE SMOOTH",
"115 109 OFFCURVE",
"103 110 OFFCURVE",
"94 100 CURVE SMOOTH",
"71 73 LINE SMOOTH",
"63 64 OFFCURVE",
"66 54 OFFCURVE",
"80 41 CURVE SMOOTH",
"98 25 OFFCURVE",
"119 11 OFFCURVE",
"143 1 CURVE SMOOTH",
"167 -9 OFFCURVE",
"200 -15 OFFCURVE",
"241 -15 CURVE SMOOTH",
"312 -15 OFFCURVE",
"373 13 OFFCURVE",
"422 68 CURVE SMOOTH",
"472 124 OFFCURVE",
"497 224 OFFCURVE",
"497 367 CURVE SMOOTH",
"497 473 OFFCURVE",
"478 556 OFFCURVE",
"439 617 CURVE SMOOTH",
"401 678 OFFCURVE",
"344 709 OFFCURVE",
"267 709 CURVE SMOOTH",
"193 709 OFFCURVE",
"138 687 OFFCURVE",
"100 643 CURVE SMOOTH",
"63 598 OFFCURVE",
"44 541 OFFCURVE",
"44 470 CURVE SMOOTH"
);
},
{
closed = 1;
nodes = (
"140 520 OFFCURVE",
"150 559 OFFCURVE",
"172 590 CURVE SMOOTH",
"194 621 OFFCURVE",
"226 636 OFFCURVE",
"266 636 CURVE SMOOTH",
"306 636 OFFCURVE",
"336 619 OFFCURVE",
"358 586 CURVE",
"381 553 OFFCURVE",
"392 517 OFFCURVE",
"392 476 CURVE SMOOTH",
"392 432 OFFCURVE",
"380 396 OFFCURVE",
"356 370 CURVE SMOOTH",
"332 343 OFFCURVE",
"299 330 OFFCURVE",
"256 330 CURVE SMOOTH",
"223 330 OFFCURVE",
"195 342 OFFCURVE",
"173 366 CURVE SMOOTH",
"151 390 OFFCURVE",
"140 425 OFFCURVE",
"140 473 CURVE SMOOTH"
);
}
);
width = 542;
},
{
layerId = "A47C7914-817C-44A4-AF12-15F849B12484";
paths = (
{
closed = 1;
nodes = (
"42 410 OFFCURVE",
"60 354 OFFCURVE",
"94 309 CURVE SMOOTH",
"129 265 OFFCURVE",
"181 242 OFFCURVE",
"249 242 CURVE SMOOTH",
"323 242 OFFCURVE",
"375 260 OFFCURVE",
"405 304 CURVE",
"407 304 LINE",
"407 228 OFFCURVE",
"393 173 OFFCURVE",
"364 141 CURVE SMOOTH",
"335 109 OFFCURVE",
"304 93 OFFCURVE",
"270 93 CURVE SMOOTH",
"229 93 OFFCURVE",
"188 106 OFFCURVE",
"168 122 CURVE SMOOTH",
"148 138 OFFCURVE",
"133 138 OFFCURVE",
"123 122 CURVE SMOOTH",
"90 73 LINE SMOOTH",
"82 60 OFFCURVE",
"85 46 OFFCURVE",
"101 32 CURVE SMOOTH",
"117 18 OFFCURVE",
"141 6 OFFCURVE",
"172 -3 CURVE SMOOTH",
"203 -12 OFFCURVE",
"234 -17 OFFCURVE",
"265 -17 CURVE SMOOTH",
"345 -17 OFFCURVE",
"412 11 OFFCURVE",
"464 65 CURVE SMOOTH",
"517 119 OFFCURVE",
"543 220 OFFCURVE",
"543 367 CURVE SMOOTH",
"543 477 OFFCURVE",
"523 562 OFFCURVE",
"483 621 CURVE",
"443 681 OFFCURVE",
"379 711 OFFCURVE",
"290 711 CURVE SMOOTH",
"206 711 OFFCURVE",
"144 689 OFFCURVE",
"103 647 CURVE SMOOTH",
"63 604 OFFCURVE",
"42 547 OFFCURVE",
"42 476 CURVE SMOOTH"
);
},
{
closed = 1;
nodes = (
"188 523 OFFCURVE",
"197 557 OFFCURVE",
"213 575 CURVE SMOOTH",
"229 593 OFFCURVE",
"254 602 OFFCURVE",
"287 602 CURVE SMOOTH",
"350 602 OFFCURVE",
"383 558 OFFCURVE",
"383 478 CURVE SMOOTH",
"383 446 OFFCURVE",
"374 417 OFFCURVE",
"356 391 CURVE SMOOTH",
"338 365 OFFCURVE",
"313 352 OFFCURVE",
"281 352 CURVE SMOOTH",
"223 352 OFFCURVE",
"188 389 OFFCURVE",
"188 475 CURVE SMOOTH"
);
}
);
width = 586;
}
);
unicode = 0039;
},
{
glyphname = less;
lastChange = "2016-09-03 11:05:29 +0000";
layers = (
{
layerId = UUID0;
paths = (
{
closed = 1;
nodes = (
"528 66 LINE SMOOTH",
"541 59 OFFCURVE",
"550 60 OFFCURVE",
"556 70 CURVE SMOOTH",
"568 91 LINE SMOOTH",
"574 101 OFFCURVE",
"571 109 OFFCURVE",
"558 117 CURVE SMOOTH",
"138 358 LINE",
"138 359 LINE",
"558 601 LINE SMOOTH",
"571 608 OFFCURVE",
"574 617 OFFCURVE",
"568 627 CURVE SMOOTH",
"556 648 LINE SMOOTH",
"550 658 OFFCURVE",
"541 659 OFFCURVE",
"528 652 CURVE SMOOTH",
"63 383 LINE",
"55 379 OFFCURVE",
"51 373 OFFCURVE",
"51 367 CURVE SMOOTH",
"51 351 LINE SMOOTH",
"51 345 OFFCURVE",
"55 339 OFFCURVE",
"63 334 CURVE"
);
}
);
width = 625;
},
{
layerId = "A47C7914-817C-44A4-AF12-15F849B12484";
paths = (
{
closed = 1;
nodes = (
"522 65 LINE SMOOTH",
"539 56 OFFCURVE",
"552 59 OFFCURVE",
"560 73 CURVE SMOOTH",
"578 107 LINE SMOOTH",
"585 122 OFFCURVE",
"581 133 OFFCURVE",
"563 143 CURVE SMOOTH",
"156 358 LINE",
"156 359 LINE",
"563 575 LINE SMOOTH",
"581 584 OFFCURVE",
"585 596 OFFCURVE",
"578 610 CURVE SMOOTH",
"560 645 LINE SMOOTH",
"552 659 OFFCURVE",
"539 662 OFFCURVE",
"522 653 CURVE SMOOTH",
"63 408 LINE SMOOTH",
"49 401 OFFCURVE",
"43 393 OFFCURVE",
"43 381 CURVE SMOOTH",
"43 336 LINE SMOOTH",
"43 325 OFFCURVE",
"49 316 OFFCURVE",
"63 310 CURVE SMOOTH"
);
}
);
width = 625;
}
);
unicode = 003C;
},
{
glyphname = greater;
lastChange = "2016-09-03 11:05:29 +0000";
layers = (
{
layerId = UUID0;
paths = (
{
closed = 1;
nodes = (
"78 70 LINE SMOOTH",
"83 60 OFFCURVE",
"93 59 OFFCURVE",
"105 66 CURVE SMOOTH",
"570 334 LINE",
"579 339 OFFCURVE",
"583 345 OFFCURVE",
"583 351 CURVE SMOOTH",
"583 367 LINE SMOOTH",
"583 373 OFFCURVE",
"579 379 OFFCURVE",
"570 383 CURVE",
"105 652 LINE SMOOTH",
"93 659 OFFCURVE",
"83 658 OFFCURVE",
"78 648 CURVE SMOOTH",
"65 627 LINE SMOOTH",
"60 617 OFFCURVE",
"63 608 OFFCURVE",
"76 601 CURVE SMOOTH",
"496 359 LINE",
"496 358 LINE",
"76 117 LINE SMOOTH",
"63 109 OFFCURVE",
"60 101 OFFCURVE",
"65 91 CURVE SMOOTH"
);
}
);
width = 625;
},
{
layerId = "A47C7914-817C-44A4-AF12-15F849B12484";
paths = (
{
closed = 1;
nodes = (
"77 73 LINE SMOOTH",
"84 59 OFFCURVE",
"97 56 OFFCURVE",
"114 65 CURVE SMOOTH",
"574 310 LINE SMOOTH",
"587 316 OFFCURVE",
"593 325 OFFCURVE",
"593 336 CURVE SMOOTH",
"593 381 LINE SMOOTH",
"593 393 OFFCURVE",
"587 401 OFFCURVE",
"574 408 CURVE SMOOTH",
"114 653 LINE SMOOTH",
"97 662 OFFCURVE",
"84 659 OFFCURVE",
"77 645 CURVE SMOOTH",
"59 610 LINE SMOOTH",
"51 596 OFFCURVE",
"56 584 OFFCURVE",
"73 575 CURVE SMOOTH",
"480 359 LINE",
"480 358 LINE",
"73 143 LINE SMOOTH",
"56 133 OFFCURVE",
"51 122 OFFCURVE",
"59 107 CURVE SMOOTH"
);
}
);
width = 625;
}
);
unicode = 003E;
},
{
glyphname = question;
lastChange = "2016-09-03 11:05:29 +0000";
layers = (
{
layerId = UUID0;
paths = (
{
closed = 1;
nodes = (
"104 552 LINE",
"118 545 OFFCURVE",
"128 551 OFFCURVE",
"136 569 CURVE SMOOTH",
"145 591 OFFCURVE",
"159 609 OFFCURVE",
"177 622 CURVE SMOOTH",
"195 635 OFFCURVE",
"222 642 OFFCURVE",
"258 642 CURVE SMOOTH",
"291 642 OFFCURVE",
"316 634 OFFCURVE",
"334 618 CURVE SMOOTH",
"353 602 OFFCURVE",
"362 574 OFFCURVE",
"362 534 CURVE SMOOTH",
"362 497 OFFCURVE",
"337 448 OFFCURVE",
"286 390 CURVE SMOOTH",
"235 332 OFFCURVE",
"209 276 OFFCURVE",
"209 221 CURVE SMOOTH",
"209 203 LINE SMOOTH",
"209 188 OFFCURVE",
"217 181 OFFCURVE",
"231 181 CURVE SMOOTH",
"273 181 LINE SMOOTH",
"288 181 OFFCURVE",
"295 188 OFFCURVE",
"295 203 CURVE SMOOTH",
"295 214 LINE SMOOTH",
"295 259 OFFCURVE",
"322 311 OFFCURVE",
"376 371 CURVE SMOOTH",
"431 431 OFFCURVE",
"458 485 OFFCURVE",
"458 531 CURVE SMOOTH",
"458 587 OFFCURVE",
"441 631 OFFCURVE",
"409 665 CURVE SMOOTH",
"376 698 OFFCURVE",
"324 715 OFFCURVE",
"254 715 CURVE SMOOTH",
"197 715 OFFCURVE",
"154 703 OFFCURVE",
"124 679 CURVE SMOOTH",
"94 655 OFFCURVE",
"75 632 OFFCURVE",
"66 610 CURVE SMOOTH",
"57 587 OFFCURVE",
"58 573 OFFCURVE",
"68 568 CURVE SMOOTH"
);
},
{
closed = 1;
nodes = (
"279 0 LINE",
"294 0 OFFCURVE",
"301 7 OFFCURVE",
"301 22 CURVE SMOOTH",
"301 82 LINE SMOOTH",
"301 96 OFFCURVE",
"294 104 OFFCURVE",
"279 104 CURVE SMOOTH",
"225 104 LINE SMOOTH",
"210 104 OFFCURVE",
"203 96 OFFCURVE",
"203 82 CURVE SMOOTH",
"203 22 LINE SMOOTH",
"203 7 OFFCURVE",
"210 0 OFFCURVE",
"225 0 CURVE SMOOTH"
);
}
);
width = 496;
},
{
layerId = "A47C7914-817C-44A4-AF12-15F849B12484";
paths = (
{
closed = 1;
nodes = (
"126 533 LINE",
"144 521 OFFCURVE",
"159 524 OFFCURVE",
"169 542 CURVE SMOOTH",
"181 560 OFFCURVE",
"195 576 OFFCURVE",
"212 588 CURVE SMOOTH",
"229 601 OFFCURVE",
"252 607 OFFCURVE",
"280 607 CURVE SMOOTH",
"343 607 OFFCURVE",
"364 577 OFFCURVE",
"364 524 CURVE SMOOTH",
"364 499 OFFCURVE",
"338 460 OFFCURVE",
"288 407 CURVE SMOOTH",
"237 354 OFFCURVE",
"212 301 OFFCURVE",
"212 248 CURVE SMOOTH",
"212 233 LINE SMOOTH",
"212 212 OFFCURVE",
"223 202 OFFCURVE",
"244 202 CURVE SMOOTH",
"317 202 LINE SMOOTH",
"338 202 OFFCURVE",
"349 212 OFFCURVE",
"349 233 CURVE SMOOTH",
"349 241 LINE SMOOTH",
"349 276 OFFCURVE",
"375 319 OFFCURVE",
"429 373 CURVE SMOOTH",
"483 426 OFFCURVE",
"510 476 OFFCURVE",
"510 521 CURVE SMOOTH",
"510 582 OFFCURVE",
"492 630 OFFCURVE",
"455 665 CURVE SMOOTH",
"418 699 OFFCURVE",
"362 717 OFFCURVE",
"285 717 CURVE SMOOTH",
"228 717 OFFCURVE",
"181 706 OFFCURVE",
"144 684 CURVE SMOOTH",
"107 662 OFFCURVE",
"82 639 OFFCURVE",
"68 615 CURVE SMOOTH",
"56 593 OFFCURVE",
"58 576 OFFCURVE",
"75 565 CURVE SMOOTH"
);
},
{
closed = 1;
nodes = (
"317 0 LINE",
"340 0 OFFCURVE",
"352 12 OFFCURVE",
"352 37 CURVE SMOOTH",
"352 102 LINE SMOOTH",
"352 126 OFFCURVE",
"340 139 OFFCURVE",
"317 139 CURVE SMOOTH",
"243 139 LINE SMOOTH",
"220 139 OFFCURVE",
"209 126 OFFCURVE",
"209 102 CURVE SMOOTH",
"209 37 LINE SMOOTH",
"209 12 OFFCURVE",
"220 0 OFFCURVE",
"243 0 CURVE SMOOTH"
);
}
);
width = 540;
}
);
unicode = 003F;
},
{
glyphname = at;
lastChange = "2016-09-03 11:05:29 +0000";
layers = (
{
layerId = UUID0;
paths = (
{
closed = 1;
nodes = (
"59 137 OFFCURVE",
"102 32 OFFCURVE",
"188 -46 CURVE SMOOTH",
"275 -124 OFFCURVE",
"377 -162 OFFCURVE",
"494 -162 CURVE SMOOTH",
"554 -162 OFFCURVE",
"610 -152 OFFCURVE",
"662 -132 CURVE SMOOTH",
"714 -112 OFFCURVE",
"766 -83 OFFCURVE",
"819 -45 CURVE SMOOTH",
"828 -40 OFFCURVE",
"830 -33 OFFCURVE",
"824 -25 CURVE SMOOTH",
"805 1 LINE SMOOTH",
"800 9 OFFCURVE",
"793 9 OFFCURVE",
"784 1 CURVE SMOOTH",
"699 -67 OFFCURVE",
"596 -104 OFFCURVE",
"498 -104 CURVE SMOOTH",
"394 -104 OFFCURVE",
"304 -70 OFFCURVE",
"229 -2 CURVE SMOOTH",
"155 66 OFFCURVE",
"118 154 OFFCURVE",
"118 262 CURVE SMOOTH",
"118 385 OFFCURVE",
"157 483 OFFCURVE",
"235 554 CURVE SMOOTH",
"313 625 OFFCURVE",
"407 661 OFFCURVE",
"519 661 CURVE SMOOTH",
"616 661 OFFCURVE",
"697 633 OFFCURVE",
"760 579 CURVE SMOOTH",
"823 525 OFFCURVE",
"854 449 OFFCURVE",
"854 350 CURVE SMOOTH",
"854 264 OFFCURVE",
"837 204 OFFCURVE",
"802 167 CURVE SMOOTH",
"768 131 OFFCURVE",
"727 113 OFFCURVE",
"679 113 CURVE SMOOTH",
"665 113 OFFCURVE",
"653 117 OFFCURVE",
"645 125 CURVE SMOOTH",
"636 133 OFFCURVE",
"635 154 OFFCURVE",
"643 186 CURVE SMOOTH",
"707 474 LINE SMOOTH",
"709 485 OFFCURVE",
"705 491 OFFCURVE",
"693 491 CURVE SMOOTH",
"640 491 LINE SMOOTH",
"628 491 OFFCURVE",
"622 486 OFFCURVE",
"619 475 CURVE SMOOTH",
"608 423 LINE",
"606 423 LINE",
"592 480 OFFCURVE",
"553 509 OFFCURVE",
"491 509 CURVE SMOOTH",
"427 509 OFFCURVE",
"374 479 OFFCURVE",
"331 418 CURVE SMOOTH",
"288 358 OFFCURVE",
"267 295 OFFCURVE",
"267 228 CURVE SMOOTH",
"267 175 OFFCURVE",
"280 132 OFFCURVE",
"306 101 CURVE SMOOTH",
"333 70 OFFCURVE",
"368 54 OFFCURVE",
"412 54 CURVE SMOOTH",
"441 54 OFFCURVE",
"471 65 OFFCURVE",
"501 86 CURVE SMOOTH",
"531 108 OFFCURVE",
"552 133 OFFCURVE",
"564 162 CURVE",
"565 162 LINE",
"565 127 OFFCURVE",
"571 101 OFFCURVE",
"583 82 CURVE SMOOTH",
"595 63 OFFCURVE",
"622 54 OFFCURVE",
"664 54 CURVE SMOOTH",
"739 54 OFFCURVE",
"799 80 OFFCURVE",
"845 130 CURVE SMOOTH",
"891 181 OFFCURVE",
"914 254 OFFCURVE",
"914 350 CURVE SMOOTH",
"914 480 OFFCURVE",
"873 574 OFFCURVE",
"791 632 CURVE SMOOTH",
"708 690 OFFCURVE",
"617 719 OFFCURVE",
"518 719 CURVE SMOOTH",
"381 719 OFFCURVE",
"270 675 OFFCURVE",
"186 587 CURVE SMOOTH",
"101 499 OFFCURVE",
"59 393 OFFCURVE",
"59 269 CURVE SMOOTH"
);
},
{
closed = 1;
nodes = (
"350 280 OFFCURVE",
"365 334 OFFCURVE",
"394 381 CURVE SMOOTH",
"423 428 OFFCURVE",
"459 451 OFFCURVE",
"503 451 CURVE SMOOTH",
"529 451 OFFCURVE",
"549 441 OFFCURVE",
"562 420 CURVE SMOOTH",
"575 399 OFFCURVE",
"582 377 OFFCURVE",
"582 355 CURVE SMOOTH",
"582 329 OFFCURVE",
"580 305 OFFCURVE",
"575 284 CURVE SMOOTH",
"569 263 OFFCURVE",
"553 229 OFFCURVE",
"524 182 CURVE SMOOTH",
"496 136 OFFCURVE",
"465 113 OFFCURVE",
"432 113 CURVE SMOOTH",
"406 113 OFFCURVE",
"386 120 OFFCURVE",
"372 135 CURVE SMOOTH",
"357 150 OFFCURVE",
"350 178 OFFCURVE",
"350 218 CURVE SMOOTH"
);
}
);
width = 973;
},
{
layerId = "A47C7914-817C-44A4-AF12-15F849B12484";
paths = (
{
closed = 1;
nodes = (
"55 146 OFFCURVE",
"98 39 OFFCURVE",
"185 -46 CURVE SMOOTH",
"272 -132 OFFCURVE",
"381 -175 OFFCURVE",
"513 -175 CURVE SMOOTH",
"558 -175 OFFCURVE",
"608 -169 OFFCURVE",
"666 -159 CURVE SMOOTH",
"723 -149 OFFCURVE",
"775 -129 OFFCURVE",
"824 -101 CURVE SMOOTH",
"838 -92 OFFCURVE",
"840 -82 OFFCURVE",
"832 -68 CURVE SMOOTH",
"801 -23 LINE",
"797 -16 OFFCURVE",
"787 -16 OFFCURVE",
"772 -24 CURVE SMOOTH",
"726 -50 OFFCURVE",
"684 -67 OFFCURVE",
"646 -75 CURVE SMOOTH",
"610 -82 OFFCURVE",
"567 -86 OFFCURVE",
"518 -86 CURVE SMOOTH",
"409 -86 OFFCURVE",
"320 -52 OFFCURVE",
"250 17 CURVE SMOOTH",
"181 85 OFFCURVE",
"146 172 OFFCURVE",
"146 278 CURVE SMOOTH",
"146 383 OFFCURVE",
"182 470 OFFCURVE",
"251 540 CURVE SMOOTH",
"322 609 OFFCURVE",
"411 644 OFFCURVE",
"519 644 CURVE SMOOTH",
"628 644 OFFCURVE",
"713 615 OFFCURVE",
"774 559 CURVE SMOOTH",
"835 503 OFFCURVE",
"866 424 OFFCURVE",
"866 323 CURVE SMOOTH",
"866 263 OFFCURVE",
"852 216 OFFCURVE",
"822 185 CURVE SMOOTH",
"793 153 OFFCURVE",
"755 137 OFFCURVE",
"708 137 CURVE SMOOTH",
"676 137 OFFCURVE",
"673 157 OFFCURVE",
"684 206 CURVE SMOOTH",
"743 466 LINE SMOOTH",
"747 483 OFFCURVE",
"740 491 OFFCURVE",
"724 491 CURVE SMOOTH",
"656 491 LINE SMOOTH",
"640 491 OFFCURVE",
"630 483 OFFCURVE",
"627 468 CURVE SMOOTH",
"620 438 LINE",
"618 438 LINE",
"602 485 OFFCURVE",
"570 509 OFFCURVE",
"525 509 CURVE SMOOTH",
"457 509 OFFCURVE",
"398 482 OFFCURVE",
"349 429 CURVE SMOOTH",
"300 375 OFFCURVE",
"275 312 OFFCURVE",
"275 238 CURVE SMOOTH",
"275 169 OFFCURVE",
"291 121 OFFCURVE",
"322 92 CURVE SMOOTH",
"353 63 OFFCURVE",
"388 49 OFFCURVE",
"426 49 CURVE SMOOTH",
"464 49 OFFCURVE",
"495 57 OFFCURVE",
"517 72 CURVE SMOOTH",
"539 87 OFFCURVE",
"560 107 OFFCURVE",
"580 132 CURVE",
"581 132 LINE",
"588 99 OFFCURVE",
"603 76 OFFCURVE",
"623 65 CURVE SMOOTH",
"643 54 OFFCURVE",
"669 49 OFFCURVE",
"703 49 CURVE SMOOTH",
"779 49 OFFCURVE",
"841 74 OFFCURVE",
"888 124 CURVE SMOOTH",
"935 173 OFFCURVE",
"958 246 OFFCURVE",
"958 342 CURVE SMOOTH",
"958 464 OFFCURVE",
"917 560 OFFCURVE",
"833 629 CURVE SMOOTH",
"750 698 OFFCURVE",
"646 732 OFFCURVE",
"519 732 CURVE SMOOTH",
"381 732 OFFCURVE",
"269 689 OFFCURVE",
"183 602 CURVE SMOOTH",
"98 514 OFFCURVE",
"55 406 OFFCURVE",
"55 275 CURVE SMOOTH"
);
},
{
closed = 1;
nodes = (
"394 282 OFFCURVE",
"408 335 OFFCURVE",
"438 370 CURVE SMOOTH",
"467 404 OFFCURVE",
"497 421 OFFCURVE",
"527 421 CURVE SMOOTH",
"544 421 OFFCURVE",
"559 414 OFFCURVE",
"571 398 CURVE SMOOTH",
"583 383 OFFCURVE",
"588 365 OFFCURVE",
"588 344 CURVE SMOOTH",
"588 326 OFFCURVE",
"587 306 OFFCURVE",
"584 284 CURVE SMOOTH",
"579 249 OFFCURVE",
"563 215 OFFCURVE",
"537 184 CURVE SMOOTH",
"510 152 OFFCURVE",
"481 137 OFFCURVE",
"451 137 CURVE SMOOTH",
"416 137 OFFCURVE",
"394 168 OFFCURVE",
"394 211 CURVE SMOOTH"
);
}
);
width = 1013;
}
);
unicode = 0040;
},
{
glyphname = A;
lastChange = "2016-09-03 11:05:29 +0000";
layers = (
{
anchors = (
{
name = mark0;
position = "{576, 0}";
},
{
name = mark1;
position = "{0, 0}";
},
{
name = mark2;
position = "{0, 0}";
},
{
name = mark3;
position = "{332, 0}";
},
{
name = mark4;
position = "{332, 715}";
}
);
layerId = UUID0;
paths = (
{
closed = 1;
nodes = (
"98 0 LINE",
"115 0 OFFCURVE",
"126 8 OFFCURVE",
"133 24 CURVE SMOOTH",
"194 186 LINE",
"495 186 LINE",
"556 24 LINE SMOOTH",
"562 8 OFFCURVE",
"574 0 OFFCURVE",
"591 0 CURVE SMOOTH",
"641 0 LINE SMOOTH",
"658 0 OFFCURVE",
"662 11 OFFCURVE",
"654 32 CURVE SMOOTH",
"411 670 LINE SMOOTH",
"403 690 OFFCURVE",
"393 700 OFFCURVE",
"378 700 CURVE SMOOTH",
"310 700 LINE SMOOTH",
"296 700 OFFCURVE",
"285 690 OFFCURVE",
"278 670 CURVE SMOOTH",
"35 32 LINE SMOOTH",
"26 11 OFFCURVE",
"31 0 OFFCURVE",
"48 0 CURVE SMOOTH"
);
},
{
closed = 1;
nodes = (
"299 461 LINE",
"306 479 OFFCURVE",
"313 500 OFFCURVE",
"319 521 CURVE SMOOTH",
"326 543 OFFCURVE",
"334 575 OFFCURVE",
"343 616 CURVE",
"345 616 LINE",
"354 575 OFFCURVE",
"362 543 OFFCURVE",
"369 521 CURVE SMOOTH",
"375 500 OFFCURVE",
"382 479 OFFCURVE",
"389 461 CURVE SMOOTH",
"464 266 LINE",
"225 266 LINE"
);
}
);
width = 664;
},
{
anchors = (
{
name = mark0;
position = "{572, 0}";
},
{
name = mark1;
position = "{340, 0}";
},
{
name = mark2;
position = "{340, 717}";
}
);
layerId = "A47C7914-817C-44A4-AF12-15F849B12484";
paths = (
{
closed = 1;
nodes = (
"134 0 LINE",
"155 0 OFFCURVE",
"170 11 OFFCURVE",
"179 34 CURVE SMOOTH",
"229 165 LINE",
"477 165 LINE",
"526 34 LINE SMOOTH",
"535 11 OFFCURVE",
"550 0 OFFCURVE",
"571 0 CURVE SMOOTH",
"649 0 LINE SMOOTH",
"672 0 OFFCURVE",
"680 11 OFFCURVE",
"672 32 CURVE SMOOTH",
"433 661 LINE SMOOTH",
"422 687 OFFCURVE",
"407 700 OFFCURVE",
"387 700 CURVE SMOOTH",
"318 700 LINE SMOOTH",
"298 700 OFFCURVE",
"283 687 OFFCURVE",
"272 661 CURVE SMOOTH",
"33 32 LINE SMOOTH",
"25 11 OFFCURVE",
"33 0 OFFCURVE",
"56 0 CURVE SMOOTH"
);
},
{
closed = 1;
nodes = (
"334 441 LINE",
"341 459 OFFCURVE",
"345 473 OFFCURVE",
"347 481 CURVE SMOOTH",
"348 489 OFFCURVE",
"350 502 OFFCURVE",
"352 518 CURVE",
"354 518 LINE",
"355 502 OFFCURVE",
"356 489 OFFCURVE",
"358 481 CURVE SMOOTH",
"359 473 OFFCURVE",
"364 459 OFFCURVE",
"371 441 CURVE SMOOTH",
"431 286 LINE",
"274 286 LINE"
);
}
);
width = 681;
}
);
unicode = 0041;
},
{
glyphname = B;
lastChange = "2016-09-03 11:05:29 +0000";
layers = (
{
anchors = (
{
name = mark0;
position = "{0, 0}";
},
{
name = mark1;
position = "{0, 0}";
},
{
name = mark2;
position = "{0, 0}";
},
{
name = mark3;
position = "{324, 0}";
},
{
name = mark4;
position = "{324, 715}";
}
);
layerId = UUID0;
paths = (
{
closed = 1;
nodes = (
"322 0 LINE",
"432 0 OFFCURVE",
"507 19 OFFCURVE",
"548 56 CURVE SMOOTH",
"589 93 OFFCURVE",
"609 139 OFFCURVE",
"609 194 CURVE SMOOTH",
"609 246 OFFCURVE",
"589 286 OFFCURVE",
"548 315 CURVE SMOOTH",
"508 345 OFFCURVE",
"471 362 OFFCURVE",
"438 365 CURVE",
"438 366 LINE",
"468 371 OFFCURVE",
"500 387 OFFCURVE",
"531 415 CURVE SMOOTH",
"563 443 OFFCURVE",
"579 477 OFFCURVE",
"579 517 CURVE SMOOTH",
"579 567 OFFCURVE",
"560 611 OFFCURVE",
"521 646 CURVE SMOOTH",
"483 682 OFFCURVE",
"409 700 OFFCURVE",
"298 700 CURVE SMOOTH",
"107 700 LINE SMOOTH",
"91 700 OFFCURVE",
"83 691 OFFCURVE",
"83 673 CURVE SMOOTH",
"83 27 LINE SMOOTH",
"83 9 OFFCURVE",
"91 0 OFFCURVE",
"107 0 CURVE SMOOTH"
);
},
{
closed = 1;
nodes = (
"177 324 LINE",
"307 324 LINE SMOOTH",
"445 324 OFFCURVE",
"509 278 OFFCURVE",
"509 197 CURVE SMOOTH",
"509 154 OFFCURVE",
"493 123 OFFCURVE",
"460 106 CURVE SMOOTH",
"428 89 OFFCURVE",
"376 80 OFFCURVE",
"307 80 CURVE SMOOTH",
"177 80 LINE"
);
},
{
closed = 1;
nodes = (
"177 620 LINE",
"299 620 LINE SMOOTH",
"371 620 OFFCURVE",
"419 611 OFFCURVE",
"445 594 CURVE SMOOTH",
"471 576 OFFCURVE",
"484 551 OFFCURVE",
"484 517 CURVE SMOOTH",
"484 482 OFFCURVE",
"467 453 OFFCURVE",
"432 429 CURVE SMOOTH",
"398 406 OFFCURVE",
"354 395 OFFCURVE",
"299 395 CURVE SMOOTH",
"177 395 LINE"
);
}
);
width = 663;
},
{
anchors = (
{
name = mark0;
position = "{0, 0}";
},
{
name = mark1;
position = "{328, 0}";
},
{
name = mark2;
position = "{328, 717}";
}
);
layerId = "A47C7914-817C-44A4-AF12-15F849B12484";
paths = (
{
closed = 1;
nodes = (
"308 0 LINE",
"420 0 OFFCURVE",
"500 19 OFFCURVE",
"549 56 CURVE SMOOTH",
"598 93 OFFCURVE",
"623 141 OFFCURVE",
"623 201 CURVE SMOOTH",
"623 252 OFFCURVE",
"603 292 OFFCURVE",
"563 320 CURVE SMOOTH",
"522 348 OFFCURVE",
"488 363 OFFCURVE",
"458 365 CURVE",
"458 366 LINE",
"489 370 OFFCURVE",
"520 384 OFFCURVE",
"553 409 CURVE SMOOTH",
"585 433 OFFCURVE",
"602 468 OFFCURVE",
"602 512 CURVE SMOOTH",
"602 576 OFFCURVE",
"580 623 OFFCURVE",
"536 654 CURVE SMOOTH",
"493 685 OFFCURVE",
"408 700 OFFCURVE",
"283 700 CURVE SMOOTH",
"117 700 LINE SMOOTH",
"91 700 OFFCURVE",
"78 688 OFFCURVE",
"78 664 CURVE SMOOTH",
"78 37 LINE SMOOTH",
"78 12 OFFCURVE",
"91 0 OFFCURVE",
"117 0 CURVE SMOOTH"
);
},
{
closed = 1;
nodes = (
"221 302 LINE",
"292 302 LINE SMOOTH",
"353 302 OFFCURVE",
"398 295 OFFCURVE",
"427 282 CURVE SMOOTH",
"456 269 OFFCURVE",
"470 245 OFFCURVE",
"470 210 CURVE SMOOTH",
"470 174 OFFCURVE",
"458 149 OFFCURVE",
"433 137 CURVE SMOOTH",
"408 125 OFFCURVE",
"361 119 OFFCURVE",
"292 119 CURVE SMOOTH",
"221 119 LINE"
);
},
{
closed = 1;
nodes = (
"221 581 LINE",
"285 581 LINE SMOOTH",
"359 581 OFFCURVE",
"407 575 OFFCURVE",
"427 562 CURVE",
"447 550 OFFCURVE",
"458 531 OFFCURVE",
"458 507 CURVE SMOOTH",
"458 477 OFFCURVE",
"439 454 OFFCURVE",
"402 439 CURVE SMOOTH",
"366 424 OFFCURVE",
"327 417 OFFCURVE",
"285 417 CURVE SMOOTH",
"221 417 LINE"
);
}
);
width = 673;
}
);
unicode = 0042;
},
{
glyphname = C;
lastChange = "2016-09-03 11:05:29 +0000";
layers = (
{
anchors = (
{
name = mark0;
position = "{0, 0}";
},
{
name = mark1;
position = "{0, 0}";
},
{
name = mark2;
position = "{0, 0}";
},
{
name = mark3;
position = "{373, 0}";
},
{
name = mark4;
position = "{373, 715}";
}
);
layerId = UUID0;
paths = (
{
closed = 1;
nodes = (
"45 236 OFFCURVE",
"73 147 OFFCURVE",
"129 82 CURVE",
"186 18 OFFCURVE",
"267 -15 OFFCURVE",
"373 -15 CURVE SMOOTH",
"439 -15 OFFCURVE",
"493 -2 OFFCURVE",
"537 22 CURVE SMOOTH",
"580 47 OFFCURVE",
"611 79 OFFCURVE",
"630 116 CURVE SMOOTH",
"640 135 OFFCURVE",
"639 148 OFFCURVE",
"627 155 CURVE SMOOTH",
"587 178 LINE SMOOTH",
"574 186 OFFCURVE",
"562 180 OFFCURVE",
"552 161 CURVE SMOOTH",
"539 138 OFFCURVE",
"519 115 OFFCURVE",
"490 94 CURVE SMOOTH",
"462 72 OFFCURVE",
"425 62 OFFCURVE",
"378 62 CURVE SMOOTH",
"296 62 OFFCURVE",
"237 87 OFFCURVE",
"200 137 CURVE",
"164 188 OFFCURVE",
"145 259 OFFCURVE",
"145 350 CURVE SMOOTH",
"145 441 OFFCURVE",
"164 512 OFFCURVE",
"200 563 CURVE SMOOTH",
"237 613 OFFCURVE",
"296 639 OFFCURVE",
"378 639 CURVE SMOOTH",
"423 639 OFFCURVE",
"458 630 OFFCURVE",
"483 612 CURVE SMOOTH",
"507 594 OFFCURVE",
"525 575 OFFCURVE",
"536 554 CURVE SMOOTH",
"546 534 OFFCURVE",
"557 528 OFFCURVE",
"570 536 CURVE SMOOTH",
"609 558 LINE SMOOTH",
"621 565 OFFCURVE",
"623 578 OFFCURVE",
"613 597 CURVE SMOOTH",
"578 670 OFFCURVE",
"497 715 OFFCURVE",
"373 715 CURVE SMOOTH",
"267 715 OFFCURVE",
"186 683 OFFCURVE",
"129 618 CURVE SMOOTH",
"73 553 OFFCURVE",
"45 464 OFFCURVE",
"45 350 CURVE SMOOTH"
);
}
);
width = 685;
},
{
anchors = (
{
name = mark0;
position = "{0, 0}";
},
{
name = mark1;
position = "{374, 0}";
},
{
name = mark2;
position = "{374, 717}";
}
);
layerId = "A47C7914-817C-44A4-AF12-15F849B12484";
paths = (
{
closed = 1;
nodes = (
"42 238 OFFCURVE",
"71 148 OFFCURVE",
"128 83 CURVE SMOOTH",
"187 17 OFFCURVE",
"268 -17 OFFCURVE",
"374 -17 CURVE SMOOTH",
"440 -17 OFFCURVE",
"496 -5 OFFCURVE",
"542 18 CURVE SMOOTH",
"587 41 OFFCURVE",
"620 69 OFFCURVE",
"639 102 CURVE SMOOTH",
"651 124 OFFCURVE",
"650 140 OFFCURVE",
"634 150 CURVE SMOOTH",
"575 189 LINE SMOOTH",
"557 202 OFFCURVE",
"541 195 OFFCURVE",
"524 171 CURVE SMOOTH",
"515 156 OFFCURVE",
"497 140 OFFCURVE",
"472 124 CURVE SMOOTH",
"447 107 OFFCURVE",
"416 99 OFFCURVE",
"379 99 CURVE SMOOTH",
"311 99 OFFCURVE",
"263 120 OFFCURVE",
"235 163 CURVE SMOOTH",
"208 207 OFFCURVE",
"194 269 OFFCURVE",
"194 350 CURVE SMOOTH",
"194 432 OFFCURVE",
"208 494 OFFCURVE",
"235 537 CURVE SMOOTH",
"263 580 OFFCURVE",
"311 602 OFFCURVE",
"379 602 CURVE SMOOTH",
"410 602 OFFCURVE",
"437 596 OFFCURVE",
"459 583 CURVE SMOOTH",
"482 571 OFFCURVE",
"499 558 OFFCURVE",
"507 543 CURVE SMOOTH",
"520 520 OFFCURVE",
"537 513 OFFCURVE",
"558 524 CURVE SMOOTH",
"616 556 LINE SMOOTH",
"632 564 OFFCURVE",
"634 581 OFFCURVE",
"622 604 CURVE SMOOTH",
"587 677 OFFCURVE",
"498 717 OFFCURVE",
"374 717 CURVE SMOOTH",
"267 717 OFFCURVE",
"185 684 OFFCURVE",
"127 618 CURVE SMOOTH",
"70 552 OFFCURVE",
"42 462 OFFCURVE",
"42 350 CURVE SMOOTH"
);
}
);
width = 692;
}
);
unicode = 0043;
},
{
glyphname = D;
lastChange = "2016-09-03 11:05:29 +0000";
layers = (
{
anchors = (
{
name = mark0;
position = "{0, 0}";
},
{
name = mark1;
position = "{0, 0}";
},
{
name = mark2;
position = "{0, 0}";
},
{
name = mark3;
position = "{348, 0}";
},
{
name = mark4;
position = "{348, 715}";
}
);
layerId = UUID0;
paths = (
{
closed = 1;
nodes = (
"288 0 LINE",
"426 0 OFFCURVE",
"521 31 OFFCURVE",
"575 92 CURVE SMOOTH",
"629 154 OFFCURVE",
"656 240 OFFCURVE",
"656 351 CURVE SMOOTH",
"656 462 OFFCURVE",
"629 547 OFFCURVE",
"575 608 CURVE SMOOTH",
"521 669 OFFCURVE",
"426 700 OFFCURVE",
"288 700 CURVE SMOOTH",
"107 700 LINE SMOOTH",
"91 700 OFFCURVE",
"83 691 OFFCURVE",
"83 673 CURVE SMOOTH",
"83 27 LINE SMOOTH",
"83 9 OFFCURVE",
"91 0 OFFCURVE",
"107 0 CURVE SMOOTH"
);
},
{
closed = 1;
nodes = (
"177 621 LINE",
"283 621 LINE SMOOTH",
"391 621 OFFCURVE",
"463 599 OFFCURVE",
"500 553 CURVE SMOOTH",
"538 508 OFFCURVE",
"556 440 OFFCURVE",
"556 351 CURVE SMOOTH",
"556 262 OFFCURVE",
"538 194 OFFCURVE",
"500 148 CURVE SMOOTH",
"463 103 OFFCURVE",
"391 80 OFFCURVE",
"283 80 CURVE SMOOTH",
"177 80 LINE"
);
}
);
width = 701;
},
{
anchors = (
{
name = mark0;
position = "{0, 0}";
},
{
name = mark1;
position = "{350, 0}";
},
{
name = mark2;
position = "{350, 717}";
}
);
layerId = "A47C7914-817C-44A4-AF12-15F849B12484";
paths = (
{
closed = 1;
nodes = (
"283 0 LINE",
"433 0 OFFCURVE",
"534 31 OFFCURVE",
"586 92 CURVE SMOOTH",
"640 153 OFFCURVE",
"666 239 OFFCURVE",
"666 351 CURVE SMOOTH",
"666 463 OFFCURVE",
"640 549 OFFCURVE",
"586 609 CURVE SMOOTH",
"534 670 OFFCURVE",
"433 700 OFFCURVE",
"283 700 CURVE SMOOTH",
"112 700 LINE SMOOTH",
"89 700 OFFCURVE",
"78 688 OFFCURVE",
"78 664 CURVE SMOOTH",
"78 37 LINE SMOOTH",
"78 12 OFFCURVE",
"89 0 OFFCURVE",
"112 0 CURVE SMOOTH"
);
},
{
closed = 1;
nodes = (
"221 580 LINE",
"273 580 LINE SMOOTH",
"375 580 OFFCURVE",
"439 562 OFFCURVE",
"469 524 CURVE SMOOTH",
"499 487 OFFCURVE",
"514 429 OFFCURVE",
"514 351 CURVE SMOOTH",
"514 273 OFFCURVE",
"499 215 OFFCURVE",
"469 177 CURVE SMOOTH",
"439 140 OFFCURVE",
"375 121 OFFCURVE",
"273 121 CURVE SMOOTH",
"221 121 LINE"
);
}
);
width = 708;
}
);
unicode = 0044;
},
{
glyphname = E;
lastChange = "2016-09-03 11:05:29 +0000";
layers = (
{
anchors = (
{
name = mark0;
position = "{330, 0}";
},
{
name = mark1;
position = "{0, 0}";
},
{
name = mark2;
position = "{0, 0}";
},
{
name = mark3;
position = "{330, 0}";
},
{
name = mark4;
position = "{330, 715}";
}
);
layerId = UUID0;
paths = (
{
closed = 1;
nodes = (
"549 0 LINE SMOOTH",
"567 0 OFFCURVE",
"576 7 OFFCURVE",
"576 22 CURVE SMOOTH",
"576 58 LINE SMOOTH",
"576 73 OFFCURVE",
"567 80 OFFCURVE",
"549 80 CURVE SMOOTH",
"177 80 LINE",
"177 323 LINE",
"505 323 LINE SMOOTH",
"523 323 OFFCURVE",
"532 331 OFFCURVE",
"532 345 CURVE SMOOTH",
"532 381 LINE SMOOTH",
"532 396 OFFCURVE",
"523 403 OFFCURVE",
"505 403 CURVE SMOOTH",
"177 403 LINE",
"177 620 LINE",
"535 620 LINE SMOOTH",
"553 620 OFFCURVE",
"562 627 OFFCURVE",
"562 642 CURVE SMOOTH",
"562 678 LINE SMOOTH",
"562 693 OFFCURVE",
"553 700 OFFCURVE",
"535 700 CURVE SMOOTH",
"107 700 LINE SMOOTH",
"91 700 OFFCURVE",
"83 691 OFFCURVE",
"83 673 CURVE SMOOTH",
"83 27 LINE SMOOTH",
"83 9 OFFCURVE",
"91 0 OFFCURVE",
"107 0 CURVE SMOOTH"
);
}
);
width = 620;
},
{
anchors = (
{
name = mark0;
position = "{331, 0}";
},
{
name = mark1;
position = "{331, 0}";
},
{
name = mark2;
position = "{331, 717}";
}
);
layerId = "A47C7914-817C-44A4-AF12-15F849B12484";
paths = (
{
closed = 1;
nodes = (
"547 0 LINE SMOOTH",
"571 0 OFFCURVE",
"583 11 OFFCURVE",
"583 32 CURVE SMOOTH",
"583 89 LINE SMOOTH",
"583 110 OFFCURVE",
"571 121 OFFCURVE",
"547 121 CURVE SMOOTH",
"221 121 LINE",
"221 303 LINE",
"505 303 LINE SMOOTH",
"530 303 OFFCURVE",
"542 313 OFFCURVE",
"542 334 CURVE SMOOTH",
"542 392 LINE SMOOTH",
"542 413 OFFCURVE",
"530 424 OFFCURVE",
"505 424 CURVE SMOOTH",
"221 424 LINE",
"221 579 LINE",
"531 579 LINE SMOOTH",
"556 579 OFFCURVE",
"568 590 OFFCURVE",
"568 611 CURVE SMOOTH",
"568 668 LINE SMOOTH",
"568 689 OFFCURVE",
"556 700 OFFCURVE",
"531 700 CURVE SMOOTH",
"112 700 LINE SMOOTH",
"89 700 OFFCURVE",
"78 688 OFFCURVE",
"78 664 CURVE SMOOTH",
"78 37 LINE SMOOTH",
"78 12 OFFCURVE",
"89 0 OFFCURVE",
"112 0 CURVE SMOOTH"
);
}
);
width = 625;
}
);
unicode = 0045;
},
{
glyphname = F;
lastChange = "2016-09-03 11:05:29 +0000";
layers = (
{
anchors = (
{
name = mark0;
position = "{0, 0}";
},
{
name = mark1;
position = "{0, 0}";
},
{
name = mark2;
position = "{0, 0}";
},
{
name = mark3;
position = "{308, 0}";
},
{
name = mark4;
position = "{308, 715}";
}
);
layerId = UUID0;
paths = (
{
closed = 1;
nodes = (
"152 0 LINE SMOOTH",
"168 0 OFFCURVE",
"177 9 OFFCURVE",
"177 27 CURVE SMOOTH",
"177 309 LINE",
"463 309 LINE SMOOTH",
"481 309 OFFCURVE",
"490 316 OFFCURVE",
"490 331 CURVE SMOOTH",
"490 367 LINE SMOOTH",
"490 381 OFFCURVE",
"481 389 OFFCURVE",
"463 389 CURVE SMOOTH",
"177 389 LINE",
"177 620 LINE",
"505 620 LINE SMOOTH",
"523 620 OFFCURVE",
"532 627 OFFCURVE",
"532 642 CURVE SMOOTH",
"532 678 LINE SMOOTH",
"532 693 OFFCURVE",
"523 700 OFFCURVE",
"505 700 CURVE SMOOTH",
"107 700 LINE SMOOTH",
"91 700 OFFCURVE",
"83 691 OFFCURVE",
"83 673 CURVE SMOOTH",
"83 27 LINE SMOOTH",
"83 9 OFFCURVE",
"91 0 OFFCURVE",
"107 0 CURVE SMOOTH"
);
}
);
width = 569;
},
{
anchors = (
{
name = mark0;
position = "{0, 0}";
},
{
name = mark1;
position = "{307, 0}";
},
{
name = mark2;
position = "{307, 717}";
}
);
layerId = "A47C7914-817C-44A4-AF12-15F849B12484";
paths = (
{
closed = 1;
nodes = (
"187 0 LINE SMOOTH",
"209 0 OFFCURVE",
"221 12 OFFCURVE",
"221 37 CURVE SMOOTH",
"221 288 LINE",
"458 288 LINE SMOOTH",
"483 288 OFFCURVE",
"495 299 OFFCURVE",
"495 320 CURVE SMOOTH",
"495 377 LINE SMOOTH",
"495 398 OFFCURVE",
"483 409 OFFCURVE",
"458 409 CURVE SMOOTH",
"221 409 LINE",
"221 579 LINE",
"499 579 LINE SMOOTH",
"523 579 OFFCURVE",
"535 590 OFFCURVE",
"535 611 CURVE SMOOTH",
"535 668 LINE SMOOTH",
"535 689 OFFCURVE",
"523 700 OFFCURVE",
"499 700 CURVE SMOOTH",
"112 700 LINE SMOOTH",
"89 700 OFFCURVE",
"78 688 OFFCURVE",
"78 664 CURVE SMOOTH",
"78 37 LINE SMOOTH",
"78 12 OFFCURVE",
"89 0 OFFCURVE",
"112 0 CURVE SMOOTH"
);
}
);
width = 574;
}
);
unicode = 0046;
},
{
glyphname = G;
lastChange = "2016-09-03 11:05:29 +0000";
layers = (
{
anchors = (
{
name = mark0;
position = "{0, 0}";
},
{
name = mark1;
position = "{0, 0}";
},
{
name = mark2;
position = "{0, 0}";
},
{
name = mark3;
position = "{384, 0}";
},
{
name = mark4;
position = "{379, 715}";
}
);
layerId = UUID0;
paths = (
{
closed = 1;
nodes = (
"45 236 OFFCURVE",
"75 147 OFFCURVE",
"134 82 CURVE SMOOTH",
"193 18 OFFCURVE",
"276 -15 OFFCURVE",
"384 -15 CURVE SMOOTH",
"448 -15 OFFCURVE",
"500 -7 OFFCURVE",
"540 9 CURVE SMOOTH",
"580 25 OFFCURVE",
"620 48 OFFCURVE",
"659 77 CURVE",
"659 307 LINE SMOOTH",
"659 322 OFFCURVE",
"650 329 OFFCURVE",
"632 329 CURVE SMOOTH",
"420 329 LINE SMOOTH",
"402 329 OFFCURVE",
"394 322 OFFCURVE",
"394 307 CURVE SMOOTH",
"394 271 LINE SMOOTH",
"394 256 OFFCURVE",
"402 249 OFFCURVE",
"420 249 CURVE SMOOTH",
"565 249 LINE",
"565 120 LINE",
"540 83 OFFCURVE",
"473 62 OFFCURVE",
"389 62 CURVE SMOOTH",
"304 62 OFFCURVE",
"242 87 OFFCURVE",
"203 137 CURVE SMOOTH",
"165 188 OFFCURVE",
"145 259 OFFCURVE",
"145 350 CURVE SMOOTH",
"145 441 OFFCURVE",
"165 512 OFFCURVE",
"205 563 CURVE SMOOTH",
"244 613 OFFCURVE",
"304 639 OFFCURVE",
"384 639 CURVE SMOOTH",
"429 639 OFFCURVE",
"465 628 OFFCURVE",
"492 608 CURVE SMOOTH",
"519 588 OFFCURVE",
"537 571 OFFCURVE",
"547 556 CURVE SMOOTH",
"559 538 OFFCURVE",
"571 533 OFFCURVE",
"583 541 CURVE SMOOTH",
"620 566 LINE SMOOTH",
"631 575 OFFCURVE",
"631 588 OFFCURVE",
"620 606 CURVE SMOOTH",
"602 635 OFFCURVE",
"572 661 OFFCURVE",
"533 682 CURVE SMOOTH",
"493 704 OFFCURVE",
"442 715 OFFCURVE",
"379 715 CURVE SMOOTH",
"274 715 OFFCURVE",
"192 683 OFFCURVE",
"133 618 CURVE SMOOTH",
"74 553 OFFCURVE",
"45 464 OFFCURVE",
"45 350 CURVE SMOOTH"
);
}
);
width = 718;
},
{
anchors = (
{
name = mark0;
position = "{0, 0}";
},
{
name = mark1;
position = "{379, 0}";
},
{
name = mark2;
position = "{379, 717}";
}
);
layerId = "A47C7914-817C-44A4-AF12-15F849B12484";
paths = (
{
closed = 1;
nodes = (
"42 238 OFFCURVE",
"72 148 OFFCURVE",
"131 83 CURVE SMOOTH",
"190 17 OFFCURVE",
"273 -17 OFFCURVE",
"379 -17 CURVE SMOOTH",
"442 -17 OFFCURVE",
"496 -10 OFFCURVE",
"542 3 CURVE SMOOTH",
"589 17 OFFCURVE",
"635 40 OFFCURVE",
"681 74 CURVE",
"681 322 LINE SMOOTH",
"681 343 OFFCURVE",
"668 354 OFFCURVE",
"644 354 CURVE SMOOTH",
"432 354 LINE SMOOTH",
"408 354 OFFCURVE",
"396 343 OFFCURVE",
"396 322 CURVE SMOOTH",
"396 264 LINE SMOOTH",
"396 243 OFFCURVE",
"408 232 OFFCURVE",
"432 232 CURVE SMOOTH",
"538 232 LINE",
"538 145 LINE",
"495 110 OFFCURVE",
"450 99 OFFCURVE",
"384 99 CURVE SMOOTH",
"315 99 OFFCURVE",
"267 120 OFFCURVE",
"238 163 CURVE SMOOTH",
"209 207 OFFCURVE",
"194 269 OFFCURVE",
"194 350 CURVE SMOOTH",
"194 432 OFFCURVE",
"209 494 OFFCURVE",
"238 537 CURVE SMOOTH",
"267 580 OFFCURVE",
"315 602 OFFCURVE",
"384 602 CURVE SMOOTH",
"440 602 OFFCURVE",
"489 577 OFFCURVE",
"520 543 CURVE SMOOTH",
"538 523 OFFCURVE",
"556 519 OFFCURVE",
"572 529 CURVE SMOOTH",
"627 565 LINE SMOOTH",
"646 577 OFFCURVE",
"646 594 OFFCURVE",
"629 615 CURVE SMOOTH",
"601 649 OFFCURVE",
"568 675 OFFCURVE",
"531 692 CURVE SMOOTH",
"495 708 OFFCURVE",
"444 717 OFFCURVE",
"379 717 CURVE SMOOTH",
"271 717 OFFCURVE",
"188 684 OFFCURVE",
"130 618 CURVE SMOOTH",
"71 552 OFFCURVE",
"42 462 OFFCURVE",
"42 350 CURVE SMOOTH"
);
}
);
width = 735;
}
);
unicode = 0047;
},
{
glyphname = H;
lastChange = "2016-09-03 11:05:29 +0000";
layers = (
{
anchors = (
{
name = mark0;
position = "{0, 0}";
},
{
name = mark1;
position = "{0, 0}";
},
{
name = mark2;
position = "{0, 0}";
},
{
name = mark3;
position = "{347, 0}";
},
{
name = mark4;
position = "{347, 715}";
}
);
layerId = UUID0;
paths = (
{
closed = 1;
nodes = (
"152 0 LINE SMOOTH",
"168 0 OFFCURVE",
"177 9 OFFCURVE",
"177 27 CURVE SMOOTH",
"177 324 LINE",
"518 324 LINE",
"518 27 LINE SMOOTH",
"518 9 OFFCURVE",
"526 0 OFFCURVE",
"542 0 CURVE SMOOTH",
"587 0 LINE SMOOTH",
"603 0 OFFCURVE",
"611 9 OFFCURVE",
"611 27 CURVE SMOOTH",
"611 673 LINE SMOOTH",
"611 691 OFFCURVE",
"603 700 OFFCURVE",
"587 700 CURVE SMOOTH",
"542 700 LINE SMOOTH",
"526 700 OFFCURVE",
"518 691 OFFCURVE",
"518 673 CURVE SMOOTH",
"518 404 LINE",
"177 404 LINE",
"177 673 LINE SMOOTH",
"177 691 OFFCURVE",
"168 700 OFFCURVE",
"152 700 CURVE SMOOTH",
"107 700 LINE SMOOTH",
"91 700 OFFCURVE",
"83 691 OFFCURVE",
"83 673 CURVE SMOOTH",
"83 27 LINE SMOOTH",
"83 9 OFFCURVE",
"91 0 OFFCURVE",
"107 0 CURVE SMOOTH"
);
}
);
width = 694;
},
{
anchors = (
{
name = mark0;
position = "{0, 0}";
},
{
name = mark1;
position = "{352, 0}";
},
{
name = mark2;
position = "{352, 717}";
}
);
layerId = "A47C7914-817C-44A4-AF12-15F849B12484";
paths = (
{
closed = 1;
nodes = (
"187 0 LINE SMOOTH",
"209 0 OFFCURVE",
"221 12 OFFCURVE",
"221 37 CURVE SMOOTH",
"221 304 LINE",
"483 304 LINE",
"483 37 LINE SMOOTH",
"483 12 OFFCURVE",
"495 0 OFFCURVE",
"518 0 CURVE SMOOTH",
"592 0 LINE SMOOTH",
"615 0 OFFCURVE",
"626 12 OFFCURVE",
"626 37 CURVE SMOOTH",
"626 664 LINE SMOOTH",
"626 688 OFFCURVE",
"615 700 OFFCURVE",
"592 700 CURVE SMOOTH",
"518 700 LINE SMOOTH",
"495 700 OFFCURVE",
"483 688 OFFCURVE",
"483 664 CURVE SMOOTH",
"483 425 LINE",
"221 425 LINE",
"221 664 LINE SMOOTH",
"221 688 OFFCURVE",
"209 700 OFFCURVE",
"187 700 CURVE SMOOTH",
"112 700 LINE SMOOTH",
"89 700 OFFCURVE",
"78 688 OFFCURVE",
"78 664 CURVE SMOOTH",
"78 37 LINE SMOOTH",
"78 12 OFFCURVE",
"89 0 OFFCURVE",
"112 0 CURVE SMOOTH"
);
}
);
width = 704;
}
);
unicode = 0048;
},
{
glyphname = I;
lastChange = "2016-09-03 11:05:29 +0000";
layers = (
{
anchors = (
{
name = mark0;
position = "{130, 0}";
},
{
name = mark1;
position = "{0, 0}";
},
{
name = mark2;
position = "{0, 0}";
},
{
name = mark3;
position = "{130, 0}";
},
{
name = mark4;
position = "{130, 715}";
}
);
layerId = UUID0;
paths = (
{
closed = 1;
nodes = (
"152 0 LINE SMOOTH",
"168 0 OFFCURVE",
"177 9 OFFCURVE",
"177 27 CURVE SMOOTH",
"177 673 LINE SMOOTH",
"177 691 OFFCURVE",
"168 700 OFFCURVE",
"152 700 CURVE SMOOTH",
"107 700 LINE SMOOTH",
"91 700 OFFCURVE",
"83 691 OFFCURVE",
"83 673 CURVE SMOOTH",
"83 27 LINE SMOOTH",
"83 9 OFFCURVE",
"91 0 OFFCURVE",
"107 0 CURVE SMOOTH"
);
}
);
width = 260;
},
{
anchors = (
{
name = mark0;
position = "{149, 0}";
},
{
name = mark1;
position = "{149, 0}";
},
{
name = mark2;
position = "{149, 717}";
}
);
layerId = "A47C7914-817C-44A4-AF12-15F849B12484";
paths = (
{
closed = 1;
nodes = (
"187 0 LINE SMOOTH",
"209 0 OFFCURVE",
"221 12 OFFCURVE",
"221 37 CURVE SMOOTH",
"221 664 LINE SMOOTH",
"221 688 OFFCURVE",
"209 700 OFFCURVE",
"187 700 CURVE SMOOTH",
"112 700 LINE SMOOTH",
"89 700 OFFCURVE",
"78 688 OFFCURVE",
"78 664 CURVE SMOOTH",
"78 37 LINE SMOOTH",
"78 12 OFFCURVE",
"89 0 OFFCURVE",
"112 0 CURVE SMOOTH"
);
}
);
width = 299;
}
);
unicode = 0049;
},
{
glyphname = J;
lastChange = "2016-09-03 11:05:29 +0000";
layers = (
{
anchors = (
{
name = mark0;
position = "{0, 0}";
},
{
name = mark1;
position = "{0, 0}";
},
{
name = mark2;
position = "{0, 0}";
},
{
name = mark3;
position = "{168, 0}";
},
{
name = mark4;
position = "{272, 715}";
}
);
layerId = UUID0;
paths = (
{
closed = 1;
nodes = (
"77 -5 OFFCURVE",
"116 -15 OFFCURVE",
"156 -15 CURVE SMOOTH",
"230 -15 OFFCURVE",
"278 4 OFFCURVE",
"298 42 CURVE SMOOTH",
"318 80 OFFCURVE",
"328 131 OFFCURVE",
"328 196 CURVE SMOOTH",
"328 673 LINE SMOOTH",
"328 691 OFFCURVE",
"320 700 OFFCURVE",
"304 700 CURVE SMOOTH",
"259 700 LINE SMOOTH",
"243 700 OFFCURVE",
"234 691 OFFCURVE",
"234 673 CURVE SMOOTH",
"234 185 LINE SMOOTH",
"234 145 OFFCURVE",
"229 115 OFFCURVE",
"220 93 CURVE SMOOTH",
"211 72 OFFCURVE",
"190 62 OFFCURVE",
"159 62 CURVE SMOOTH",
"132 62 OFFCURVE",
"106 70 OFFCURVE",
"80 87 CURVE SMOOTH",
"63 99 OFFCURVE",
"51 96 OFFCURVE",
"44 81 CURVE SMOOTH",
"28 46 LINE SMOOTH",
"22 33 OFFCURVE",
"26 22 OFFCURVE",
"42 14 CURVE SMOOTH"
);
}
);
width = 402;
},
{
anchors = (
{
name = mark0;
position = "{0, 0}";
},
{
name = mark1;
position = "{201, 0}";
},
{
name = mark2;
position = "{313, 717}";
}
);
layerId = "A47C7914-817C-44A4-AF12-15F849B12484";
paths = (
{
closed = 1;
nodes = (
"74 -8 OFFCURVE",
"113 -17 OFFCURVE",
"163 -17 CURVE SMOOTH",
"234 -17 OFFCURVE",
"290 1 OFFCURVE",
"330 36 CURVE SMOOTH",
"371 72 OFFCURVE",
"391 149 OFFCURVE",
"391 269 CURVE SMOOTH",
"391 664 LINE SMOOTH",
"391 688 OFFCURVE",
"379 700 OFFCURVE",
"356 700 CURVE SMOOTH",
"282 700 LINE SMOOTH",
"259 700 OFFCURVE",
"248 688 OFFCURVE",
"248 664 CURVE SMOOTH",
"248 259 LINE SMOOTH",
"248 202 OFFCURVE",
"243 161 OFFCURVE",
"231 136 CURVE SMOOTH",
"221 111 OFFCURVE",
"197 99 OFFCURVE",
"162 99 CURVE SMOOTH",
"136 99 OFFCURVE",
"112 105 OFFCURVE",
"91 119 CURVE SMOOTH",
"66 134 OFFCURVE",
"51 132 OFFCURVE",
"45 113 CURVE SMOOTH",
"24 46 LINE SMOOTH",
"20 32 OFFCURVE",
"27 20 OFFCURVE",
"44 9 CURVE SMOOTH"
);
}
);
width = 462;
}
);
unicode = 004A;
},
{
glyphname = K;
lastChange = "2016-09-03 11:05:29 +0000";
layers = (
{
anchors = (
{
name = mark0;
position = "{0, 0}";
},
{
name = mark1;
position = "{0, 0}";
},
{
name = mark2;
position = "{0, 0}";
},
{
name = mark3;
position = "{355, 0}";
},
{
name = mark4;
position = "{355, 715}";
}
);
layerId = UUID0;
paths = (
{
closed = 1;
nodes = (
"152 0 LINE SMOOTH",
"168 0 OFFCURVE",
"177 9 OFFCURVE",
"177 27 CURVE SMOOTH",
"177 230 LINE",
"293 349 LINE",
"517 19 LINE SMOOTH",
"525 6 OFFCURVE",
"537 0 OFFCURVE",
"551 0 CURVE SMOOTH",
"610 0 LINE SMOOTH",
"630 0 OFFCURVE",
"633 11 OFFCURVE",
"619 32 CURVE",
"358 415 LINE",
"606 668 LINE SMOOTH",
"627 689 OFFCURVE",
"624 700 OFFCURVE",
"597 700 CURVE SMOOTH",
"538 700 LINE SMOOTH",
"528 700 OFFCURVE",
"516 694 OFFCURVE",
"504 681 CURVE SMOOTH",
"178 347 LINE",
"176 347 LINE",
"176 360 OFFCURVE",
"177 373 OFFCURVE",
"177 386 CURVE SMOOTH",
"177 673 LINE SMOOTH",
"177 691 OFFCURVE",
"168 700 OFFCURVE",
"152 700 CURVE SMOOTH",
"107 700 LINE SMOOTH",
"91 700 OFFCURVE",
"83 691 OFFCURVE",
"83 673 CURVE SMOOTH",
"83 27 LINE SMOOTH",
"83 9 OFFCURVE",
"91 0 OFFCURVE",
"107 0 CURVE SMOOTH"
);
}
);
width = 648;
},
{
anchors = (
{
name = mark0;
position = "{0, 0}";
},
{
name = mark1;
position = "{362, 0}";
},
{
name = mark2;
position = "{362, 717}";
}
);
layerId = "A47C7914-817C-44A4-AF12-15F849B12484";
paths = (
{
closed = 1;
nodes = (
"187 0 LINE SMOOTH",
"209 0 OFFCURVE",
"221 12 OFFCURVE",
"221 37 CURVE SMOOTH",
"221 218 LINE",
"303 311 LINE",
"482 29 LINE SMOOTH",
"495 10 OFFCURVE",
"509 0 OFFCURVE",
"526 0 CURVE SMOOTH",
"618 0 LINE SMOOTH",
"648 0 OFFCURVE",
"654 14 OFFCURVE",
"636 42 CURVE SMOOTH",
"398 415 LINE",
"621 658 LINE SMOOTH",
"646 686 OFFCURVE",
"640 700 OFFCURVE",
"602 700 CURVE SMOOTH",
"504 700 LINE SMOOTH",
"492 700 OFFCURVE",
"477 690 OFFCURVE",
"459 671 CURVE SMOOTH",
"222 411 LINE",
"218 411 LINE",
"220 430 OFFCURVE",
"221 450 OFFCURVE",
"221 469 CURVE SMOOTH",
"221 664 LINE SMOOTH",
"221 688 OFFCURVE",
"209 700 OFFCURVE",
"187 700 CURVE SMOOTH",
"112 700 LINE SMOOTH",
"89 700 OFFCURVE",
"78 688 OFFCURVE",
"78 664 CURVE SMOOTH",
"78 37 LINE SMOOTH",
"78 12 OFFCURVE",
"89 0 OFFCURVE",
"112 0 CURVE SMOOTH"
);
}
);
width = 665;
}
);
unicode = 004B;
},
{
glyphname = L;
lastChange = "2016-09-03 11:05:29 +0000";
layers = (
{
anchors = (
{
name = mark0;
position = "{0, 0}";
},
{
name = mark1;
position = "{0, 0}";
},
{
name = mark2;
position = "{0, 0}";
},
{
name = mark3;
position = "{305, 0}";
},
{
name = mark4;
position = "{305, 715}";
}
);
layerId = UUID0;
paths = (
{
closed = 1;
nodes = (
"500 0 LINE SMOOTH",
"519 0 OFFCURVE",
"527 7 OFFCURVE",
"527 22 CURVE SMOOTH",
"527 58 LINE SMOOTH",
"527 73 OFFCURVE",
"519 80 OFFCURVE",
"500 80 CURVE SMOOTH",
"177 80 LINE",
"177 673 LINE SMOOTH",
"177 691 OFFCURVE",
"168 700 OFFCURVE",
"152 700 CURVE SMOOTH",
"107 700 LINE SMOOTH",
"91 700 OFFCURVE",
"83 691 OFFCURVE",
"83 673 CURVE SMOOTH",
"83 27 LINE SMOOTH",
"83 9 OFFCURVE",
"91 0 OFFCURVE",
"107 0 CURVE SMOOTH"
);
}
);
width = 555;
},
{
anchors = (
{
name = mark0;
position = "{0, 0}";
},
{
name = mark1;
position = "{310, 0}";
},
{
name = mark2;
position = "{310, 717}";
}
);
layerId = "A47C7914-817C-44A4-AF12-15F849B12484";
paths = (
{
closed = 1;
nodes = (
"505 0 LINE SMOOTH",
"530 0 OFFCURVE",
"542 11 OFFCURVE",
"542 32 CURVE SMOOTH",
"542 89 LINE SMOOTH",
"542 110 OFFCURVE",
"530 121 OFFCURVE",
"505 121 CURVE SMOOTH",
"221 121 LINE",
"221 664 LINE SMOOTH",
"221 688 OFFCURVE",
"211 700 OFFCURVE",
"191 700 CURVE SMOOTH",
"112 700 LINE SMOOTH",
"89 700 OFFCURVE",
"78 688 OFFCURVE",
"78 664 CURVE SMOOTH",
"78 37 LINE SMOOTH",
"78 12 OFFCURVE",
"89 0 OFFCURVE",
"112 0 CURVE SMOOTH"
);
}
);
width = 567;
}
);
unicode = 004C;
},
{
glyphname = M;
lastChange = "2016-09-03 11:05:29 +0000";
layers = (
{
anchors = (
{
name = mark0;
position = "{0, 0}";
},
{
name = mark1;
position = "{0, 0}";
},
{
name = mark2;
position = "{0, 0}";
},
{
name = mark3;
position = "{417, 0}";
},
{
name = mark4;
position = "{417, 715}";
}
);
layerId = UUID0;
paths = (
{
closed = 1;
nodes = (
"152 0 LINE SMOOTH",
"168 0 OFFCURVE",
"177 9 OFFCURVE",
"177 27 CURVE SMOOTH",
"177 539 LINE SMOOTH",
"177 552 OFFCURVE",
"176 565 OFFCURVE",
"176 578 CURVE",
"178 578 LINE",
"358 30 LINE SMOOTH",
"364 10 OFFCURVE",
"375 0 OFFCURVE",
"390 0 CURVE SMOOTH",
"444 0 LINE SMOOTH",
"459 0 OFFCURVE",
"470 10 OFFCURVE",
"476 30 CURVE SMOOTH",
"656 578 LINE",
"658 578 LINE",
"658 565 OFFCURVE",
"657 552 OFFCURVE",
"657 539 CURVE SMOOTH",
"657 27 LINE SMOOTH",
"657 9 OFFCURVE",
"666 0 OFFCURVE",
"682 0 CURVE SMOOTH",
"727 0 LINE SMOOTH",
"743 0 OFFCURVE",
"751 9 OFFCURVE",
"751 27 CURVE SMOOTH",
"751 673 LINE SMOOTH",
"751 691 OFFCURVE",
"743 700 OFFCURVE",
"727 700 CURVE SMOOTH",
"623 700 LINE SMOOTH",
"610 700 OFFCURVE",
"601 690 OFFCURVE",
"595 671 CURVE SMOOTH",
"455 233 LINE SMOOTH",
"441 188 OFFCURVE",
"432 161 OFFCURVE",
"430 151 CURVE SMOOTH",
"427 142 OFFCURVE",
"423 125 OFFCURVE",
"418 101 CURVE",
"416 101 LINE",
"411 125 OFFCURVE",
"407 142 OFFCURVE",
"404 151 CURVE SMOOTH",
"402 161 OFFCURVE",
"393 188 OFFCURVE",
"379 233 CURVE SMOOTH",
"239 671 LINE SMOOTH",
"233 690 OFFCURVE",
"224 700 OFFCURVE",
"211 700 CURVE SMOOTH",
"107 700 LINE SMOOTH",
"91 700 OFFCURVE",
"83 691 OFFCURVE",
"83 673 CURVE SMOOTH",
"83 27 LINE SMOOTH",
"83 9 OFFCURVE",
"91 0 OFFCURVE",
"107 0 CURVE SMOOTH"
);
}
);
width = 834;
},
{
anchors = (
{
name = mark0;
position = "{0, 0}";
},
{
name = mark1;
position = "{446, 0}";
},
{
name = mark2;
position = "{446, 717}";
}
);
layerId = "A47C7914-817C-44A4-AF12-15F849B12484";
paths = (
{
closed = 1;
nodes = (
"187 0 LINE SMOOTH",
"209 0 OFFCURVE",
"221 12 OFFCURVE",
"221 37 CURVE SMOOTH",
"221 440 LINE SMOOTH",
"221 459 OFFCURVE",
"220 479 OFFCURVE",
"218 499 CURVE",
"222 499 LINE",
"363 40 LINE SMOOTH",
"371 13 OFFCURVE",
"385 0 OFFCURVE",
"405 0 CURVE SMOOTH",
"488 0 LINE SMOOTH",
"508 0 OFFCURVE",
"521 13 OFFCURVE",
"530 40 CURVE SMOOTH",
"671 499 LINE",
"674 499 LINE",
"673 479 OFFCURVE",
"672 459 OFFCURVE",
"672 440 CURVE SMOOTH",
"672 37 LINE SMOOTH",
"672 12 OFFCURVE",
"683 0 OFFCURVE",
"706 0 CURVE SMOOTH",
"780 0 LINE SMOOTH",
"803 0 OFFCURVE",
"814 12 OFFCURVE",
"814 37 CURVE SMOOTH",
"814 664 LINE SMOOTH",
"814 688 OFFCURVE",
"803 700 OFFCURVE",
"780 700 CURVE SMOOTH",
"639 700 LINE SMOOTH",
"620 700 OFFCURVE",
"606 687 OFFCURVE",
"598 661 CURVE SMOOTH",
"466 233 LINE SMOOTH",
"460 214 OFFCURVE",
"456 199 OFFCURVE",
"454 187 CURVE SMOOTH",
"451 175 OFFCURVE",
"449 161 OFFCURVE",
"448 145 CURVE",
"445 145 LINE",
"443 161 OFFCURVE",
"441 175 OFFCURVE",
"439 187 CURVE SMOOTH",
"437 199 OFFCURVE",
"433 214 OFFCURVE",
"427 233 CURVE SMOOTH",
"294 661 LINE SMOOTH",
"286 687 OFFCURVE",
"273 700 OFFCURVE",
"254 700 CURVE SMOOTH",
"112 700 LINE SMOOTH",
"89 700 OFFCURVE",
"78 688 OFFCURVE",
"78 664 CURVE SMOOTH",
"78 37 LINE SMOOTH",
"78 12 OFFCURVE",
"89 0 OFFCURVE",
"112 0 CURVE SMOOTH"
);
}
);
width = 893;
}
);
unicode = 004D;
},
{
glyphname = N;
lastChange = "2016-09-03 11:05:29 +0000";
layers = (
{
anchors = (
{
name = mark0;
position = "{0, 0}";
},
{
name = mark1;
position = "{0, 0}";
},
{
name = mark2;
position = "{0, 0}";
},
{
name = mark3;
position = "{351, 0}";
},
{
name = mark4;
position = "{351, 715}";
}
);
layerId = UUID0;
paths = (
{
closed = 1;
nodes = (
"152 0 LINE SMOOTH",
"168 0 OFFCURVE",
"177 9 OFFCURVE",
"177 27 CURVE SMOOTH",
"177 529 LINE SMOOTH",
"177 542 OFFCURVE",
"176 555 OFFCURVE",
"176 568 CURVE",
"178 568 LINE",
"503 24 LINE SMOOTH",
"513 8 OFFCURVE",
"529 0 OFFCURVE",
"552 0 CURVE SMOOTH",
"595 0 LINE SMOOTH",
"611 0 OFFCURVE",
"619 9 OFFCURVE",
"619 27 CURVE SMOOTH",
"619 673 LINE SMOOTH",
"619 691 OFFCURVE",
"611 700 OFFCURVE",
"595 700 CURVE SMOOTH",
"550 700 LINE SMOOTH",
"534 700 OFFCURVE",
"525 691 OFFCURVE",
"525 673 CURVE SMOOTH",
"525 203 LINE SMOOTH",
"525 189 OFFCURVE",
"526 177 OFFCURVE",
"526 164 CURVE",
"524 164 LINE",
"219 676 LINE SMOOTH",
"209 692 OFFCURVE",
"193 700 OFFCURVE",
"170 700 CURVE SMOOTH",
"107 700 LINE SMOOTH",
"91 700 OFFCURVE",
"83 691 OFFCURVE",
"83 673 CURVE SMOOTH",
"83 27 LINE SMOOTH",
"83 9 OFFCURVE",
"91 0 OFFCURVE",
"107 0 CURVE SMOOTH"
);
}
);
width = 702;
},
{
anchors = (
{
name = mark0;
position = "{0, 0}";
},
{
name = mark1;
position = "{359, 0}";
},
{
name = mark2;
position = "{359, 717}";
}
);
layerId = "A47C7914-817C-44A4-AF12-15F849B12484";
paths = (
{
closed = 1;
nodes = (
"187 0 LINE SMOOTH",
"209 0 OFFCURVE",
"221 12 OFFCURVE",
"221 37 CURVE SMOOTH",
"221 383 LINE SMOOTH",
"221 402 OFFCURVE",
"220 422 OFFCURVE",
"218 441 CURVE",
"222 441 LINE",
"476 34 LINE SMOOTH",
"490 11 OFFCURVE",
"511 0 OFFCURVE",
"539 0 CURVE SMOOTH",
"606 0 LINE SMOOTH",
"629 0 OFFCURVE",
"641 12 OFFCURVE",
"641 37 CURVE SMOOTH",
"641 664 LINE SMOOTH",
"641 688 OFFCURVE",
"629 700 OFFCURVE",
"606 700 CURVE SMOOTH",
"532 700 LINE SMOOTH",
"509 700 OFFCURVE",
"498 688 OFFCURVE",
"498 664 CURVE SMOOTH",
"498 325 LINE SMOOTH",
"498 305 OFFCURVE",
"499 286 OFFCURVE",
"500 266 CURVE",
"497 266 LINE",
"248 666 LINE SMOOTH",
"234 689 OFFCURVE",
"212 700 OFFCURVE",
"185 700 CURVE SMOOTH",
"112 700 LINE SMOOTH",
"89 700 OFFCURVE",
"78 688 OFFCURVE",
"78 664 CURVE SMOOTH",
"78 37 LINE SMOOTH",
"78 12 OFFCURVE",
"89 0 OFFCURVE",
"112 0 CURVE SMOOTH"
);
}
);
width = 719;
}
);
unicode = 004E;
},
{
glyphname = O;
lastChange = "2016-09-03 11:05:29 +0000";
layers = (
{
anchors = (
{
name = mark0;
position = "{372, 0}";
},
{
name = mark1;
position = "{0, 0}";
},
{
name = mark2;
position = "{0, 0}";
},
{
name = mark3;
position = "{372, 0}";
},
{
name = mark4;
position = "{372, 715}";
}
);
layerId = UUID0;
paths = (
{
closed = 1;
nodes = (
"45 236 OFFCURVE",
"73 147 OFFCURVE",
"129 82 CURVE SMOOTH",
"185 18 OFFCURVE",
"266 -15 OFFCURVE",
"372 -15 CURVE SMOOTH",
"478 -15 OFFCURVE",
"559 18 OFFCURVE",
"615 82 CURVE SMOOTH",
"671 147 OFFCURVE",
"699 236 OFFCURVE",
"699 350 CURVE SMOOTH",
"699 464 OFFCURVE",
"671 553 OFFCURVE",
"615 618 CURVE SMOOTH",
"559 683 OFFCURVE",
"478 715 OFFCURVE",
"372 715 CURVE SMOOTH",
"266 715 OFFCURVE",
"185 683 OFFCURVE",
"129 618 CURVE SMOOTH",
"73 553 OFFCURVE",
"45 464 OFFCURVE",
"45 350 CURVE SMOOTH"
);
},
{
closed = 1;
nodes = (
"145 441 OFFCURVE",
"164 512 OFFCURVE",
"201 563 CURVE SMOOTH",
"239 613 OFFCURVE",
"295 639 OFFCURVE",
"372 639 CURVE SMOOTH",
"449 639 OFFCURVE",
"505 613 OFFCURVE",
"543 563 CURVE SMOOTH",
"581 512 OFFCURVE",
"599 441 OFFCURVE",
"599 350 CURVE SMOOTH",
"599 259 OFFCURVE",
"581 188 OFFCURVE",
"543 137 CURVE SMOOTH",
"505 87 OFFCURVE",
"449 62 OFFCURVE",
"372 62 CURVE SMOOTH",
"295 62 OFFCURVE",
"239 87 OFFCURVE",
"201 137 CURVE SMOOTH",
"164 188 OFFCURVE",
"145 259 OFFCURVE",
"145 350 CURVE SMOOTH"
);
}
);
width = 744;
},
{
anchors = (
{
name = mark0;
position = "{377, 0}";
},
{
name = mark1;
position = "{377, 0}";
},
{
name = mark2;
position = "{377, 717}";
}
);
layerId = "A47C7914-817C-44A4-AF12-15F849B12484";
paths = (
{
closed = 1;
nodes = (
"42 238 OFFCURVE",
"71 148 OFFCURVE",
"129 83 CURVE SMOOTH",
"187 17 OFFCURVE",
"270 -17 OFFCURVE",
"377 -17 CURVE SMOOTH",
"484 -17 OFFCURVE",
"567 17 OFFCURVE",
"625 83 CURVE SMOOTH",
"683 148 OFFCURVE",
"712 238 OFFCURVE",
"712 350 CURVE SMOOTH",
"712 462 OFFCURVE",
"683 552 OFFCURVE",
"625 618 CURVE SMOOTH",
"567 684 OFFCURVE",
"484 717 OFFCURVE",
"377 717 CURVE SMOOTH",
"270 717 OFFCURVE",
"187 684 OFFCURVE",
"129 618 CURVE SMOOTH",
"71 552 OFFCURVE",
"42 462 OFFCURVE",
"42 350 CURVE SMOOTH"
);
},
{
closed = 1;
nodes = (
"194 513 OFFCURVE",
"250 602 OFFCURVE",
"377 602 CURVE SMOOTH",
"504 602 OFFCURVE",
"560 513 OFFCURVE",
"560 350 CURVE SMOOTH",
"560 188 OFFCURVE",
"504 99 OFFCURVE",
"377 99 CURVE SMOOTH",
"250 99 OFFCURVE",
"194 188 OFFCURVE",
"194 350 CURVE SMOOTH"
);
}
);
width = 754;
}
);
unicode = 004F;
},
{
glyphname = P;
lastChange = "2016-09-03 11:05:29 +0000";
layers = (
{
anchors = (
{
name = mark0;
position = "{0, 0}";
},
{
name = mark1;
position = "{0, 0}";
},
{
name = mark2;
position = "{0, 0}";
},
{
name = mark3;
position = "{317, 0}";
},
{
name = mark4;
position = "{317, 715}";
}
);
layerId = UUID0;
paths = (
{
closed = 1;
nodes = (
"152 0 LINE",
"168 0 OFFCURVE",
"177 9 OFFCURVE",
"177 27 CURVE SMOOTH",
"177 281 LINE",
"313 281 LINE SMOOTH",
"423 281 OFFCURVE",
"498 300 OFFCURVE",
"537 337 CURVE SMOOTH",
"575 375 OFFCURVE",
"595 426 OFFCURVE",
"595 491 CURVE SMOOTH",
"595 556 OFFCURVE",
"575 607 OFFCURVE",
"537 644 CURVE SMOOTH",
"498 682 OFFCURVE",
"423 700 OFFCURVE",
"313 700 CURVE SMOOTH",
"107 700 LINE SMOOTH",
"91 700 OFFCURVE",
"83 691 OFFCURVE",
"83 673 CURVE SMOOTH",
"83 27 LINE SMOOTH",
"83 9 OFFCURVE",
"91 0 OFFCURVE",
"107 0 CURVE SMOOTH"
);
},
{
closed = 1;
nodes = (
"177 620 LINE",
"314 620 LINE SMOOTH",
"386 620 OFFCURVE",
"435 610 OFFCURVE",
"460 589 CURVE SMOOTH",
"486 569 OFFCURVE",
"500 536 OFFCURVE",
"500 491 CURVE SMOOTH",
"500 445 OFFCURVE",
"486 412 OFFCURVE",
"460 392 CURVE SMOOTH",
"435 372 OFFCURVE",
"386 361 OFFCURVE",
"314 361 CURVE SMOOTH",
"177 361 LINE"
);
}
);
width = 639;
},
{
anchors = (
{
name = mark0;
position = "{0, 0}";
},
{
name = mark1;
position = "{320, 0}";
},
{
name = mark2;
position = "{320, 717}";
}
);
layerId = "A47C7914-817C-44A4-AF12-15F849B12484";
paths = (
{
closed = 1;
nodes = (
"187 0 LINE",
"209 0 OFFCURVE",
"221 12 OFFCURVE",
"221 37 CURVE SMOOTH",
"221 262 LINE",
"295 262 LINE SMOOTH",
"412 262 OFFCURVE",
"493 281 OFFCURVE",
"539 319 CURVE SMOOTH",
"584 357 OFFCURVE",
"607 411 OFFCURVE",
"607 481 CURVE SMOOTH",
"607 551 OFFCURVE",
"584 605 OFFCURVE",
"539 643 CURVE SMOOTH",
"493 681 OFFCURVE",
"412 700 OFFCURVE",
"295 700 CURVE SMOOTH",
"112 700 LINE SMOOTH",
"89 700 OFFCURVE",
"78 688 OFFCURVE",
"78 664 CURVE SMOOTH",
"78 37 LINE SMOOTH",
"78 12 OFFCURVE",
"89 0 OFFCURVE",
"112 0 CURVE SMOOTH"
);
},
{
closed = 1;
nodes = (
"221 581 LINE",
"294 581 LINE SMOOTH",
"359 581 OFFCURVE",
"404 573 OFFCURVE",
"427 558 CURVE SMOOTH",
"451 542 OFFCURVE",
"462 517 OFFCURVE",
"462 481 CURVE SMOOTH",
"462 445 OFFCURVE",
"451 419 OFFCURVE",
"427 404 CURVE SMOOTH",
"404 389 OFFCURVE",
"359 381 OFFCURVE",
"294 381 CURVE SMOOTH",
"221 381 LINE"
);
}
);
width = 648;
}
);
unicode = 0050;
},
{
glyphname = Q;
lastChange = "2016-09-03 11:05:29 +0000";
layers = (
{
anchors = (
{
name = mark0;
position = "{0, 0}";
},
{
name = mark1;
position = "{0, 0}";
},
{
name = mark2;
position = "{0, 0}";
},
{
name = mark3;
position = "{372, -195}";
},
{
name = mark4;
position = "{372, 715}";
}
);
layerId = UUID0;
paths = (
{
closed = 1;
nodes = (
"45 237 OFFCURVE",
"73 148 OFFCURVE",
"129 83 CURVE SMOOTH",
"177 27 OFFCURVE",
"244 -5 OFFCURVE",
"330 -13 CURVE",
"333 -57 OFFCURVE",
"349 -97 OFFCURVE",
"379 -131 CURVE SMOOTH",
"409 -167 OFFCURVE",
"459 -184 OFFCURVE",
"529 -184 CURVE SMOOTH",
"556 -184 OFFCURVE",
"584 -181 OFFCURVE",
"613 -174 CURVE SMOOTH",
"623 -172 OFFCURVE",
"627 -167 OFFCURVE",
"625 -159 CURVE SMOOTH",
"616 -116 LINE SMOOTH",
"614 -109 OFFCURVE",
"607 -107 OFFCURVE",
"594 -111 CURVE SMOOTH",
"582 -114 OFFCURVE",
"565 -116 OFFCURVE",
"545 -116 CURVE SMOOTH",
"470 -116 OFFCURVE",
"430 -75 OFFCURVE",
"423 -12 CURVE",
"504 -3 OFFCURVE",
"568 28 OFFCURVE",
"615 82 CURVE SMOOTH",
"671 147 OFFCURVE",
"699 236 OFFCURVE",
"699 350 CURVE SMOOTH",
"699 464 OFFCURVE",
"671 553 OFFCURVE",
"615 618 CURVE SMOOTH",
"559 683 OFFCURVE",
"478 715 OFFCURVE",
"372 715 CURVE SMOOTH",
"266 715 OFFCURVE",
"185 683 OFFCURVE",
"129 618 CURVE SMOOTH",
"73 554 OFFCURVE",
"45 465 OFFCURVE",
"45 351 CURVE SMOOTH"
);
},
{
closed = 1;
nodes = (
"145 441 OFFCURVE",
"164 512 OFFCURVE",
"201 563 CURVE SMOOTH",
"239 613 OFFCURVE",
"295 639 OFFCURVE",
"372 639 CURVE SMOOTH",
"449 639 OFFCURVE",
"505 613 OFFCURVE",
"543 563 CURVE SMOOTH",
"581 512 OFFCURVE",
"599 441 OFFCURVE",
"599 350 CURVE SMOOTH",
"599 259 OFFCURVE",
"581 188 OFFCURVE",
"543 137 CURVE SMOOTH",
"505 87 OFFCURVE",
"449 62 OFFCURVE",
"372 62 CURVE SMOOTH",
"295 62 OFFCURVE",
"239 87 OFFCURVE",
"201 137 CURVE SMOOTH",
"164 188 OFFCURVE",
"145 259 OFFCURVE",
"145 350 CURVE SMOOTH"
);
}
);
width = 744;
},
{
anchors = (
{
name = mark0;
position = "{0, 0}";
},
{
name = mark1;
position = "{377, -195}";
},
{
name = mark2;
position = "{377, 717}";
}
);
layerId = "A47C7914-817C-44A4-AF12-15F849B12484";
paths = (
{
closed = 1;
nodes = (
"42 238 OFFCURVE",
"71 148 OFFCURVE",
"129 83 CURVE SMOOTH",
"173 32 OFFCURVE",
"232 0 OFFCURVE",
"306 -11 CURVE",
"309 -63 OFFCURVE",
"326 -107 OFFCURVE",
"354 -144 CURVE SMOOTH",
"384 -180 OFFCURVE",
"442 -199 OFFCURVE",
"529 -199 CURVE SMOOTH",
"552 -199 OFFCURVE",
"583 -194 OFFCURVE",
"621 -184 CURVE",
"636 -180 OFFCURVE",
"642 -172 OFFCURVE",
"639 -159 CURVE SMOOTH",
"625 -103 LINE SMOOTH",
"623 -91 OFFCURVE",
"613 -87 OFFCURVE",
"597 -92 CURVE SMOOTH",
"579 -96 OFFCURVE",
"562 -99 OFFCURVE",
"545 -99 CURVE SMOOTH",
"509 -99 OFFCURVE",
"484 -91 OFFCURVE",
"472 -77 CURVE SMOOTH",
"459 -63 OFFCURVE",
"452 -41 OFFCURVE",
"449 -11 CURVE",
"522 1 OFFCURVE",
"581 32 OFFCURVE",
"625 83 CURVE SMOOTH",
"683 148 OFFCURVE",
"712 238 OFFCURVE",
"712 350 CURVE SMOOTH",
"712 462 OFFCURVE",
"683 552 OFFCURVE",
"625 618 CURVE SMOOTH",
"567 684 OFFCURVE",
"484 717 OFFCURVE",
"377 717 CURVE SMOOTH",
"270 717 OFFCURVE",
"187 684 OFFCURVE",
"129 618 CURVE SMOOTH",
"71 552 OFFCURVE",
"42 462 OFFCURVE",
"42 350 CURVE SMOOTH"
);
},
{
closed = 1;
nodes = (
"194 513 OFFCURVE",
"250 602 OFFCURVE",
"377 602 CURVE SMOOTH",
"504 602 OFFCURVE",
"560 513 OFFCURVE",
"560 350 CURVE SMOOTH",
"560 188 OFFCURVE",
"504 99 OFFCURVE",
"377 99 CURVE SMOOTH",
"250 99 OFFCURVE",
"194 188 OFFCURVE",
"194 350 CURVE SMOOTH"
);
}
);
width = 754;
}
);
unicode = 0051;
},
{
glyphname = R;
lastChange = "2016-09-03 11:05:29 +0000";
layers = (
{
anchors = (
{
name = mark0;
position = "{0, 0}";
},
{
name = mark1;
position = "{0, 0}";
},
{
name = mark2;
position = "{0, 0}";
},
{
name = mark3;
position = "{317, 0}";
},
{
name = mark4;
position = "{317, 715}";
}
);
layerId = UUID0;
paths = (
{
closed = 1;
nodes = (
"152 0 LINE",
"168 0 OFFCURVE",
"177 9 OFFCURVE",
"177 27 CURVE SMOOTH",
"177 303 LINE",
"262 303 LINE SMOOTH",
"302 303 OFFCURVE",
"336 291 OFFCURVE",
"364 267 CURVE SMOOTH",
"391 243 OFFCURVE",
"412 218 OFFCURVE",
"427 193 CURVE SMOOTH",
"528 19 LINE SMOOTH",
"536 6 OFFCURVE",
"547 0 OFFCURVE",
"563 0 CURVE SMOOTH",
"618 0 LINE SMOOTH",
"637 0 OFFCURVE",
"640 11 OFFCURVE",
"627 32 CURVE SMOOTH",
"517 211 LINE SMOOTH",
"503 233 OFFCURVE",
"491 250 OFFCURVE",
"480 263 CURVE SMOOTH",
"470 276 OFFCURVE",
"448 295 OFFCURVE",
"415 320 CURVE",
"415 321 LINE",
"478 326 OFFCURVE",
"526 346 OFFCURVE",
"560 380 CURVE SMOOTH",
"594 415 OFFCURVE",
"611 458 OFFCURVE",
"611 508 CURVE SMOOTH",
"611 566 OFFCURVE",
"590 612 OFFCURVE",
"547 647 CURVE SMOOTH",
"505 683 OFFCURVE",
"438 700 OFFCURVE",
"343 700 CURVE SMOOTH",
"107 700 LINE SMOOTH",
"91 700 OFFCURVE",
"83 691 OFFCURVE",
"83 673 CURVE SMOOTH",
"83 27 LINE SMOOTH",
"83 9 OFFCURVE",
"91 0 OFFCURVE",
"107 0 CURVE SMOOTH"
);
},
{
closed = 1;
nodes = (
"177 620 LINE",
"341 620 LINE SMOOTH",
"395 620 OFFCURVE",
"438 613 OFFCURVE",
"469 598 CURVE SMOOTH",
"500 583 OFFCURVE",
"516 555 OFFCURVE",
"516 514 CURVE SMOOTH",
"516 460 OFFCURVE",
"499 425 OFFCURVE",
"464 408 CURVE SMOOTH",
"430 392 OFFCURVE",
"381 383 OFFCURVE",
"318 383 CURVE SMOOTH",
"177 383 LINE"
);
}
);
width = 681;
},
{
anchors = (
{
name = mark0;
position = "{0, 0}";
},
{
name = mark1;
position = "{320, 0}";
},
{
name = mark2;
position = "{320, 717}";
}
);
layerId = "A47C7914-817C-44A4-AF12-15F849B12484";
paths = (
{
closed = 1;
nodes = (
"187 0 LINE",
"209 0 OFFCURVE",
"221 12 OFFCURVE",
"221 37 CURVE SMOOTH",
"221 283 LINE",
"257 283 LINE SMOOTH",
"285 283 OFFCURVE",
"313 272 OFFCURVE",
"341 251 CURVE SMOOTH",
"370 230 OFFCURVE",
"390 211 OFFCURVE",
"400 193 CURVE SMOOTH",
"499 29 LINE SMOOTH",
"510 10 OFFCURVE",
"525 0 OFFCURVE",
"543 0 CURVE SMOOTH",
"628 0 LINE SMOOTH",
"658 0 OFFCURVE",
"665 14 OFFCURVE",
"646 42 CURVE SMOOTH",
"539 211 LINE SMOOTH",
"529 227 OFFCURVE",
"516 245 OFFCURVE",
"500 266 CURVE SMOOTH",
"484 287 OFFCURVE",
"460 303 OFFCURVE",
"429 315 CURVE",
"429 316 LINE",
"487 326 OFFCURVE",
"534 347 OFFCURVE",
"572 377 CURVE SMOOTH",
"609 408 OFFCURVE",
"628 450 OFFCURVE",
"628 502 CURVE SMOOTH",
"628 572 OFFCURVE",
"605 623 OFFCURVE",
"559 653 CURVE SMOOTH",
"512 685 OFFCURVE",
"439 700 OFFCURVE",
"338 700 CURVE SMOOTH",
"112 700 LINE SMOOTH",
"89 700 OFFCURVE",
"78 688 OFFCURVE",
"78 664 CURVE SMOOTH",
"78 37 LINE SMOOTH",
"78 12 OFFCURVE",
"89 0 OFFCURVE",
"112 0 CURVE SMOOTH"
);
},
{
closed = 1;
nodes = (
"221 581 LINE",
"332 581 LINE SMOOTH",
"383 581 OFFCURVE",
"422 576 OFFCURVE",
"448 565 CURVE",
"475 555 OFFCURVE",
"488 532 OFFCURVE",
"488 497 CURVE SMOOTH",
"488 464 OFFCURVE",
"475 441 OFFCURVE",
"447 426 CURVE SMOOTH",
"419 411 OFFCURVE",
"373 404 OFFCURVE",
"308 404 CURVE SMOOTH",
"221 404 LINE"
);
}
);
width = 697;
}
);
unicode = 0052;
},
{
glyphname = S;
lastChange = "2016-09-03 11:05:29 +0000";
layers = (
{
anchors = (
{
name = mark0;
position = "{0, 0}";
},
{
name = mark1;
position = "{0, 0}";
},
{
name = mark2;
position = "{0, 0}";
},
{
name = mark3;
position = "{302, 0}";
},
{
name = mark4;
position = "{305, 715}";
}
);
layerId = UUID0;
paths = (
{
closed = 1;
nodes = (
"100 35 OFFCURVE",
"129 20 OFFCURVE",
"168 6 CURVE SMOOTH",
"207 -8 OFFCURVE",
"255 -15 OFFCURVE",
"314 -15 CURVE SMOOTH",
"364 -15 OFFCURVE",
"404 -9 OFFCURVE",
"437 3 CURVE SMOOTH",
"470 16 OFFCURVE",
"498 37 OFFCURVE",
"521 68 CURVE SMOOTH",
"545 99 OFFCURVE",
"557 137 OFFCURVE",
"557 184 CURVE SMOOTH",
"557 234 OFFCURVE",
"542 274 OFFCURVE",
"515 309 CURVE SMOOTH",
"502 326 OFFCURVE",
"480 343 OFFCURVE",
"451 359 CURVE SMOOTH",
"418 376 OFFCURVE",
"381 391 OFFCURVE",
"337 402 CURVE",
"294 415 OFFCURVE",
"263 425 OFFCURVE",
"242 434 CURVE SMOOTH",
"211 447 OFFCURVE",
"188 474 OFFCURVE",
"183 497 CURVE SMOOTH",
"181 508 OFFCURVE",
"179 521 OFFCURVE",
"179 535 CURVE SMOOTH",
"179 578 OFFCURVE",
"204 614 OFFCURVE",
"243 627 CURVE SMOOTH",
"263 635 OFFCURVE",
"288 638 OFFCURVE",
"318 638 CURVE SMOOTH",
"341 638 OFFCURVE",
"365 633 OFFCURVE",
"389 623 CURVE SMOOTH",
"413 612 OFFCURVE",
"433 602 OFFCURVE",
"450 590 CURVE SMOOTH",
"472 575 OFFCURVE",
"486 572 OFFCURVE",
"494 583 CURVE SMOOTH",
"519 619 LINE SMOOTH",
"528 632 OFFCURVE",
"524 645 OFFCURVE",
"507 657 CURVE SMOOTH",
"458 691 OFFCURVE",
"399 715 OFFCURVE",
"317 715 CURVE SMOOTH",
"281 715 OFFCURVE",
"245 710 OFFCURVE",
"210 700 CURVE SMOOTH",
"175 690 OFFCURVE",
"146 670 OFFCURVE",
"122 641 CURVE SMOOTH",
"98 611 OFFCURVE",
"85 575 OFFCURVE",
"85 534 CURVE SMOOTH",
"85 479 OFFCURVE",
"94 440 OFFCURVE",
"128 400 CURVE SMOOTH",
"146 380 OFFCURVE",
"169 364 OFFCURVE",
"199 350 CURVE SMOOTH",
"229 335 OFFCURVE",
"263 323 OFFCURVE",
"302 311 CURVE SMOOTH",
"342 298 OFFCURVE",
"372 288 OFFCURVE",
"392 279 CURVE SMOOTH",
"416 268 OFFCURVE",
"440 249 OFFCURVE",
"450 219 CURVE",
"456 205 OFFCURVE",
"458 189 OFFCURVE",
"458 172 CURVE",
"457 103 OFFCURVE",
"402 62 OFFCURVE",
"317 62 CURVE SMOOTH",
"277 62 OFFCURVE",
"243 68 OFFCURVE",
"215 80 CURVE SMOOTH",
"188 92 OFFCURVE",
"161 108 OFFCURVE",
"135 127 CURVE SMOOTH",
"116 142 OFFCURVE",
"102 143 OFFCURVE",
"93 130 CURVE SMOOTH",
"67 94 LINE SMOOTH",
"59 82 OFFCURVE",
"64 68 OFFCURVE",
"81 53 CURVE SMOOTH"
);
}
);
width = 598;
},
{
anchors = (
{
name = mark0;
position = "{0, 0}";
},
{
name = mark1;
position = "{310, 0}";
},
{
name = mark2;
position = "{324, 717}";
}
);
layerId = "A47C7914-817C-44A4-AF12-15F849B12484";
paths = (
{
closed = 1;
nodes = (
"118 28 OFFCURVE",
"152 11 OFFCURVE",
"188 0 CURVE SMOOTH",
"223 -11 OFFCURVE",
"269 -17 OFFCURVE",
"326 -17 CURVE SMOOTH",
"364 -17 OFFCURVE",
"403 -12 OFFCURVE",
"444 -1 CURVE SMOOTH",
"484 8 OFFCURVE",
"521 30 OFFCURVE",
"555 64 CURVE SMOOTH",
"588 98 OFFCURVE",
"604 141 OFFCURVE",
"604 193 CURVE SMOOTH",
"604 264 OFFCURVE",
"580 315 OFFCURVE",
"545 344 CURVE SMOOTH",
"528 359 OFFCURVE",
"503 374 OFFCURVE",
"470 388 CURVE SMOOTH",
"423 409 OFFCURVE",
"370 424 OFFCURVE",
"299 447 CURVE SMOOTH",
"276 454 OFFCURVE",
"253 463 OFFCURVE",
"235 484 CURVE SMOOTH",
"226 496 OFFCURVE",
"222 510 OFFCURVE",
"222 527 CURVE SMOOTH",
"222 545 OFFCURVE",
"228 561 OFFCURVE",
"240 573 CURVE SMOOTH",
"252 585 OFFCURVE",
"267 593 OFFCURVE",
"283 597 CURVE SMOOTH",
"299 600 OFFCURVE",
"317 602 OFFCURVE",
"336 602 CURVE SMOOTH",
"363 602 OFFCURVE",
"389 596 OFFCURVE",
"414 583 CURVE SMOOTH",
"438 571 OFFCURVE",
"458 561 OFFCURVE",
"473 551 CURVE SMOOTH",
"495 536 OFFCURVE",
"513 537 OFFCURVE",
"526 555 CURVE SMOOTH",
"566 608 LINE SMOOTH",
"576 623 OFFCURVE",
"571 638 OFFCURVE",
"551 655 CURVE SMOOTH",
"530 673 OFFCURVE",
"499 688 OFFCURVE",
"458 699 CURVE SMOOTH",
"417 711 OFFCURVE",
"378 717 OFFCURVE",
"339 717 CURVE SMOOTH",
"301 717 OFFCURVE",
"262 712 OFFCURVE",
"224 703 CURVE SMOOTH",
"186 694 OFFCURVE",
"152 673 OFFCURVE",
"123 641 CURVE SMOOTH",
"94 609 OFFCURVE",
"79 570 OFFCURVE",
"79 525 CURVE SMOOTH",
"79 487 OFFCURVE",
"85 457 OFFCURVE",
"98 434 CURVE SMOOTH",
"110 411 OFFCURVE",
"127 390 OFFCURVE",
"150 372 CURVE SMOOTH",
"172 354 OFFCURVE",
"197 339 OFFCURVE",
"224 329 CURVE SMOOTH",
"254 317 OFFCURVE",
"285 307 OFFCURVE",
"316 299 CURVE SMOOTH",
"347 291 OFFCURVE",
"373 282 OFFCURVE",
"394 274 CURVE SMOOTH",
"417 264 OFFCURVE",
"442 250 OFFCURVE",
"452 229 CURVE SMOOTH",
"457 217 OFFCURVE",
"459 205 OFFCURVE",
"459 190 CURVE SMOOTH",
"459 149 OFFCURVE",
"437 117 OFFCURVE",
"394 106 CURVE SMOOTH",
"373 101 OFFCURVE",
"351 99 OFFCURVE",
"328 99 CURVE SMOOTH",
"295 99 OFFCURVE",
"265 105 OFFCURVE",
"235 119 CURVE",
"206 132 OFFCURVE",
"182 146 OFFCURVE",
"164 158 CURVE SMOOTH",
"140 175 OFFCURVE",
"122 174 OFFCURVE",
"109 155 CURVE SMOOTH",
"72 99 LINE SMOOTH",
"62 83 OFFCURVE",
"66 67 OFFCURVE",
"86 52 CURVE SMOOTH"
);
}
);
width = 639;
}
);
unicode = 0053;
},
{
glyphname = T;
lastChange = "2016-09-03 11:05:29 +0000";
layers = (
{
anchors = (
{
name = mark0;
position = "{0, 0}";
},
{
name = mark1;
position = "{0, 0}";
},
{
name = mark2;
position = "{0, 0}";
},
{
name = mark3;
position = "{303, 0}";
},
{
name = mark4;
position = "{303, 715}";
}
);
layerId = UUID0;
paths = (
{
closed = 1;
nodes = (
"256 616 LINE",
"256 27 LINE SMOOTH",
"256 9 OFFCURVE",
"264 0 OFFCURVE",
"280 0 CURVE SMOOTH",
"325 0 LINE SMOOTH",
"341 0 OFFCURVE",
"350 9 OFFCURVE",
"350 27 CURVE SMOOTH",
"350 616 LINE",
"561 616 LINE SMOOTH",
"579 616 OFFCURVE",
"588 624 OFFCURVE",
"588 638 CURVE SMOOTH",
"588 678 LINE SMOOTH",
"588 693 OFFCURVE",
"579 700 OFFCURVE",
"561 700 CURVE SMOOTH",
"44 700 LINE SMOOTH",
"26 700 OFFCURVE",
"18 693 OFFCURVE",
"18 678 CURVE SMOOTH",
"18 638 LINE SMOOTH",
"18 624 OFFCURVE",
"26 616 OFFCURVE",
"44 616 CURVE SMOOTH"
);
}
);
width = 605;
},
{
anchors = (
{
name = mark0;
position = "{0, 0}";
},
{
name = mark1;
position = "{304, 0}";
},
{
name = mark2;
position = "{304, 717}";
}
);
layerId = "A47C7914-817C-44A4-AF12-15F849B12484";
paths = (
{
closed = 1;
nodes = (
"233 575 LINE",
"233 27 LINE SMOOTH",
"233 9 OFFCURVE",
"241 0 OFFCURVE",
"257 0 CURVE SMOOTH",
"351 0 LINE SMOOTH",
"367 0 OFFCURVE",
"375 9 OFFCURVE",
"375 27 CURVE SMOOTH",
"375 575 LINE",
"555 575 LINE SMOOTH",
"580 575 OFFCURVE",
"592 586 OFFCURVE",
"592 607 CURVE SMOOTH",
"592 668 LINE SMOOTH",
"592 689 OFFCURVE",
"580 700 OFFCURVE",
"555 700 CURVE SMOOTH",
"53 700 LINE SMOOTH",
"29 700 OFFCURVE",
"17 689 OFFCURVE",
"17 668 CURVE SMOOTH",
"17 607 LINE SMOOTH",
"17 586 OFFCURVE",
"29 575 OFFCURVE",
"53 575 CURVE SMOOTH"
);
}
);
width = 608;
}
);
unicode = 0054;
},
{
glyphname = U;
lastChange = "2016-09-03 11:05:29 +0000";
layers = (
{
anchors = (
{
name = mark0;
position = "{342, 0}";
},
{
name = mark1;
position = "{0, 0}";
},
{
name = mark2;
position = "{0, 0}";
},
{
name = mark3;
position = "{342, 0}";
},
{
name = mark4;
position = "{342, 715}";
}
);
layerId = UUID0;
paths = (
{
closed = 1;
nodes = (
"83 267 LINE",
"83 164 OFFCURVE",
"106 91 OFFCURVE",
"154 49 CURVE SMOOTH",
"201 6 OFFCURVE",
"264 -15 OFFCURVE",
"342 -15 CURVE SMOOTH",
"420 -15 OFFCURVE",
"483 6 OFFCURVE",
"530 49 CURVE SMOOTH",
"578 91 OFFCURVE",
"602 164 OFFCURVE",
"602 267 CURVE SMOOTH",
"602 673 LINE SMOOTH",
"602 691 OFFCURVE",
"593 700 OFFCURVE",
"577 700 CURVE SMOOTH",
"532 700 LINE SMOOTH",
"516 700 OFFCURVE",
"508 691 OFFCURVE",
"508 673 CURVE SMOOTH",
"508 282 LINE SMOOTH",
"508 190 OFFCURVE",
"495 131 OFFCURVE",
"469 103 CURVE SMOOTH",
"443 75 OFFCURVE",
"401 62 OFFCURVE",
"342 62 CURVE SMOOTH",
"284 62 OFFCURVE",
"241 75 OFFCURVE",
"215 103 CURVE SMOOTH",
"189 131 OFFCURVE",
"177 190 OFFCURVE",
"177 282 CURVE SMOOTH",
"177 673 LINE SMOOTH",
"177 691 OFFCURVE",
"168 700 OFFCURVE",
"152 700 CURVE SMOOTH",
"107 700 LINE SMOOTH",
"91 700 OFFCURVE",
"83 691 OFFCURVE",
"83 673 CURVE SMOOTH",
"83 267 LINE"
);
}
);
width = 685;
},
{
anchors = (
{
name = mark0;
position = "{347, 0}";
},
{
name = mark1;
position = "{347, 0}";
},
{
name = mark2;
position = "{347, 717}";
}
);
layerId = "A47C7914-817C-44A4-AF12-15F849B12484";
paths = (
{
closed = 1;
nodes = (
"78 292 LINE",
"78 178 OFFCURVE",
"102 98 OFFCURVE",
"150 52 CURVE SMOOTH",
"199 6 OFFCURVE",
"264 -17 OFFCURVE",
"347 -17 CURVE SMOOTH",
"430 -17 OFFCURVE",
"496 6 OFFCURVE",
"544 52 CURVE SMOOTH",
"592 98 OFFCURVE",
"616 178 OFFCURVE",
"616 292 CURVE SMOOTH",
"616 673 LINE SMOOTH",
"616 691 OFFCURVE",
"605 700 OFFCURVE",
"582 700 CURVE SMOOTH",
"508 700 LINE SMOOTH",
"485 700 OFFCURVE",
"474 691 OFFCURVE",
"474 673 CURVE SMOOTH",
"474 296 LINE SMOOTH",
"474 208 OFFCURVE",
"460 153 OFFCURVE",
"435 131 CURVE SMOOTH",
"409 109 OFFCURVE",
"380 99 OFFCURVE",
"347 99 CURVE SMOOTH",
"314 99 OFFCURVE",
"285 109 OFFCURVE",
"259 131 CURVE SMOOTH",
"233 153 OFFCURVE",
"221 208 OFFCURVE",
"221 296 CURVE SMOOTH",
"221 673 LINE SMOOTH",
"221 691 OFFCURVE",
"209 700 OFFCURVE",
"187 700 CURVE SMOOTH",
"112 700 LINE SMOOTH",
"89 700 OFFCURVE",
"78 691 OFFCURVE",
"78 673 CURVE SMOOTH",
"78 292 LINE"
);
}
);
width = 694;
}
);
unicode = 0055;
},
{
glyphname = V;
lastChange = "2016-09-03 11:05:29 +0000";
layers = (
{
anchors = (
{
name = mark0;
position = "{0, 0}";
},
{
name = mark1;
position = "{0, 0}";
},
{
name = mark2;
position = "{0, 0}";
},
{
name = mark3;
position = "{327, 0}";
},
{
name = mark4;
position = "{326, 715}";
}
);
layerId = UUID0;
paths = (
{
closed = 1;
nodes = (
"272 30 LINE SMOOTH",
"280 10 OFFCURVE",
"291 0 OFFCURVE",
"305 0 CURVE SMOOTH",
"373 0 LINE SMOOTH",
"387 0 OFFCURVE",
"398 10 OFFCURVE",
"405 30 CURVE SMOOTH",
"643 668 LINE SMOOTH",
"651 689 OFFCURVE",
"647 700 OFFCURVE",
"630 700 CURVE SMOOTH",
"580 700 LINE SMOOTH",
"563 700 OFFCURVE",
"551 692 OFFCURVE",
"545 676 CURVE SMOOTH",
"386 239 LINE SMOOTH",
"379 220 OFFCURVE",
"371 194 OFFCURVE",
"360 162 CURVE SMOOTH",
"350 129 OFFCURVE",
"343 104 OFFCURVE",
"340 84 CURVE",
"338 84 LINE",
"334 104 OFFCURVE",
"327 129 OFFCURVE",
"317 162 CURVE SMOOTH",
"307 194 OFFCURVE",
"298 220 OFFCURVE",
"292 239 CURVE SMOOTH",
"133 676 LINE SMOOTH",
"127 692 OFFCURVE",
"115 700 OFFCURVE",
"98 700 CURVE SMOOTH",
"48 700 LINE SMOOTH",
"31 700 OFFCURVE",
"26 689 OFFCURVE",
"35 668 CURVE SMOOTH"
);
}
);
width = 653;
},
{
anchors = (
{
name = mark0;
position = "{0, 0}";
},
{
name = mark1;
position = "{334, 0}";
},
{
name = mark2;
position = "{334, 717}";
}
);
layerId = "A47C7914-817C-44A4-AF12-15F849B12484";
paths = (
{
closed = 1;
nodes = (
"267 40 LINE SMOOTH",
"276 13 OFFCURVE",
"292 0 OFFCURVE",
"313 0 CURVE SMOOTH",
"381 0 LINE SMOOTH",
"402 0 OFFCURVE",
"417 13 OFFCURVE",
"427 40 CURVE SMOOTH",
"660 668 LINE SMOOTH",
"668 689 OFFCURVE",
"661 700 OFFCURVE",
"637 700 CURVE SMOOTH",
"560 700 LINE SMOOTH",
"538 700 OFFCURVE",
"523 689 OFFCURVE",
"515 667 CURVE SMOOTH",
"365 259 LINE",
"358 238 OFFCURVE",
"354 224 OFFCURVE",
"352 217 CURVE SMOOTH",
"351 210 OFFCURVE",
"349 198 OFFCURVE",
"348 182 CURVE",
"346 182 LINE",
"344 198 OFFCURVE",
"343 210 OFFCURVE",
"341 217 CURVE SMOOTH",
"340 224 OFFCURVE",
"335 238 OFFCURVE",
"328 259 CURVE",
"179 667 LINE SMOOTH",
"170 689 OFFCURVE",
"156 700 OFFCURVE",
"134 700 CURVE SMOOTH",
"56 700 LINE SMOOTH",
"33 700 OFFCURVE",
"25 689 OFFCURVE",
"33 668 CURVE SMOOTH"
);
}
);
width = 669;
}
);
unicode = 0056;
},
{
glyphname = W;
lastChange = "2016-09-03 11:05:29 +0000";
layers = (
{
anchors = (
{
name = mark0;
position = "{0, 0}";
},
{
name = mark1;
position = "{0, 0}";
},
{
name = mark2;
position = "{0, 0}";
},
{
name = mark3;
position = "{461, 0}";
},
{
name = mark4;
position = "{461, 715}";
}
);
layerId = UUID0;
paths = (
{
closed = 1;
nodes = (
"199 38 LINE SMOOTH",
"206 13 OFFCURVE",
"218 0 OFFCURVE",
"235 0 CURVE SMOOTH",
"296 0 LINE SMOOTH",
"313 0 OFFCURVE",
"324 14 OFFCURVE",
"331 41 CURVE SMOOTH",
"449 509 LINE SMOOTH",
"455 533 OFFCURVE",
"459 552 OFFCURVE",
"461 567 CURVE SMOOTH",
"464 583 OFFCURVE",
"466 599 OFFCURVE",
"468 615 CURVE",
"469 615 LINE",
"471 599 OFFCURVE",
"474 583 OFFCURVE",
"476 567 CURVE SMOOTH",
"479 552 OFFCURVE",
"483 533 OFFCURVE",
"489 509 CURVE SMOOTH",
"606 41 LINE SMOOTH",
"613 14 OFFCURVE",
"625 0 OFFCURVE",
"641 0 CURVE SMOOTH",
"702 0 LINE SMOOTH",
"720 0 OFFCURVE",
"732 13 OFFCURVE",
"738 38 CURVE SMOOTH",
"906 671 LINE SMOOTH",
"912 690 OFFCURVE",
"907 700 OFFCURVE",
"894 700 CURVE SMOOTH",
"834 700 LINE SMOOTH",
"824 700 OFFCURVE",
"816 693 OFFCURVE",
"813 678 CURVE SMOOTH",
"704 208 LINE",
"695 171 OFFCURVE",
"682 124 OFFCURVE",
"674 84 CURVE",
"671 84 LINE",
"665 123 OFFCURVE",
"656 157 OFFCURVE",
"645 208 CURVE",
"534 674 LINE SMOOTH",
"529 691 OFFCURVE",
"519 700 OFFCURVE",
"502 700 CURVE SMOOTH",
"435 700 LINE SMOOTH",
"418 700 OFFCURVE",
"408 691 OFFCURVE",
"404 674 CURVE SMOOTH",
"292 208 LINE",
"281 157 OFFCURVE",
"272 123 OFFCURVE",
"266 84 CURVE",
"264 84 LINE",
"255 124 OFFCURVE",
"243 171 OFFCURVE",
"233 208 CURVE",
"125 678 LINE SMOOTH",
"121 693 OFFCURVE",
"114 700 OFFCURVE",
"104 700 CURVE SMOOTH",
"44 700 LINE SMOOTH",
"30 700 OFFCURVE",
"26 690 OFFCURVE",
"31 671 CURVE SMOOTH"
);
}
);
width = 922;
},
{
anchors = (
{
name = mark0;
position = "{0, 0}";
},
{
name = mark1;
position = "{493, 0}";
},
{
name = mark2;
position = "{493, 717}";
}
);
layerId = "A47C7914-817C-44A4-AF12-15F849B12484";
paths = (
{
closed = 1;
nodes = (
"199 47 LINE SMOOTH",
"207 16 OFFCURVE",
"223 0 OFFCURVE",
"245 0 CURVE SMOOTH",
"330 0 LINE SMOOTH",
"349 0 OFFCURVE",
"363 16 OFFCURVE",
"372 47 CURVE SMOOTH",
"489 456 LINE SMOOTH",
"495 478 OFFCURVE",
"499 493 OFFCURVE",
"500 499 CURVE SMOOTH",
"501 506 OFFCURVE",
"502 519 OFFCURVE",
"504 537 CURVE",
"505 537 LINE",
"506 519 OFFCURVE",
"508 506 OFFCURVE",
"509 499 CURVE SMOOTH",
"510 493 OFFCURVE",
"514 478 OFFCURVE",
"520 456 CURVE SMOOTH",
"637 47 LINE SMOOTH",
"646 16 OFFCURVE",
"660 0 OFFCURVE",
"679 0 CURVE SMOOTH",
"764 0 LINE SMOOTH",
"786 0 OFFCURVE",
"802 16 OFFCURVE",
"810 47 CURVE SMOOTH",
"976 661 LINE",
"983 687 OFFCURVE",
"976 700 OFFCURVE",
"954 700 CURVE SMOOTH",
"863 700 LINE SMOOTH",
"848 700 OFFCURVE",
"838 689 OFFCURVE",
"833 668 CURVE SMOOTH",
"740 284 LINE",
"726 227 LINE",
"724 216 OFFCURVE",
"722 200 OFFCURVE",
"721 177 CURVE",
"718 177 LINE",
"717 200 OFFCURVE",
"715 217 OFFCURVE",
"713 229 CURVE SMOOTH",
"712 241 OFFCURVE",
"707 260 OFFCURVE",
"699 287 CURVE SMOOTH",
"590 664 LINE SMOOTH",
"583 688 OFFCURVE",
"570 700 OFFCURVE",
"549 700 CURVE SMOOTH",
"459 700 LINE SMOOTH",
"439 700 OFFCURVE",
"425 688 OFFCURVE",
"418 664 CURVE SMOOTH",
"310 287 LINE SMOOTH",
"302 260 OFFCURVE",
"297 241 OFFCURVE",
"295 229 CURVE SMOOTH",
"294 217 OFFCURVE",
"292 200 OFFCURVE",
"291 177 CURVE",
"288 177 LINE",
"287 200 OFFCURVE",
"285 216 OFFCURVE",
"282 227 CURVE SMOOTH",
"280 237 OFFCURVE",
"276 256 OFFCURVE",
"269 284 CURVE SMOOTH",
"176 668 LINE SMOOTH",
"171 689 OFFCURVE",
"161 700 OFFCURVE",
"146 700 CURVE SMOOTH",
"55 700 LINE SMOOTH",
"33 700 OFFCURVE",
"25 687 OFFCURVE",
"33 661 CURVE"
);
}
);
width = 987;
}
);
unicode = 0057;
},
{
glyphname = X;
lastChange = "2016-09-03 11:05:29 +0000";
layers = (
{
anchors = (
{
name = mark0;
position = "{0, 0}";
},
{
name = mark1;
position = "{0, 0}";
},
{
name = mark2;
position = "{0, 0}";
},
{
name = mark3;
position = "{320, 0}";
},
{
name = mark4;
position = "{320, 715}";
}
);
layerId = UUID0;
paths = (
{
closed = 1;
nodes = (
"121 0 LINE SMOOTH",
"135 0 OFFCURVE",
"147 6 OFFCURVE",
"155 19 CURVE SMOOTH",
"343 296 LINE",
"530 19 LINE SMOOTH",
"539 6 OFFCURVE",
"550 0 OFFCURVE",
"564 0 CURVE SMOOTH",
"625 0 LINE SMOOTH",
"646 0 OFFCURVE",
"649 11 OFFCURVE",
"634 32 CURVE SMOOTH",
"399 361 LINE",
"617 668 LINE SMOOTH",
"632 689 OFFCURVE",
"629 700 OFFCURVE",
"608 700 CURVE SMOOTH",
"548 700 LINE SMOOTH",
"534 700 OFFCURVE",
"522 694 OFFCURVE",
"514 681 CURVE SMOOTH",
"343 426 LINE",
"171 681 LINE SMOOTH",
"163 694 OFFCURVE",
"151 700 OFFCURVE",
"137 700 CURVE SMOOTH",
"77 700 LINE SMOOTH",
"56 700 OFFCURVE",
"53 689 OFFCURVE",
"68 668 CURVE SMOOTH",
"286 361 LINE",
"52 32 LINE SMOOTH",
"37 11 OFFCURVE",
"40 0 OFFCURVE",
"61 0 CURVE SMOOTH"
);
}
);
width = 640;
},
{
anchors = (
{
name = mark0;
position = "{0, 0}";
},
{
name = mark1;
position = "{346, 0}";
},
{
name = mark2;
position = "{346, 717}";
}
);
layerId = "A47C7914-817C-44A4-AF12-15F849B12484";
paths = (
{
closed = 1;
nodes = (
"181 0 LINE SMOOTH",
"198 0 OFFCURVE",
"213 10 OFFCURVE",
"225 29 CURVE SMOOTH",
"375 262 LINE",
"524 29 LINE SMOOTH",
"536 10 OFFCURVE",
"551 0 OFFCURVE",
"568 0 CURVE SMOOTH",
"668 0 LINE SMOOTH",
"699 0 OFFCURVE",
"706 14 OFFCURVE",
"687 42 CURVE SMOOTH",
"470 361 LINE",
"669 658 LINE SMOOTH",
"688 686 OFFCURVE",
"682 700 OFFCURVE",
"650 700 CURVE SMOOTH",
"552 700 LINE SMOOTH",
"535 700 OFFCURVE",
"520 690 OFFCURVE",
"508 671 CURVE SMOOTH",
"375 460 LINE",
"241 671 LINE SMOOTH",
"229 690 OFFCURVE",
"214 700 OFFCURVE",
"197 700 CURVE SMOOTH",
"99 700 LINE SMOOTH",
"67 700 OFFCURVE",
"61 686 OFFCURVE",
"80 658 CURVE SMOOTH",
"279 361 LINE",
"63 42 LINE SMOOTH",
"43 14 OFFCURVE",
"50 0 OFFCURVE",
"81 0 CURVE SMOOTH"
);
}
);
width = 692;
}
);
unicode = 0058;
},
{
glyphname = Y;
lastChange = "2016-09-03 11:05:29 +0000";
layers = (
{
anchors = (
{
name = mark0;
position = "{0, 0}";
},
{
name = mark1;
position = "{0, 0}";
},
{
name = mark2;
position = "{0, 0}";
},
{
name = mark3;
position = "{317, 0}";
},
{
name = mark4;
position = "{317, 715}";
}
);
layerId = UUID0;
paths = (
{
closed = 1;
nodes = (
"292 288 LINE",
"292 27 LINE SMOOTH",
"292 9 OFFCURVE",
"300 0 OFFCURVE",
"316 0 CURVE SMOOTH",
"361 0 LINE SMOOTH",
"377 0 OFFCURVE",
"386 9 OFFCURVE",
"386 27 CURVE SMOOTH",
"386 288 LINE",
"630 668 LINE SMOOTH",
"645 689 OFFCURVE",
"640 700 OFFCURVE",
"617 700 CURVE SMOOTH",
"563 700 LINE SMOOTH",
"548 700 OFFCURVE",
"537 692 OFFCURVE",
"527 676 CURVE SMOOTH",
"403 463 LINE",
"368 401 LINE SMOOTH",
"358 384 OFFCURVE",
"349 366 OFFCURVE",
"340 346 CURVE",
"338 346 LINE",
"329 366 OFFCURVE",
"319 384 OFFCURVE",
"310 401 CURVE SMOOTH",
"274 463 LINE",
"150 676 LINE SMOOTH",
"141 692 OFFCURVE",
"129 700 OFFCURVE",
"115 700 CURVE SMOOTH",
"61 700 LINE SMOOTH",
"38 700 OFFCURVE",
"33 689 OFFCURVE",
"47 668 CURVE SMOOTH"
);
}
);
width = 636;
},
{
anchors = (
{
name = mark0;
position = "{0, 0}";
},
{
name = mark1;
position = "{334, 0}";
},
{
name = mark2;
position = "{334, 717}";
}
);
layerId = "A47C7914-817C-44A4-AF12-15F849B12484";
paths = (
{
closed = 1;
nodes = (
"288 256 LINE",
"288 27 LINE SMOOTH",
"288 9 OFFCURVE",
"299 0 OFFCURVE",
"322 0 CURVE SMOOTH",
"396 0 LINE SMOOTH",
"419 0 OFFCURVE",
"430 9 OFFCURVE",
"430 27 CURVE SMOOTH",
"430 256 LINE",
"668 658 LINE SMOOTH",
"685 686 OFFCURVE",
"677 700 OFFCURVE",
"645 700 CURVE SMOOTH",
"560 700 LINE SMOOTH",
"542 700 OFFCURVE",
"528 689 OFFCURVE",
"515 667 CURVE SMOOTH",
"411 485 LINE SMOOTH",
"408 480 OFFCURVE",
"399 465 OFFCURVE",
"385 439 CURVE SMOOTH",
"371 414 OFFCURVE",
"362 389 OFFCURVE",
"360 365 CURVE",
"358 365 LINE",
"355 389 OFFCURVE",
"347 414 OFFCURVE",
"333 439 CURVE SMOOTH",
"319 465 OFFCURVE",
"310 480 OFFCURVE",
"307 485 CURVE SMOOTH",
"203 667 LINE SMOOTH",
"190 689 OFFCURVE",
"175 700 OFFCURVE",
"158 700 CURVE SMOOTH",
"73 700 LINE SMOOTH",
"41 700 OFFCURVE",
"33 686 OFFCURVE",
"50 658 CURVE SMOOTH"
);
}
);
width = 668;
}
);
unicode = 0059;
},
{
glyphname = Z;
lastChange = "2016-09-03 11:05:29 +0000";
layers = (
{
anchors = (
{
name = mark0;
position = "{0, 0}";
},
{
name = mark1;
position = "{0, 0}";
},
{
name = mark2;
position = "{0, 0}";
},
{
name = mark3;
position = "{297, 0}";
},
{
name = mark4;
position = "{297, 715}";
}
);
layerId = UUID0;
paths = (
{
closed = 1;
nodes = (
"535 0 LINE SMOOTH",
"553 0 OFFCURVE",
"562 7 OFFCURVE",
"562 22 CURVE SMOOTH",
"562 58 LINE SMOOTH",
"562 73 OFFCURVE",
"553 80 OFFCURVE",
"535 80 CURVE SMOOTH",
"192 80 LINE SMOOTH",
"175 80 OFFCURVE",
"162 80 OFFCURVE",
"153 79 CURVE",
"153 81 LINE",
"542 633 LINE SMOOTH",
"548 643 OFFCURVE",
"551 652 OFFCURVE",
"551 663 CURVE SMOOTH",
"551 678 LINE SMOOTH",
"551 693 OFFCURVE",
"542 700 OFFCURVE",
"524 700 CURVE SMOOTH",
"74 700 LINE SMOOTH",
"56 700 OFFCURVE",
"47 693 OFFCURVE",
"47 678 CURVE SMOOTH",
"47 642 LINE SMOOTH",
"47 627 OFFCURVE",
"56 620 OFFCURVE",
"74 620 CURVE SMOOTH",
"391 620 LINE SMOOTH",
"404 620 OFFCURVE",
"417 621 OFFCURVE",
"430 621 CURVE",
"430 619 LINE",
"46 89 LINE SMOOTH",
"37 76 OFFCURVE",
"32 61 OFFCURVE",
"32 45 CURVE SMOOTH",
"32 22 LINE SMOOTH",
"32 7 OFFCURVE",
"41 0 OFFCURVE",
"59 0 CURVE SMOOTH"
);
}
);
width = 594;
},
{
anchors = (
{
name = mark0;
position = "{0, 0}";
},
{
name = mark1;
position = "{306, 0}";
},
{
name = mark2;
position = "{306, 717}";
}
);
layerId = "A47C7914-817C-44A4-AF12-15F849B12484";
paths = (
{
closed = 1;
nodes = (
"545 0 LINE SMOOTH",
"569 0 OFFCURVE",
"582 11 OFFCURVE",
"582 32 CURVE SMOOTH",
"582 89 LINE SMOOTH",
"582 110 OFFCURVE",
"569 121 OFFCURVE",
"545 121 CURVE SMOOTH",
"272 121 LINE SMOOTH",
"253 121 OFFCURVE",
"233 120 OFFCURVE",
"214 119 CURVE",
"214 122 LINE",
"551 586 LINE SMOOTH",
"562 602 OFFCURVE",
"568 619 OFFCURVE",
"568 636 CURVE SMOOTH",
"568 668 LINE SMOOTH",
"568 689 OFFCURVE",
"556 700 OFFCURVE",
"531 700 CURVE SMOOTH",
"86 700 LINE SMOOTH",
"62 700 OFFCURVE",
"49 689 OFFCURVE",
"49 668 CURVE SMOOTH",
"49 611 LINE SMOOTH",
"49 590 OFFCURVE",
"62 579 OFFCURVE",
"86 579 CURVE SMOOTH",
"313 579 LINE SMOOTH",
"333 579 OFFCURVE",
"353 580 OFFCURVE",
"372 582 CURVE",
"372 578 LINE",
"55 140 LINE SMOOTH",
"38 117 OFFCURVE",
"30 94 OFFCURVE",
"30 72 CURVE SMOOTH",
"30 32 LINE SMOOTH",
"30 11 OFFCURVE",
"42 0 OFFCURVE",
"66 0 CURVE SMOOTH"
);
}
);
width = 611;
}
);
unicode = 005A;
},
{
glyphname = bracketleft;
lastChange = "2016-09-03 11:05:29 +0000";
layers = (
{
layerId = UUID0;
paths = (
{
closed = 1;
nodes = (
"265 -199 LINE SMOOTH",
"280 -199 OFFCURVE",
"287 -193 OFFCURVE",
"287 -182 CURVE SMOOTH",
"287 -153 LINE SMOOTH",
"287 -142 OFFCURVE",
"280 -136 OFFCURVE",
"265 -136 CURVE SMOOTH",
"169 -136 LINE",
"169 667 LINE",
"265 667 LINE SMOOTH",
"280 667 OFFCURVE",
"287 673 OFFCURVE",
"287 684 CURVE SMOOTH",
"287 713 LINE SMOOTH",
"287 725 OFFCURVE",
"280 730 OFFCURVE",
"265 730 CURVE SMOOTH",
"105 730 LINE SMOOTH",
"90 730 OFFCURVE",
"83 723 OFFCURVE",
"83 708 CURVE SMOOTH",
"83 -177 LINE SMOOTH",
"83 -192 OFFCURVE",
"90 -199 OFFCURVE",
"105 -199 CURVE SMOOTH"
);
}
);
width = 321;
},
{
layerId = "A47C7914-817C-44A4-AF12-15F849B12484";
paths = (
{
closed = 1;
nodes = (
"277 -199 LINE SMOOTH",
"297 -199 OFFCURVE",
"307 -191 OFFCURVE",
"307 -175 CURVE SMOOTH",
"307 -126 LINE SMOOTH",
"307 -110 OFFCURVE",
"297 -102 OFFCURVE",
"277 -102 CURVE SMOOTH",
"215 -102 LINE",
"215 633 LINE",
"277 633 LINE SMOOTH",
"297 633 OFFCURVE",
"307 641 OFFCURVE",
"307 657 CURVE SMOOTH",
"307 706 LINE SMOOTH",
"307 722 OFFCURVE",
"297 730 OFFCURVE",
"277 730 CURVE SMOOTH",
"107 730 LINE SMOOTH",
"88 730 OFFCURVE",
"78 721 OFFCURVE",
"78 701 CURVE SMOOTH",
"78 -170 LINE SMOOTH",
"78 -189 OFFCURVE",
"88 -199 OFFCURVE",
"107 -199 CURVE SMOOTH"
);
}
);
width = 339;
}
);
unicode = 005B;
},
{
glyphname = backslash;
lastChange = "2016-09-03 11:05:29 +0000";
layers = (
{
layerId = UUID0;
paths = (
{
closed = 1;
nodes = (
"361 -186 LINE SMOOTH",
"366 -199 OFFCURVE",
"375 -204 OFFCURVE",
"385 -200 CURVE SMOOTH",
"407 -191 LINE SMOOTH",
"418 -187 OFFCURVE",
"420 -177 OFFCURVE",
"415 -164 CURVE SMOOTH",
"66 701 LINE SMOOTH",
"61 715 OFFCURVE",
"52 719 OFFCURVE",
"41 715 CURVE SMOOTH",
"19 706 LINE SMOOTH",
"9 702 OFFCURVE",
"6 693 OFFCURVE",
"12 679 CURVE SMOOTH"
);
}
);
width = 410;
},
{
layerId = "A47C7914-817C-44A4-AF12-15F849B12484";
paths = (
{
closed = 1;
nodes = (
"339 -181 LINE",
"347 -199 OFFCURVE",
"357 -206 OFFCURVE",
"373 -200 CURVE SMOOTH",
"412 -185 LINE SMOOTH",
"427 -179 OFFCURVE",
"432 -167 OFFCURVE",
"424 -148 CURVE",
"100 696 LINE",
"93 714 OFFCURVE",
"82 721 OFFCURVE",
"67 715 CURVE SMOOTH",
"27 700 LINE SMOOTH",
"12 694 OFFCURVE",
"8 682 OFFCURVE",
"15 664 CURVE"
);
}
);
width = 418;
}
);
unicode = 005C;
},
{
glyphname = bracketright;
lastChange = "2016-09-03 11:05:29 +0000";
layers = (
{
layerId = UUID0;
paths = (
{
closed = 1;
nodes = (
"216 -199 LINE SMOOTH",
"231 -199 OFFCURVE",
"238 -192 OFFCURVE",
"238 -177 CURVE SMOOTH",
"238 708 LINE SMOOTH",
"238 723 OFFCURVE",
"231 730 OFFCURVE",
"216 730 CURVE SMOOTH",
"56 730 LINE SMOOTH",
"42 730 OFFCURVE",
"34 725 OFFCURVE",
"34 713 CURVE SMOOTH",
"34 684 LINE SMOOTH",
"34 673 OFFCURVE",
"42 667 OFFCURVE",
"56 667 CURVE SMOOTH",
"152 667 LINE",
"152 -136 LINE",
"56 -136 LINE SMOOTH",
"42 -136 OFFCURVE",
"34 -142 OFFCURVE",
"34 -153 CURVE SMOOTH",
"34 -182 LINE SMOOTH",
"34 -193 OFFCURVE",
"42 -199 OFFCURVE",
"56 -199 CURVE SMOOTH"
);
}
);
width = 321;
},
{
layerId = "A47C7914-817C-44A4-AF12-15F849B12484";
paths = (
{
closed = 1;
nodes = (
"231 -199 LINE SMOOTH",
"251 -199 OFFCURVE",
"261 -189 OFFCURVE",
"261 -170 CURVE SMOOTH",
"261 701 LINE SMOOTH",
"261 721 OFFCURVE",
"251 730 OFFCURVE",
"231 730 CURVE SMOOTH",
"62 730 LINE SMOOTH",
"42 730 OFFCURVE",
"32 722 OFFCURVE",
"32 706 CURVE SMOOTH",
"32 657 LINE SMOOTH",
"32 641 OFFCURVE",
"42 633 OFFCURVE",
"62 633 CURVE SMOOTH",
"124 633 LINE",
"124 -102 LINE",
"62 -102 LINE SMOOTH",
"42 -102 OFFCURVE",
"32 -110 OFFCURVE",
"32 -126 CURVE SMOOTH",
"32 -175 LINE SMOOTH",
"32 -191 OFFCURVE",
"42 -199 OFFCURVE",
"62 -199 CURVE SMOOTH"
);
}
);
width = 339;
}
);
unicode = 005D;
},
{
glyphname = asciicircum;
lastChange = "2016-09-03 11:05:29 +0000";
layers = (
{
layerId = UUID0;
paths = (
{
closed = 1;
nodes = (
"79 435 LINE SMOOTH",
"88 429 OFFCURVE",
"97 432 OFFCURVE",
"105 445 CURVE SMOOTH",
"222 630 LINE",
"223 630 LINE",
"340 445 LINE SMOOTH",
"348 432 OFFCURVE",
"357 429 OFFCURVE",
"366 435 CURVE SMOOTH",
"390 451 LINE SMOOTH",
"399 457 OFFCURVE",
"400 466 OFFCURVE",
"393 478 CURVE SMOOTH",
"265 684 LINE SMOOTH",
"258 695 OFFCURVE",
"247 700 OFFCURVE",
"233 700 CURVE SMOOTH",
"212 700 LINE SMOOTH",
"198 700 OFFCURVE",
"188 695 OFFCURVE",
"181 684 CURVE SMOOTH",
"52 478 LINE SMOOTH",
"45 466 OFFCURVE",
"46 457 OFFCURVE",
"55 451 CURVE SMOOTH"
);
}
);
width = 423;
},
{
layerId = "A47C7914-817C-44A4-AF12-15F849B12484";
paths = (
{
closed = 1;
nodes = (
"89 432 LINE SMOOTH",
"102 423 OFFCURVE",
"114 426 OFFCURVE",
"125 441 CURVE SMOOTH",
"241 602 LINE",
"242 602 LINE",
"358 441 LINE SMOOTH",
"369 426 OFFCURVE",
"381 423 OFFCURVE",
"395 432 CURVE SMOOTH",
"425 454 LINE SMOOTH",
"438 463 OFFCURVE",
"439 476 OFFCURVE",
"427 492 CURVE SMOOTH",
"286 686 LINE SMOOTH",
"277 698 OFFCURVE",
"266 704 OFFCURVE",
"250 704 CURVE SMOOTH",
"233 704 LINE SMOOTH",
"218 704 OFFCURVE",
"206 698 OFFCURVE",
"198 686 CURVE SMOOTH",
"56 492 LINE",
"45 476 OFFCURVE",
"45 463 OFFCURVE",
"59 454 CURVE SMOOTH"
);
}
);
width = 449;
}
);
unicode = 005E;
},
{
glyphname = underscore;
lastChange = "2016-09-03 11:05:29 +0000";
layers = (
{
layerId = UUID0;
paths = (
{
closed = 1;
nodes = (
"527 -190 LINE SMOOTH",
"542 -190 OFFCURVE",
"549 -185 OFFCURVE",
"549 -173 CURVE SMOOTH",
"549 -144 LINE SMOOTH",
"549 -133 OFFCURVE",
"542 -127 OFFCURVE",
"527 -127 CURVE SMOOTH",
"10 -127 LINE SMOOTH",
"-4 -127 OFFCURVE",
"-12 -133 OFFCURVE",
"-12 -144 CURVE SMOOTH",
"-12 -173 LINE SMOOTH",
"-12 -185 OFFCURVE",
"-4 -190 OFFCURVE",
"10 -190 CURVE SMOOTH"
);
}
);
width = 537;
},
{
layerId = "A47C7914-817C-44A4-AF12-15F849B12484";
paths = (
{
closed = 1;
nodes = (
"569 -208 LINE SMOOTH",
"588 -208 OFFCURVE",
"598 -199 OFFCURVE",
"598 -183 CURVE SMOOTH",
"598 -134 LINE SMOOTH",
"598 -118 OFFCURVE",
"588 -110 OFFCURVE",
"569 -110 CURVE SMOOTH",
"17 -110 LINE SMOOTH",
"-2 -110 OFFCURVE",
"-12 -118 OFFCURVE",
"-12 -134 CURVE SMOOTH",
"-12 -183 LINE SMOOTH",
"-12 -199 OFFCURVE",
"-2 -208 OFFCURVE",
"17 -208 CURVE SMOOTH"
);
}
);
width = 586;
}
);
unicode = 005F;
},
{
glyphname = grave;
lastChange = "2016-09-03 11:05:29 +0000";
layers = (
{
layerId = UUID0;
paths = (
{
closed = 1;
nodes = (
"196 576 LINE SMOOTH",
"205 566 OFFCURVE",
"218 562 OFFCURVE",
"236 562 CURVE SMOOTH",
"272 562 LINE SMOOTH",
"288 562 OFFCURVE",
"290 570 OFFCURVE",
"278 587 CURVE SMOOTH",
"210 683 LINE SMOOTH",
"202 695 OFFCURVE",
"188 701 OFFCURVE",
"170 701 CURVE SMOOTH",
"116 701 LINE SMOOTH",
"97 701 OFFCURVE",
"95 692 OFFCURVE",
"109 675 CURVE SMOOTH"
);
}
);
width = 300;
},
{
layerId = "A47C7914-817C-44A4-AF12-15F849B12484";
paths = (
{
closed = 1;
nodes = (
"181 580 LINE SMOOTH",
"191 567 OFFCURVE",
"208 562 OFFCURVE",
"230 562 CURVE SMOOTH",
"279 562 LINE SMOOTH",
"298 562 OFFCURVE",
"301 571 OFFCURVE",
"290 590 CURVE SMOOTH",
"237 678 LINE SMOOTH",
"228 693 OFFCURVE",
"210 701 OFFCURVE",
"185 701 CURVE SMOOTH",
"111 701 LINE SMOOTH",
"87 701 OFFCURVE",
"83 691 OFFCURVE",
"100 672 CURVE SMOOTH"
);
}
);
width = 300;
}
);
unicode = 0060;
},
{
glyphname = a;
lastChange = "2016-09-13 07:54:29 +0000";
layers = (
{
anchors = (
{
name = mark0;
position = "{409, 0}";
},
{
name = mark1;
position = "{521, -195}";
},
{
name = mark2;
position = "{521, 721}";
},
{
name = mark3;
position = "{263, 0}";
},
{
name = mark4;
position = "{263, 521}";
}
);
layerId = UUID0;
paths = (
{
closed = 1;
nodes = (
"42 45 OFFCURVE",
"101 -8 OFFCURVE",
"208 -8 CURVE SMOOTH",
"269 -8 OFFCURVE",
"314 5 OFFCURVE",
"366 46 CURVE",
"367 46 LINE",
"367 22 LINE SMOOTH",
"367 7 OFFCURVE",
"373 0 OFFCURVE",
"386 0 CURVE SMOOTH",
"430 0 LINE SMOOTH",
"444 0 OFFCURVE",
"452 7 OFFCURVE",
"452 22 CURVE SMOOTH",
"452 325 LINE SMOOTH",
"452 386 OFFCURVE",
"437 434 OFFCURVE",
"408 468 CURVE SMOOTH",
"379 503 OFFCURVE",
"331 521 OFFCURVE",
"263 521 CURVE SMOOTH",
"212 521 OFFCURVE",
"161 508 OFFCURVE",
"128 492 CURVE SMOOTH",
"112 483 OFFCURVE",
"95 471 OFFCURVE",
"78 455 CURVE SMOOTH",
"65 444 OFFCURVE",
"63 434 OFFCURVE",
"70 426 CURVE SMOOTH",
"96 396 LINE SMOOTH",
"104 388 OFFCURVE",
"112 388 OFFCURVE",
"121 398 CURVE SMOOTH",
"144 424 OFFCURVE",
"169 440 OFFCURVE",
"200 450 CURVE",
"216 455 OFFCURVE",
"237 458 OFFCURVE",
"263 458 CURVE SMOOTH",
"304 458 OFFCURVE",
"331 446 OFFCURVE",
"345 424 CURVE",
"359 402 OFFCURVE",
"366 375 OFFCURVE",
"366 345 CURVE SMOOTH",
"366 312 LINE",
"258 307 OFFCURVE",
"177 291 OFFCURVE",
"123 264 CURVE SMOOTH",
"68 237 OFFCURVE",
"42 195 OFFCURVE",
"42 137 CURVE SMOOTH"
);
},
{
closed = 1;
nodes = (
"130 157 OFFCURVE",
"139 176 OFFCURVE",
"157 193 CURVE SMOOTH",
"174 210 OFFCURVE",
"197 223 OFFCURVE",
"225 229 CURVE SMOOTH",
"253 237 OFFCURVE",
"300 243 OFFCURVE",
"366 248 CURVE",
"366 104 LINE",
"342 83 OFFCURVE",
"319 70 OFFCURVE",
"296 65 CURVE SMOOTH",
"274 60 OFFCURVE",
"250 58 OFFCURVE",
"225 58 CURVE SMOOTH",
"192 58 OFFCURVE",
"160 62 OFFCURVE",
"143 86 CURVE SMOOTH",
"135 98 OFFCURVE",
"130 115 OFFCURVE",
"130 135 CURVE SMOOTH"
);
}
);
width = 521;
},
{
anchors = (
{
name = mark0;
position = "{414, 0}";
},
{
name = mark1;
position = "{271, 0}";
},
{
name = mark2;
position = "{271, 522}";
}
);
layerId = "A47C7914-817C-44A4-AF12-15F849B12484";
paths = (
{
closed = 1;
nodes = (
"39 46 OFFCURVE",
"95 -10 OFFCURVE",
"202 -10 CURVE SMOOTH",
"225 -10 OFFCURVE",
"249 -5 OFFCURVE",
"276 3 CURVE SMOOTH",
"303 12 OFFCURVE",
"326 25 OFFCURVE",
"345 44 CURVE",
"346 44 LINE",
"346 29 LINE SMOOTH",
"346 10 OFFCURVE",
"355 0 OFFCURVE",
"373 0 CURVE SMOOTH",
"453 0 LINE SMOOTH",
"472 0 OFFCURVE",
"482 10 OFFCURVE",
"482 29 CURVE SMOOTH",
"482 337 LINE SMOOTH",
"482 459 OFFCURVE",
"407 522 OFFCURVE",
"271 522 CURVE SMOOTH",
"191 522 OFFCURVE",
"144 506 OFFCURVE",
"113 491 CURVE SMOOTH",
"98 484 OFFCURVE",
"85 475 OFFCURVE",
"74 465 CURVE SMOOTH",
"59 452 OFFCURVE",
"56 439 OFFCURVE",
"66 427 CURVE SMOOTH",
"107 377 LINE SMOOTH",
"117 365 OFFCURVE",
"129 366 OFFCURVE",
"144 379 CURVE SMOOTH",
"168 399 OFFCURVE",
"204 427 OFFCURVE",
"260 427 CURVE SMOOTH",
"313 427 OFFCURVE",
"345 405 OFFCURVE",
"345 345 CURVE SMOOTH",
"345 325 LINE",
"266 323 OFFCURVE",
"194 308 OFFCURVE",
"132 278 CURVE SMOOTH",
"70 249 OFFCURVE",
"39 202 OFFCURVE",
"39 137 CURVE SMOOTH"
);
},
{
closed = 1;
nodes = (
"184 168 OFFCURVE",
"198 188 OFFCURVE",
"235 207 CURVE SMOOTH",
"254 217 OFFCURVE",
"291 225 OFFCURVE",
"345 231 CURVE",
"345 125 LINE",
"326 108 OFFCURVE",
"309 97 OFFCURVE",
"293 93 CURVE SMOOTH",
"277 88 OFFCURVE",
"261 86 OFFCURVE",
"245 86 CURVE SMOOTH",
"206 86 OFFCURVE",
"184 104 OFFCURVE",
"184 140 CURVE SMOOTH"
);
}
);
width = 548;
}
);
unicode = 0061;
},
{
glyphname = b;
lastChange = "2016-09-03 11:05:29 +0000";
layers = (
{
anchors = (
{
name = mark0;
position = "{0, 0}";
},
{
name = mark1;
position = "{546, -195}";
},
{
name = mark2;
position = "{546, 721}";
},
{
name = mark3;
position = "{287, 0}";
},
{
name = mark4;
position = "{287, 721}";
}
);
layerId = UUID0;
paths = (
{
closed = 1;
nodes = (
"132 0 LINE",
"144 0 OFFCURVE",
"150 7 OFFCURVE",
"151 22 CURVE SMOOTH",
"154 61 LINE",
"155 61 LINE",
"173 40 OFFCURVE",
"193 22 OFFCURVE",
"216 10 CURVE SMOOTH",
"238 -2 OFFCURVE",
"268 -8 OFFCURVE",
"306 -8 CURVE SMOOTH",
"371 -8 OFFCURVE",
"420 18 OFFCURVE",
"454 71 CURVE SMOOTH",
"488 125 OFFCURVE",
"505 187 OFFCURVE",
"505 256 CURVE SMOOTH",
"505 326 OFFCURVE",
"488 388 OFFCURVE",
"454 441 CURVE SMOOTH",
"420 494 OFFCURVE",
"371 521 OFFCURVE",
"306 521 CURVE SMOOTH",
"268 521 OFFCURVE",
"238 515 OFFCURVE",
"216 502 CURVE SMOOTH",
"193 490 OFFCURVE",
"173 473 OFFCURVE",
"155 452 CURVE",
"154 452 LINE",
"155 461 OFFCURVE",
"155 471 OFFCURVE",
"155 481 CURVE SMOOTH",
"155 699 LINE SMOOTH",
"155 713 OFFCURVE",
"148 721 OFFCURVE",
"133 721 CURVE SMOOTH",
"91 721 LINE SMOOTH",
"77 721 OFFCURVE",
"69 713 OFFCURVE",
"69 699 CURVE SMOOTH",
"69 22 LINE SMOOTH",
"69 7 OFFCURVE",
"77 0 OFFCURVE",
"91 0 CURVE SMOOTH"
);
},
{
closed = 1;
nodes = (
"155 313 LINE",
"155 361 OFFCURVE",
"167 397 OFFCURVE",
"190 421 CURVE SMOOTH",
"213 445 OFFCURVE",
"243 458 OFFCURVE",
"278 458 CURVE SMOOTH",
"327 458 OFFCURVE",
"362 439 OFFCURVE",
"383 402 CURVE SMOOTH",
"404 365 OFFCURVE",
"414 316 OFFCURVE",
"414 256 CURVE SMOOTH",
"414 196 OFFCURVE",
"404 148 OFFCURVE",
"383 111 CURVE SMOOTH",
"362 74 OFFCURVE",
"327 55 OFFCURVE",
"278 55 CURVE SMOOTH",
"243 55 OFFCURVE",
"213 67 OFFCURVE",
"190 91 CURVE SMOOTH",
"167 115 OFFCURVE",
"155 151 OFFCURVE",
"155 200 CURVE SMOOTH"
);
}
);
width = 546;
},
{
anchors = (
{
name = mark0;
position = "{0, 0}";
},
{
name = mark1;
position = "{305, 0}";
},
{
name = mark2;
position = "{305, 721}";
}
);
layerId = "A47C7914-817C-44A4-AF12-15F849B12484";
paths = (
{
closed = 1;
nodes = (
"173 0 LINE",
"189 0 OFFCURVE",
"198 10 OFFCURVE",
"199 29 CURVE SMOOTH",
"201 58 LINE",
"203 58 LINE",
"220 30 OFFCURVE",
"239 11 OFFCURVE",
"260 3 CURVE SMOOTH",
"281 -5 OFFCURVE",
"306 -10 OFFCURVE",
"335 -10 CURVE SMOOTH",
"412 -10 OFFCURVE",
"465 17 OFFCURVE",
"496 69 CURVE SMOOTH",
"527 123 OFFCURVE",
"543 185 OFFCURVE",
"543 256 CURVE SMOOTH",
"543 328 OFFCURVE",
"527 390 OFFCURVE",
"496 443 CURVE",
"465 496 OFFCURVE",
"412 522 OFFCURVE",
"335 522 CURVE SMOOTH",
"306 522 OFFCURVE",
"281 518 OFFCURVE",
"260 510 CURVE SMOOTH",
"239 501 OFFCURVE",
"220 483 OFFCURVE",
"203 455 CURVE",
"201 455 LINE",
"203 468 OFFCURVE",
"203 481 OFFCURVE",
"203 494 CURVE SMOOTH",
"203 691 LINE SMOOTH",
"203 711 OFFCURVE",
"193 721 OFFCURVE",
"174 721 CURVE SMOOTH",
"96 721 LINE SMOOTH",
"76 721 OFFCURVE",
"66 711 OFFCURVE",
"66 691 CURVE SMOOTH",
"66 29 LINE SMOOTH",
"66 10 OFFCURVE",
"76 0 OFFCURVE",
"96 0 CURVE SMOOTH"
);
},
{
closed = 1;
nodes = (
"203 278 LINE",
"203 322 OFFCURVE",
"212 358 OFFCURVE",
"229 385 CURVE SMOOTH",
"247 413 OFFCURVE",
"268 427 OFFCURVE",
"292 427 CURVE SMOOTH",
"336 427 OFFCURVE",
"365 411 OFFCURVE",
"378 380 CURVE SMOOTH",
"392 350 OFFCURVE",
"398 309 OFFCURVE",
"398 256 CURVE SMOOTH",
"398 204 OFFCURVE",
"392 163 OFFCURVE",
"378 132 CURVE SMOOTH",
"365 101 OFFCURVE",
"336 86 OFFCURVE",
"292 86 CURVE SMOOTH",
"268 86 OFFCURVE",
"247 100 OFFCURVE",
"229 127 CURVE",
"212 155 OFFCURVE",
"203 190 OFFCURVE",
"203 234 CURVE SMOOTH"
);
}
);
width = 582;
}
);
unicode = 0062;
},
{
glyphname = c;
lastChange = "2016-09-03 11:05:29 +0000";
layers = (
{
anchors = (
{
name = mark0;
position = "{0, 0}";
},
{
name = mark1;
position = "{501, -195}";
},
{
name = mark2;
position = "{501, 721}";
},
{
name = mark3;
position = "{272, 0}";
},
{
name = mark4;
position = "{272, 521}";
}
);
layerId = UUID0;
paths = (
{
closed = 1;
nodes = (
"42 180 OFFCURVE",
"61 117 OFFCURVE",
"98 66 CURVE",
"136 17 OFFCURVE",
"194 -8 OFFCURVE",
"272 -8 CURVE SMOOTH",
"334 -8 OFFCURVE",
"379 4 OFFCURVE",
"408 29 CURVE SMOOTH",
"437 55 OFFCURVE",
"455 74 OFFCURVE",
"463 88 CURVE SMOOTH",
"470 100 OFFCURVE",
"469 109 OFFCURVE",
"459 115 CURVE SMOOTH",
"426 134 LINE SMOOTH",
"416 141 OFFCURVE",
"406 136 OFFCURVE",
"397 121 CURVE SMOOTH",
"389 105 OFFCURVE",
"375 90 OFFCURVE",
"355 76 CURVE SMOOTH",
"336 62 OFFCURVE",
"309 55 OFFCURVE",
"272 55 CURVE SMOOTH",
"183 55 OFFCURVE",
"132 120 OFFCURVE",
"132 256 CURVE SMOOTH",
"132 393 OFFCURVE",
"183 458 OFFCURVE",
"272 458 CURVE SMOOTH",
"307 458 OFFCURVE",
"332 452 OFFCURVE",
"349 441 CURVE SMOOTH",
"366 431 OFFCURVE",
"380 418 OFFCURVE",
"389 403 CURVE SMOOTH",
"399 387 OFFCURVE",
"409 383 OFFCURVE",
"418 390 CURVE SMOOTH",
"449 410 LINE SMOOTH",
"459 416 OFFCURVE",
"460 425 OFFCURVE",
"454 436 CURVE SMOOTH",
"441 455 OFFCURVE",
"421 474 OFFCURVE",
"393 493 CURVE SMOOTH",
"365 512 OFFCURVE",
"325 521 OFFCURVE",
"272 521 CURVE SMOOTH",
"194 521 OFFCURVE",
"136 496 OFFCURVE",
"98 446 CURVE SMOOTH",
"61 396 OFFCURVE",
"42 333 OFFCURVE",
"42 256 CURVE SMOOTH"
);
}
);
width = 501;
},
{
anchors = (
{
name = mark0;
position = "{0, 0}";
},
{
name = mark1;
position = "{293, 0}";
},
{
name = mark2;
position = "{293, 522}";
}
);
layerId = "A47C7914-817C-44A4-AF12-15F849B12484";
paths = (
{
closed = 1;
nodes = (
"39 173 OFFCURVE",
"60 108 OFFCURVE",
"102 61 CURVE SMOOTH",
"143 14 OFFCURVE",
"207 -10 OFFCURVE",
"293 -10 CURVE SMOOTH",
"351 -10 OFFCURVE",
"395 0 OFFCURVE",
"425 18 CURVE SMOOTH",
"456 36 OFFCURVE",
"478 54 OFFCURVE",
"490 73 CURVE SMOOTH",
"502 91 OFFCURVE",
"501 105 OFFCURVE",
"488 116 CURVE SMOOTH",
"442 152 LINE SMOOTH",
"429 163 OFFCURVE",
"416 161 OFFCURVE",
"403 146 CURVE SMOOTH",
"389 128 OFFCURVE",
"374 114 OFFCURVE",
"357 103 CURVE SMOOTH",
"341 91 OFFCURVE",
"320 86 OFFCURVE",
"293 86 CURVE SMOOTH",
"257 86 OFFCURVE",
"229 99 OFFCURVE",
"211 125 CURVE SMOOTH",
"193 150 OFFCURVE",
"184 194 OFFCURVE",
"184 256 CURVE SMOOTH",
"184 318 OFFCURVE",
"193 362 OFFCURVE",
"211 388 CURVE SMOOTH",
"229 414 OFFCURVE",
"257 427 OFFCURVE",
"293 427 CURVE SMOOTH",
"316 427 OFFCURVE",
"336 422 OFFCURVE",
"352 412 CURVE SMOOTH",
"367 402 OFFCURVE",
"378 393 OFFCURVE",
"383 385 CURVE SMOOTH",
"395 368 OFFCURVE",
"407 364 OFFCURVE",
"422 374 CURVE SMOOTH",
"474 408 LINE SMOOTH",
"487 417 OFFCURVE",
"489 429 OFFCURVE",
"479 444 CURVE SMOOTH",
"461 470 OFFCURVE",
"439 489 OFFCURVE",
"411 502 CURVE SMOOTH",
"383 516 OFFCURVE",
"344 522 OFFCURVE",
"293 522 CURVE SMOOTH",
"207 522 OFFCURVE",
"143 499 OFFCURVE",
"102 452 CURVE SMOOTH",
"60 404 OFFCURVE",
"39 339 OFFCURVE",
"39 256 CURVE SMOOTH"
);
}
);
width = 530;
}
);
unicode = 0063;
},
{
glyphname = d;
lastChange = "2016-09-03 11:05:29 +0000";
layers = (
{
anchors = (
{
name = mark0;
position = "{0, 0}";
},
{
name = mark1;
position = "{546, -195}";
},
{
name = mark2;
position = "{546, 721}";
},
{
name = mark3;
position = "{259, 0}";
},
{
name = mark4;
position = "{259, 721}";
}
);
layerId = UUID0;
paths = (
{
closed = 1;
nodes = (
"42 187 OFFCURVE",
"59 125 OFFCURVE",
"92 71 CURVE SMOOTH",
"126 18 OFFCURVE",
"176 -8 OFFCURVE",
"241 -8 CURVE SMOOTH",
"278 -8 OFFCURVE",
"308 -2 OFFCURVE",
"331 10 CURVE SMOOTH",
"353 22 OFFCURVE",
"373 40 OFFCURVE",
"391 61 CURVE",
"392 61 LINE",
"395 22 LINE SMOOTH",
"396 7 OFFCURVE",
"402 0 OFFCURVE",
"414 0 CURVE SMOOTH",
"455 0 LINE SMOOTH",
"470 0 OFFCURVE",
"477 7 OFFCURVE",
"477 22 CURVE SMOOTH",
"477 699 LINE SMOOTH",
"477 713 OFFCURVE",
"470 721 OFFCURVE",
"455 721 CURVE SMOOTH",
"413 721 LINE SMOOTH",
"398 721 OFFCURVE",
"391 713 OFFCURVE",
"391 699 CURVE SMOOTH",
"391 481 LINE SMOOTH",
"391 471 OFFCURVE",
"392 461 OFFCURVE",
"392 452 CURVE",
"391 452 LINE",
"373 473 OFFCURVE",
"353 490 OFFCURVE",
"331 502 CURVE SMOOTH",
"308 515 OFFCURVE",
"278 521 OFFCURVE",
"241 521 CURVE SMOOTH",
"176 521 OFFCURVE",
"126 494 OFFCURVE",
"92 441 CURVE SMOOTH",
"59 388 OFFCURVE",
"42 326 OFFCURVE",
"42 256 CURVE SMOOTH"
);
},
{
closed = 1;
nodes = (
"132 316 OFFCURVE",
"143 365 OFFCURVE",
"163 402 CURVE SMOOTH",
"184 439 OFFCURVE",
"219 458 OFFCURVE",
"269 458 CURVE SMOOTH",
"304 458 OFFCURVE",
"333 445 OFFCURVE",
"356 421 CURVE SMOOTH",
"379 397 OFFCURVE",
"391 361 OFFCURVE",
"391 313 CURVE SMOOTH",
"391 200 LINE SMOOTH",
"391 151 OFFCURVE",
"379 115 OFFCURVE",
"356 91 CURVE SMOOTH",
"333 67 OFFCURVE",
"304 55 OFFCURVE",
"269 55 CURVE SMOOTH",
"219 55 OFFCURVE",
"184 74 OFFCURVE",
"163 111 CURVE SMOOTH",
"143 148 OFFCURVE",
"132 196 OFFCURVE",
"132 256 CURVE SMOOTH"
);
}
);
width = 546;
},
{
anchors = (
{
name = mark0;
position = "{0, 0}";
},
{
name = mark1;
position = "{277, 0}";
},
{
name = mark2;
position = "{277, 721}";
}
);
layerId = "A47C7914-817C-44A4-AF12-15F849B12484";
paths = (
{
closed = 1;
nodes = (
"39 185 OFFCURVE",
"55 123 OFFCURVE",
"85 69 CURVE",
"117 17 OFFCURVE",
"170 -10 OFFCURVE",
"247 -10 CURVE SMOOTH",
"276 -10 OFFCURVE",
"301 -5 OFFCURVE",
"322 3 CURVE SMOOTH",
"343 11 OFFCURVE",
"362 30 OFFCURVE",
"379 58 CURVE",
"381 58 LINE",
"383 29 LINE SMOOTH",
"384 10 OFFCURVE",
"393 0 OFFCURVE",
"409 0 CURVE SMOOTH",
"486 0 LINE SMOOTH",
"506 0 OFFCURVE",
"516 10 OFFCURVE",
"516 29 CURVE SMOOTH",
"516 691 LINE SMOOTH",
"516 711 OFFCURVE",
"506 721 OFFCURVE",
"486 721 CURVE SMOOTH",
"408 721 LINE SMOOTH",
"389 721 OFFCURVE",
"379 711 OFFCURVE",
"379 691 CURVE SMOOTH",
"379 494 LINE SMOOTH",
"379 481 OFFCURVE",
"379 468 OFFCURVE",
"381 455 CURVE",
"379 455 LINE",
"362 483 OFFCURVE",
"343 501 OFFCURVE",
"322 510 CURVE SMOOTH",
"301 518 OFFCURVE",
"276 522 OFFCURVE",
"247 522 CURVE SMOOTH",
"170 522 OFFCURVE",
"117 496 OFFCURVE",
"85 443 CURVE SMOOTH",
"55 390 OFFCURVE",
"39 328 OFFCURVE",
"39 256 CURVE SMOOTH"
);
},
{
closed = 1;
nodes = (
"184 309 OFFCURVE",
"190 350 OFFCURVE",
"204 380 CURVE SMOOTH",
"217 411 OFFCURVE",
"246 427 OFFCURVE",
"290 427 CURVE SMOOTH",
"314 427 OFFCURVE",
"335 413 OFFCURVE",
"353 385 CURVE",
"370 358 OFFCURVE",
"379 322 OFFCURVE",
"379 278 CURVE SMOOTH",
"379 234 LINE SMOOTH",
"379 190 OFFCURVE",
"370 155 OFFCURVE",
"353 127 CURVE SMOOTH",
"335 100 OFFCURVE",
"314 86 OFFCURVE",
"290 86 CURVE SMOOTH",
"246 86 OFFCURVE",
"217 101 OFFCURVE",
"204 132 CURVE SMOOTH",
"190 163 OFFCURVE",
"184 204 OFFCURVE",
"184 256 CURVE SMOOTH"
);
}
);
width = 582;
}
);
unicode = 0064;
},
{
glyphname = e;
lastChange = "2016-09-03 11:05:29 +0000";
layers = (
{
anchors = (
{
name = mark0;
position = "{279, 0}";
},
{
name = mark1;
position = "{536, -195}";
},
{
name = mark2;
position = "{536, 721}";
},
{
name = mark3;
position = "{279, 0}";
},
{
name = mark4;
position = "{275, 521}";
}
);
layerId = UUID0;
paths = (
{
closed = 1;
nodes = (
"42 176 OFFCURVE",
"61 111 OFFCURVE",
"99 63 CURVE SMOOTH",
"138 16 OFFCURVE",
"198 -8 OFFCURVE",
"279 -8 CURVE SMOOTH",
"342 -8 OFFCURVE",
"388 2 OFFCURVE",
"417 23 CURVE SMOOTH",
"446 44 OFFCURVE",
"463 59 OFFCURVE",
"470 68 CURVE SMOOTH",
"477 80 OFFCURVE",
"477 89 OFFCURVE",
"470 95 CURVE SMOOTH",
"441 120 LINE SMOOTH",
"431 128 OFFCURVE",
"421 126 OFFCURVE",
"411 112 CURVE SMOOTH",
"401 100 OFFCURVE",
"386 87 OFFCURVE",
"366 75 CURVE SMOOTH",
"346 62 OFFCURVE",
"317 56 OFFCURVE",
"279 56 CURVE SMOOTH",
"244 56 OFFCURVE",
"211 68 OFFCURVE",
"183 92 CURVE SMOOTH",
"155 117 OFFCURVE",
"138 161 OFFCURVE",
"132 224 CURVE",
"473 224 LINE SMOOTH",
"486 224 OFFCURVE",
"493 231 OFFCURVE",
"493 246 CURVE SMOOTH",
"493 342 OFFCURVE",
"472 412 OFFCURVE",
"431 455 CURVE",
"390 499 OFFCURVE",
"338 521 OFFCURVE",
"275 521 CURVE SMOOTH",
"200 521 OFFCURVE",
"143 497 OFFCURVE",
"102 449 CURVE SMOOTH",
"62 401 OFFCURVE",
"42 337 OFFCURVE",
"42 256 CURVE SMOOTH"
);
},
{
closed = 1;
nodes = (
"130 287 LINE",
"135 351 OFFCURVE",
"151 396 OFFCURVE",
"177 420 CURVE SMOOTH",
"204 446 OFFCURVE",
"236 458 OFFCURVE",
"273 458 CURVE SMOOTH",
"316 458 OFFCURVE",
"349 441 OFFCURVE",
"371 407 CURVE SMOOTH",
"393 373 OFFCURVE",
"405 333 OFFCURVE",
"406 287 CURVE"
);
}
);
width = 536;
},
{
anchors = (
{
name = mark0;
position = "{298, 0}";
},
{
name = mark1;
position = "{298, 0}";
},
{
name = mark2;
position = "{275, 522}";
}
);
layerId = "A47C7914-817C-44A4-AF12-15F849B12484";
paths = (
{
closed = 1;
nodes = (
"39 174 OFFCURVE",
"59 109 OFFCURVE",
"99 62 CURVE SMOOTH",
"138 14 OFFCURVE",
"205 -10 OFFCURVE",
"298 -10 CURVE SMOOTH",
"356 -10 OFFCURVE",
"398 -4 OFFCURVE",
"425 8 CURVE SMOOTH",
"452 20 OFFCURVE",
"475 37 OFFCURVE",
"495 61 CURVE SMOOTH",
"508 77 OFFCURVE",
"505 91 OFFCURVE",
"486 103 CURVE SMOOTH",
"438 133 LINE SMOOTH",
"421 143 OFFCURVE",
"408 140 OFFCURVE",
"396 126 CURVE SMOOTH",
"387 114 OFFCURVE",
"375 104 OFFCURVE",
"360 97 CURVE SMOOTH",
"346 89 OFFCURVE",
"325 86 OFFCURVE",
"298 86 CURVE SMOOTH",
"270 86 OFFCURVE",
"245 93 OFFCURVE",
"224 107 CURVE SMOOTH",
"202 121 OFFCURVE",
"189 155 OFFCURVE",
"184 209 CURVE",
"506 209 LINE SMOOTH",
"524 209 OFFCURVE",
"533 219 OFFCURVE",
"533 238 CURVE SMOOTH",
"533 338 OFFCURVE",
"512 410 OFFCURVE",
"470 455 CURVE SMOOTH",
"427 500 OFFCURVE",
"363 522 OFFCURVE",
"275 522 CURVE SMOOTH",
"200 522 OFFCURVE",
"142 499 OFFCURVE",
"101 451 CURVE SMOOTH",
"60 404 OFFCURVE",
"39 339 OFFCURVE",
"39 256 CURVE SMOOTH"
);
},
{
closed = 1;
nodes = (
"184 307 LINE",
"188 381 OFFCURVE",
"225 426 OFFCURVE",
"286 426 CURVE SMOOTH",
"325 426 OFFCURVE",
"353 415 OFFCURVE",
"370 393 CURVE SMOOTH",
"388 371 OFFCURVE",
"396 342 OFFCURVE",
"396 307 CURVE"
);
}
);
width = 573;
}
);
unicode = 0065;
},
{
glyphname = f;
lastChange = "2016-09-03 11:05:29 +0000";
layers = (
{
anchors = (
{
name = mark0;
position = "{0, 0}";
},
{
name = mark1;
position = "{318, -195}";
},
{
name = mark2;
position = "{318, 721}";
},
{
name = mark3;
position = "{139, 0}";
},
{
name = mark4;
position = "{241, 721}";
}
);
layerId = UUID0;
paths = (
{
closed = 1;
nodes = (
"96 448 LINE",
"96 22 LINE SMOOTH",
"96 7 OFFCURVE",
"104 0 OFFCURVE",
"118 0 CURVE SMOOTH",
"160 0 LINE SMOOTH",
"175 0 OFFCURVE",
"182 7 OFFCURVE",
"182 22 CURVE SMOOTH",
"182 448 LINE",
"271 448 LINE SMOOTH",
"286 448 OFFCURVE",
"293 454 OFFCURVE",
"293 465 CURVE SMOOTH",
"293 496 LINE SMOOTH",
"293 507 OFFCURVE",
"286 513 OFFCURVE",
"271 513 CURVE SMOOTH",
"182 513 LINE",
"182 571 LINE SMOOTH",
"182 608 OFFCURVE",
"188 633 OFFCURVE",
"200 646 CURVE SMOOTH",
"212 659 OFFCURVE",
"231 666 OFFCURVE",
"258 666 CURVE SMOOTH",
"282 666 OFFCURVE",
"304 659 OFFCURVE",
"318 652 CURVE SMOOTH",
"327 648 OFFCURVE",
"333 650 OFFCURVE",
"335 656 CURVE SMOOTH",
"351 695 LINE SMOOTH",
"354 702 OFFCURVE",
"352 708 OFFCURVE",
"344 710 CURVE SMOOTH",
"325 718 OFFCURVE",
"309 723 OFFCURVE",
"295 726 CURVE SMOOTH",
"281 728 OFFCURVE",
"263 729 OFFCURVE",
"241 729 CURVE SMOOTH",
"203 729 OFFCURVE",
"169 719 OFFCURVE",
"140 698 CURVE SMOOTH",
"111 677 OFFCURVE",
"96 640 OFFCURVE",
"96 585 CURVE SMOOTH",
"96 513 LINE",
"44 513 LINE SMOOTH",
"29 513 OFFCURVE",
"22 507 OFFCURVE",
"22 496 CURVE SMOOTH",
"22 465 LINE SMOOTH",
"22 454 OFFCURVE",
"29 448 OFFCURVE",
"44 448 CURVE SMOOTH"
);
}
);
width = 318;
},
{
anchors = (
{
name = mark0;
position = "{0, 0}";
},
{
name = mark1;
position = "{145, 0}";
},
{
name = mark2;
position = "{250, 721}";
}
);
layerId = "A47C7914-817C-44A4-AF12-15F849B12484";
paths = (
{
closed = 1;
nodes = (
"77 415 LINE",
"77 29 LINE SMOOTH",
"77 10 OFFCURVE",
"86 0 OFFCURVE",
"106 0 CURVE SMOOTH",
"184 0 LINE SMOOTH",
"204 0 OFFCURVE",
"213 10 OFFCURVE",
"213 29 CURVE SMOOTH",
"213 415 LINE",
"278 415 LINE SMOOTH",
"297 415 OFFCURVE",
"307 423 OFFCURVE",
"307 439 CURVE SMOOTH",
"307 488 LINE SMOOTH",
"307 504 OFFCURVE",
"297 513 OFFCURVE",
"278 513 CURVE SMOOTH",
"213 513 LINE",
"213 532 LINE SMOOTH",
"213 567 OFFCURVE",
"216 593 OFFCURVE",
"222 610 CURVE SMOOTH",
"227 626 OFFCURVE",
"242 635 OFFCURVE",
"266 635 CURVE SMOOTH",
"273 635 OFFCURVE",
"283 634 OFFCURVE",
"296 633 CURVE",
"309 632 OFFCURVE",
"319 630 OFFCURVE",
"326 627 CURVE SMOOTH",
"338 623 OFFCURVE",
"346 626 OFFCURVE",
"349 637 CURVE SMOOTH",
"363 692 LINE SMOOTH",
"367 705 OFFCURVE",
"362 713 OFFCURVE",
"351 717 CURVE SMOOTH",
"326 725 OFFCURVE",
"295 730 OFFCURVE",
"250 730 CURVE SMOOTH",
"203 730 OFFCURVE",
"162 721 OFFCURVE",
"128 701 CURVE SMOOTH",
"94 681 OFFCURVE",
"77 641 OFFCURVE",
"77 581 CURVE SMOOTH",
"77 513 LINE",
"49 513 LINE SMOOTH",
"30 513 OFFCURVE",
"21 504 OFFCURVE",
"21 488 CURVE SMOOTH",
"21 439 LINE SMOOTH",
"21 423 OFFCURVE",
"30 415 OFFCURVE",
"49 415 CURVE SMOOTH"
);
}
);
width = 333;
}
);
unicode = 0066;
},
{
glyphname = g;
lastChange = "2016-09-03 11:05:29 +0000";
layers = (
{
anchors = (
{
name = mark0;
position = "{0, 0}";
},
{
name = mark1;
position = "{546, -195}";
},
{
name = mark2;
position = "{546, 721}";
},
{
name = mark3;
position = "{263, -195}";
},
{
name = mark4;
position = "{259, 521}";
}
);
layerId = UUID0;
paths = (
{
closed = 1;
nodes = (
"42 187 OFFCURVE",
"59 125 OFFCURVE",
"92 71 CURVE SMOOTH",
"126 18 OFFCURVE",
"176 -8 OFFCURVE",
"241 -8 CURVE SMOOTH",
"278 -8 OFFCURVE",
"308 -2 OFFCURVE",
"331 11 CURVE SMOOTH",
"354 24 OFFCURVE",
"374 42 OFFCURVE",
"391 64 CURVE",
"392 64 LINE",
"392 55 OFFCURVE",
"391 45 OFFCURVE",
"391 35 CURVE SMOOTH",
"391 5 LINE SMOOTH",
"391 -54 OFFCURVE",
"381 -93 OFFCURVE",
"360 -112 CURVE SMOOTH",
"340 -131 OFFCURVE",
"308 -140 OFFCURVE",
"264 -140 CURVE SMOOTH",
"225 -140 OFFCURVE",
"197 -137 OFFCURVE",
"181 -130 CURVE SMOOTH",
"165 -124 OFFCURVE",
"148 -112 OFFCURVE",
"131 -97 CURVE SMOOTH",
"118 -85 OFFCURVE",
"107 -83 OFFCURVE",
"100 -90 CURVE SMOOTH",
"73 -116 LINE SMOOTH",
"65 -124 OFFCURVE",
"66 -133 OFFCURVE",
"75 -144 CURVE SMOOTH",
"87 -158 OFFCURVE",
"107 -171 OFFCURVE",
"135 -184 CURVE SMOOTH",
"164 -197 OFFCURVE",
"206 -204 OFFCURVE",
"263 -204 CURVE SMOOTH",
"348 -204 OFFCURVE",
"405 -186 OFFCURVE",
"434 -150 CURVE SMOOTH",
"462 -115 OFFCURVE",
"477 -66 OFFCURVE",
"477 -4 CURVE SMOOTH",
"477 491 LINE SMOOTH",
"477 505 OFFCURVE",
"470 513 OFFCURVE",
"455 513 CURVE SMOOTH",
"414 513 LINE SMOOTH",
"402 513 OFFCURVE",
"396 505 OFFCURVE",
"395 491 CURVE SMOOTH",
"392 452 LINE",
"391 452 LINE",
"373 473 OFFCURVE",
"353 490 OFFCURVE",
"331 502 CURVE SMOOTH",
"308 515 OFFCURVE",
"278 521 OFFCURVE",
"241 521 CURVE SMOOTH",
"176 521 OFFCURVE",
"126 494 OFFCURVE",
"92 441 CURVE SMOOTH",
"59 388 OFFCURVE",
"42 326 OFFCURVE",
"42 256 CURVE SMOOTH"
);
},
{
closed = 1;
nodes = (
"132 316 OFFCURVE",
"143 365 OFFCURVE",
"163 402 CURVE SMOOTH",
"184 439 OFFCURVE",
"219 458 OFFCURVE",
"269 458 CURVE SMOOTH",
"304 458 OFFCURVE",
"333 445 OFFCURVE",
"356 421 CURVE SMOOTH",
"379 397 OFFCURVE",
"391 361 OFFCURVE",
"391 313 CURVE SMOOTH",
"391 200 LINE SMOOTH",
"391 151 OFFCURVE",
"379 115 OFFCURVE",
"356 91 CURVE SMOOTH",
"333 67 OFFCURVE",
"304 55 OFFCURVE",
"269 55 CURVE SMOOTH",
"219 55 OFFCURVE",
"184 74 OFFCURVE",
"163 111 CURVE SMOOTH",
"143 148 OFFCURVE",
"132 196 OFFCURVE",
"132 256 CURVE SMOOTH"
);
}
);
width = 546;
},
{
anchors = (
{
name = mark0;
position = "{0, 0}";
},
{
name = mark1;
position = "{265, -195}";
},
{
name = mark2;
position = "{277, 522}";
}
);
layerId = "A47C7914-817C-44A4-AF12-15F849B12484";
paths = (
{
closed = 1;
nodes = (
"39 188 OFFCURVE",
"55 127 OFFCURVE",
"85 74 CURVE",
"117 21 OFFCURVE",
"170 -5 OFFCURVE",
"247 -5 CURVE SMOOTH",
"276 -5 OFFCURVE",
"301 0 OFFCURVE",
"322 8 CURVE SMOOTH",
"343 16 OFFCURVE",
"362 35 OFFCURVE",
"379 63 CURVE",
"381 63 LINE",
"379 49 OFFCURVE",
"379 37 OFFCURVE",
"379 23 CURVE SMOOTH",
"379 15 LINE SMOOTH",
"379 -37 OFFCURVE",
"368 -71 OFFCURVE",
"346 -86 CURVE SMOOTH",
"324 -102 OFFCURVE",
"292 -109 OFFCURVE",
"250 -109 CURVE SMOOTH",
"189 -109 OFFCURVE",
"152 -98 OFFCURVE",
"125 -85 CURVE SMOOTH",
"109 -78 OFFCURVE",
"97 -81 OFFCURVE",
"90 -95 CURVE SMOOTH",
"72 -130 LINE SMOOTH",
"62 -151 OFFCURVE",
"64 -166 OFFCURVE",
"80 -173 CURVE SMOOTH",
"110 -187 OFFCURVE",
"140 -196 OFFCURVE",
"169 -200 CURVE SMOOTH",
"198 -203 OFFCURVE",
"230 -205 OFFCURVE",
"265 -205 CURVE SMOOTH",
"346 -205 OFFCURVE",
"408 -190 OFFCURVE",
"451 -160 CURVE SMOOTH",
"494 -129 OFFCURVE",
"516 -74 OFFCURVE",
"516 5 CURVE SMOOTH",
"516 483 LINE SMOOTH",
"516 503 OFFCURVE",
"506 513 OFFCURVE",
"486 513 CURVE SMOOTH",
"409 513 LINE SMOOTH",
"393 513 OFFCURVE",
"384 503 OFFCURVE",
"383 483 CURVE SMOOTH",
"381 455 LINE",
"379 455 LINE",
"362 483 OFFCURVE",
"343 501 OFFCURVE",
"322 510 CURVE SMOOTH",
"301 518 OFFCURVE",
"276 522 OFFCURVE",
"247 522 CURVE SMOOTH",
"170 522 OFFCURVE",
"117 496 OFFCURVE",
"85 443 CURVE SMOOTH",
"55 390 OFFCURVE",
"39 328 OFFCURVE",
"39 256 CURVE SMOOTH"
);
},
{
closed = 1;
nodes = (
"184 309 OFFCURVE",
"190 350 OFFCURVE",
"204 380 CURVE SMOOTH",
"217 411 OFFCURVE",
"246 427 OFFCURVE",
"290 427 CURVE SMOOTH",
"314 427 OFFCURVE",
"335 413 OFFCURVE",
"353 385 CURVE",
"370 358 OFFCURVE",
"379 322 OFFCURVE",
"379 278 CURVE SMOOTH",
"379 239 LINE SMOOTH",
"379 195 OFFCURVE",
"370 160 OFFCURVE",
"353 132 CURVE SMOOTH",
"335 104 OFFCURVE",
"314 91 OFFCURVE",
"290 91 CURVE SMOOTH",
"246 91 OFFCURVE",
"217 106 OFFCURVE",
"204 137 CURVE SMOOTH",
"190 167 OFFCURVE",
"184 208 OFFCURVE",
"184 256 CURVE SMOOTH"
);
}
);
width = 582;
}
);
unicode = 0067;
},
{
glyphname = h;
lastChange = "2016-09-03 11:05:29 +0000";
layers = (
{
anchors = (
{
name = mark0;
position = "{0, 0}";
},
{
name = mark1;
position = "{551, -195}";
},
{
name = mark2;
position = "{551, 721}";
},
{
name = mark3;
position = "{276, 0}";
},
{
name = mark4;
position = "{276, 721}";
}
);
layerId = UUID0;
paths = (
{
closed = 1;
nodes = (
"133 0 LINE SMOOTH",
"148 0 OFFCURVE",
"155 7 OFFCURVE",
"155 22 CURVE SMOOTH",
"155 290 LINE SMOOTH",
"155 351 OFFCURVE",
"166 395 OFFCURVE",
"188 419 CURVE SMOOTH",
"210 445 OFFCURVE",
"242 458 OFFCURVE",
"284 458 CURVE SMOOTH",
"317 458 OFFCURVE",
"344 449 OFFCURVE",
"365 432 CURVE SMOOTH",
"386 415 OFFCURVE",
"396 375 OFFCURVE",
"396 311 CURVE SMOOTH",
"396 22 LINE SMOOTH",
"396 7 OFFCURVE",
"404 0 OFFCURVE",
"418 0 CURVE SMOOTH",
"460 0 LINE SMOOTH",
"475 0 OFFCURVE",
"482 7 OFFCURVE",
"482 22 CURVE SMOOTH",
"482 334 LINE SMOOTH",
"482 392 OFFCURVE",
"469 438 OFFCURVE",
"443 471 CURVE SMOOTH",
"417 504 OFFCURVE",
"375 521 OFFCURVE",
"316 521 CURVE SMOOTH",
"279 521 OFFCURVE",
"249 515 OFFCURVE",
"225 504 CURVE SMOOTH",
"200 493 OFFCURVE",
"177 475 OFFCURVE",
"156 452 CURVE",
"154 452 LINE",
"155 461 OFFCURVE",
"155 471 OFFCURVE",
"155 481 CURVE SMOOTH",
"155 699 LINE SMOOTH",
"155 713 OFFCURVE",
"148 721 OFFCURVE",
"133 721 CURVE SMOOTH",
"91 721 LINE SMOOTH",
"77 721 OFFCURVE",
"69 713 OFFCURVE",
"69 699 CURVE SMOOTH",
"69 22 LINE SMOOTH",
"69 7 OFFCURVE",
"77 0 OFFCURVE",
"91 0 CURVE SMOOTH"
);
}
);
width = 551;
},
{
anchors = (
{
name = mark0;
position = "{0, 0}";
},
{
name = mark1;
position = "{293, 0}";
},
{
name = mark2;
position = "{293, 721}";
}
);
layerId = "A47C7914-817C-44A4-AF12-15F849B12484";
paths = (
{
closed = 1;
nodes = (
"174 0 LINE SMOOTH",
"193 0 OFFCURVE",
"203 10 OFFCURVE",
"203 29 CURVE SMOOTH",
"203 222 LINE SMOOTH",
"203 305 OFFCURVE",
"212 360 OFFCURVE",
"229 387 CURVE SMOOTH",
"246 414 OFFCURVE",
"272 427 OFFCURVE",
"306 427 CURVE SMOOTH",
"338 427 OFFCURVE",
"359 417 OFFCURVE",
"369 399 CURVE SMOOTH",
"379 380 OFFCURVE",
"384 335 OFFCURVE",
"384 265 CURVE SMOOTH",
"384 29 LINE SMOOTH",
"384 10 OFFCURVE",
"394 0 OFFCURVE",
"413 0 CURVE SMOOTH",
"491 0 LINE SMOOTH",
"511 0 OFFCURVE",
"521 10 OFFCURVE",
"521 29 CURVE SMOOTH",
"521 300 LINE SMOOTH",
"521 384 OFFCURVE",
"504 443 OFFCURVE",
"471 475 CURVE SMOOTH",
"438 506 OFFCURVE",
"396 522 OFFCURVE",
"345 522 CURVE SMOOTH",
"280 522 OFFCURVE",
"234 506 OFFCURVE",
"204 455 CURVE",
"201 455 LINE",
"203 468 OFFCURVE",
"203 481 OFFCURVE",
"203 494 CURVE SMOOTH",
"203 691 LINE SMOOTH",
"203 711 OFFCURVE",
"193 721 OFFCURVE",
"174 721 CURVE SMOOTH",
"96 721 LINE SMOOTH",
"76 721 OFFCURVE",
"66 711 OFFCURVE",
"66 691 CURVE SMOOTH",
"66 29 LINE SMOOTH",
"66 10 OFFCURVE",
"76 0 OFFCURVE",
"96 0 CURVE SMOOTH"
);
}
);
width = 586;
}
);
unicode = 0068;
},
{
glyphname = k;
lastChange = "2016-09-03 11:05:29 +0000";
layers = (
{
anchors = (
{
name = mark0;
position = "{0, 0}";
},
{
name = mark1;
position = "{490, -195}";
},
{
name = mark2;
position = "{490, 721}";
},
{
name = mark3;
position = "{267, 0}";
},
{
name = mark4;
position = "{267, 721}";
}
);
layerId = UUID0;
paths = (
{
closed = 1;
nodes = (
"133 0 LINE SMOOTH",
"148 0 OFFCURVE",
"155 7 OFFCURVE",
"155 22 CURVE SMOOTH",
"155 149 LINE",
"229 237 LINE",
"370 18 LINE SMOOTH",
"377 6 OFFCURVE",
"387 0 OFFCURVE",
"397 0 CURVE SMOOTH",
"445 0 LINE SMOOTH",
"466 0 OFFCURVE",
"470 10 OFFCURVE",
"458 29 CURVE SMOOTH",
"283 301 LINE",
"436 484 LINE SMOOTH",
"452 503 OFFCURVE",
"448 513 OFFCURVE",
"423 513 CURVE SMOOTH",
"379 513 LINE SMOOTH",
"369 513 OFFCURVE",
"360 508 OFFCURVE",
"353 500 CURVE SMOOTH",
"155 263 LINE",
"154 263 LINE",
"155 273 OFFCURVE",
"155 283 OFFCURVE",
"155 292 CURVE SMOOTH",
"155 699 LINE SMOOTH",
"155 713 OFFCURVE",
"148 721 OFFCURVE",
"133 721 CURVE SMOOTH",
"91 721 LINE SMOOTH",
"77 721 OFFCURVE",
"69 713 OFFCURVE",
"69 699 CURVE SMOOTH",
"69 22 LINE SMOOTH",
"69 7 OFFCURVE",
"77 0 OFFCURVE",
"91 0 CURVE SMOOTH"
);
}
);
width = 490;
},
{
anchors = (
{
name = mark0;
position = "{0, 0}";
},
{
name = mark1;
position = "{295, 0}";
},
{
name = mark2;
position = "{295, 721}";
}
);
layerId = "A47C7914-817C-44A4-AF12-15F849B12484";
paths = (
{
closed = 1;
nodes = (
"174 0 LINE SMOOTH",
"193 0 OFFCURVE",
"203 10 OFFCURVE",
"203 29 CURVE SMOOTH",
"203 129 LINE",
"265 204 LINE",
"376 25 LINE SMOOTH",
"386 8 OFFCURVE",
"400 0 OFFCURVE",
"416 0 CURVE SMOOTH",
"500 0 LINE SMOOTH",
"525 0 OFFCURVE",
"530 12 OFFCURVE",
"515 36 CURVE SMOOTH",
"344 298 LINE",
"491 477 LINE SMOOTH",
"511 500 OFFCURVE",
"506 513 OFFCURVE",
"476 513 CURVE SMOOTH",
"396 513 LINE SMOOTH",
"381 513 OFFCURVE",
"368 506 OFFCURVE",
"358 493 CURVE SMOOTH",
"203 293 LINE",
"201 293 LINE",
"203 307 OFFCURVE",
"203 319 OFFCURVE",
"203 333 CURVE SMOOTH",
"203 691 LINE SMOOTH",
"203 711 OFFCURVE",
"193 721 OFFCURVE",
"174 721 CURVE SMOOTH",
"96 721 LINE SMOOTH",
"76 721 OFFCURVE",
"66 711 OFFCURVE",
"66 691 CURVE SMOOTH",
"66 29 LINE SMOOTH",
"66 10 OFFCURVE",
"76 0 OFFCURVE",
"96 0 CURVE SMOOTH"
);
}
);
width = 544;
}
);
unicode = 006B;
},
{
glyphname = l;
lastChange = "2016-09-03 11:05:29 +0000";
layers = (
{
anchors = (
{
name = mark0;
position = "{0, 0}";
},
{
name = mark1;
position = "{225, -195}";
},
{
name = mark2;
position = "{225, 721}";
},
{
name = mark3;
position = "{112, 0}";
},
{
name = mark4;
position = "{112, 721}";
}
);
layerId = UUID0;
paths = (
{
closed = 1;
nodes = (
"133 0 LINE SMOOTH",
"148 0 OFFCURVE",
"155 7 OFFCURVE",
"155 22 CURVE SMOOTH",
"155 712 LINE SMOOTH",
"155 723 OFFCURVE",
"150 729 OFFCURVE",
"141 729 CURVE SMOOTH",
"124 729 LINE SMOOTH",
"120 729 OFFCURVE",
"115 723 OFFCURVE",
"108 712 CURVE SMOOTH",
"74 650 LINE SMOOTH",
"71 644 OFFCURVE",
"69 638 OFFCURVE",
"69 631 CURVE SMOOTH",
"69 22 LINE SMOOTH",
"69 7 OFFCURVE",
"77 0 OFFCURVE",
"91 0 CURVE SMOOTH"
);
}
);
width = 225;
},
{
anchors = (
{
name = mark0;
position = "{0, 0}";
},
{
name = mark1;
position = "{135, 0}";
},
{
name = mark2;
position = "{135, 721}";
}
);
layerId = "A47C7914-817C-44A4-AF12-15F849B12484";
paths = (
{
closed = 1;
nodes = (
"174 0 LINE SMOOTH",
"193 0 OFFCURVE",
"203 10 OFFCURVE",
"203 29 CURVE SMOOTH",
"203 701 LINE SMOOTH",
"203 721 OFFCURVE",
"193 730 OFFCURVE",
"174 730 CURVE SMOOTH",
"140 730 LINE SMOOTH",
"130 730 OFFCURVE",
"122 724 OFFCURVE",
"114 712 CURVE SMOOTH",
"77 646 LINE SMOOTH",
"70 634 OFFCURVE",
"66 621 OFFCURVE",
"66 606 CURVE SMOOTH",
"66 29 LINE SMOOTH",
"66 10 OFFCURVE",
"76 0 OFFCURVE",
"96 0 CURVE SMOOTH"
);
}
);
width = 270;
}
);
unicode = 006C;
},
{
glyphname = m;
lastChange = "2016-09-03 11:05:29 +0000";
layers = (
{
anchors = (
{
name = mark0;
position = "{0, 0}";
},
{
name = mark1;
position = "{819, -195}";
},
{
name = mark2;
position = "{819, 721}";
},
{
name = mark3;
position = "{410, 0}";
},
{
name = mark4;
position = "{410, 521}";
}
);
layerId = UUID0;
paths = (
{
closed = 1;
nodes = (
"133 0 LINE SMOOTH",
"148 0 OFFCURVE",
"155 7 OFFCURVE",
"155 22 CURVE SMOOTH",
"155 290 LINE SMOOTH",
"155 351 OFFCURVE",
"166 395 OFFCURVE",
"188 419 CURVE SMOOTH",
"210 445 OFFCURVE",
"237 458 OFFCURVE",
"270 458 CURVE SMOOTH",
"303 458 OFFCURVE",
"327 448 OFFCURVE",
"343 429 CURVE SMOOTH",
"359 411 OFFCURVE",
"367 370 OFFCURVE",
"367 306 CURVE SMOOTH",
"367 22 LINE SMOOTH",
"367 7 OFFCURVE",
"375 0 OFFCURVE",
"389 0 CURVE SMOOTH",
"431 0 LINE SMOOTH",
"446 0 OFFCURVE",
"453 7 OFFCURVE",
"453 22 CURVE SMOOTH",
"453 290 LINE SMOOTH",
"453 346 OFFCURVE",
"464 388 OFFCURVE",
"486 416 CURVE SMOOTH",
"508 443 OFFCURVE",
"535 458 OFFCURVE",
"567 458 CURVE SMOOTH",
"601 458 OFFCURVE",
"625 448 OFFCURVE",
"641 429 CURVE SMOOTH",
"657 411 OFFCURVE",
"665 370 OFFCURVE",
"665 306 CURVE SMOOTH",
"665 22 LINE SMOOTH",
"665 7 OFFCURVE",
"672 0 OFFCURVE",
"687 0 CURVE SMOOTH",
"729 0 LINE SMOOTH",
"744 0 OFFCURVE",
"751 7 OFFCURVE",
"751 22 CURVE SMOOTH",
"751 334 LINE SMOOTH",
"751 392 OFFCURVE",
"738 438 OFFCURVE",
"711 471 CURVE SMOOTH",
"685 504 OFFCURVE",
"646 521 OFFCURVE",
"594 521 CURVE SMOOTH",
"563 521 OFFCURVE",
"534 512 OFFCURVE",
"507 494 CURVE SMOOTH",
"479 476 OFFCURVE",
"457 453 OFFCURVE",
"439 426 CURVE",
"437 426 LINE",
"431 447 OFFCURVE",
"416 468 OFFCURVE",
"393 489 CURVE SMOOTH",
"371 510 OFFCURVE",
"338 521 OFFCURVE",
"296 521 CURVE SMOOTH",
"251 521 OFFCURVE",
"199 499 OFFCURVE",
"156 452 CURVE",
"154 452 LINE",
"154 491 LINE SMOOTH",
"154 505 OFFCURVE",
"147 513 OFFCURVE",
"132 513 CURVE SMOOTH",
"91 513 LINE SMOOTH",
"77 513 OFFCURVE",
"69 505 OFFCURVE",
"69 491 CURVE SMOOTH",
"69 22 LINE SMOOTH",
"69 7 OFFCURVE",
"77 0 OFFCURVE",
"91 0 CURVE SMOOTH"
);
}
);
width = 819;
},
{
anchors = (
{
name = mark0;
position = "{0, 0}";
},
{
name = mark1;
position = "{428, 0}";
},
{
name = mark2;
position = "{428, 522}";
}
);
layerId = "A47C7914-817C-44A4-AF12-15F849B12484";
paths = (
{
closed = 1;
nodes = (
"174 0 LINE SMOOTH",
"193 0 OFFCURVE",
"203 10 OFFCURVE",
"203 29 CURVE SMOOTH",
"203 222 LINE SMOOTH",
"203 305 OFFCURVE",
"212 360 OFFCURVE",
"231 387 CURVE SMOOTH",
"250 414 OFFCURVE",
"271 427 OFFCURVE",
"294 427 CURVE SMOOTH",
"318 427 OFFCURVE",
"335 417 OFFCURVE",
"345 399 CURVE SMOOTH",
"354 380 OFFCURVE",
"359 335 OFFCURVE",
"359 265 CURVE SMOOTH",
"359 29 LINE SMOOTH",
"359 10 OFFCURVE",
"369 0 OFFCURVE",
"389 0 CURVE SMOOTH",
"467 0 LINE SMOOTH",
"486 0 OFFCURVE",
"496 10 OFFCURVE",
"496 29 CURVE SMOOTH",
"496 222 LINE SMOOTH",
"496 305 OFFCURVE",
"505 360 OFFCURVE",
"524 387 CURVE SMOOTH",
"543 414 OFFCURVE",
"564 427 OFFCURVE",
"587 427 CURVE SMOOTH",
"611 427 OFFCURVE",
"628 417 OFFCURVE",
"638 399 CURVE SMOOTH",
"647 380 OFFCURVE",
"652 335 OFFCURVE",
"652 265 CURVE SMOOTH",
"652 29 LINE SMOOTH",
"652 10 OFFCURVE",
"662 0 OFFCURVE",
"682 0 CURVE SMOOTH",
"760 0 LINE SMOOTH",
"779 0 OFFCURVE",
"789 10 OFFCURVE",
"789 29 CURVE SMOOTH",
"789 300 LINE SMOOTH",
"789 384 OFFCURVE",
"772 443 OFFCURVE",
"739 475 CURVE SMOOTH",
"707 506 OFFCURVE",
"666 522 OFFCURVE",
"618 522 CURVE SMOOTH",
"582 522 OFFCURVE",
"552 517 OFFCURVE",
"529 506 CURVE SMOOTH",
"506 495 OFFCURVE",
"481 471 OFFCURVE",
"453 434 CURVE",
"451 434 LINE",
"442 457 OFFCURVE",
"428 477 OFFCURVE",
"406 495 CURVE SMOOTH",
"384 513 OFFCURVE",
"354 522 OFFCURVE",
"315 522 CURVE SMOOTH",
"295 522 OFFCURVE",
"274 517 OFFCURVE",
"252 504 CURVE SMOOTH",
"229 492 OFFCURVE",
"213 476 OFFCURVE",
"204 455 CURVE",
"202 455 LINE",
"202 483 LINE SMOOTH",
"202 503 OFFCURVE",
"192 513 OFFCURVE",
"173 513 CURVE SMOOTH",
"96 513 LINE SMOOTH",
"76 513 OFFCURVE",
"66 503 OFFCURVE",
"66 483 CURVE SMOOTH",
"66 29 LINE SMOOTH",
"66 10 OFFCURVE",
"76 0 OFFCURVE",
"96 0 CURVE SMOOTH"
);
}
);
width = 854;
}
);
unicode = 006D;
},
{
glyphname = n;
lastChange = "2016-09-03 11:05:29 +0000";
layers = (
{
anchors = (
{
name = mark0;
position = "{0, 0}";
},
{
name = mark1;
position = "{551, -195}";
},
{
name = mark2;
position = "{551, 721}";
},
{
name = mark3;
position = "{276, 0}";
},
{
name = mark4;
position = "{276, 521}";
}
);
layerId = UUID0;
paths = (
{
closed = 1;
nodes = (
"133 0 LINE SMOOTH",
"148 0 OFFCURVE",
"155 7 OFFCURVE",
"155 22 CURVE SMOOTH",
"155 290 LINE SMOOTH",
"155 351 OFFCURVE",
"166 395 OFFCURVE",
"188 419 CURVE SMOOTH",
"210 445 OFFCURVE",
"242 458 OFFCURVE",
"284 458 CURVE SMOOTH",
"317 458 OFFCURVE",
"344 449 OFFCURVE",
"365 432 CURVE SMOOTH",
"386 415 OFFCURVE",
"396 375 OFFCURVE",
"396 311 CURVE SMOOTH",
"396 22 LINE SMOOTH",
"396 7 OFFCURVE",
"404 0 OFFCURVE",
"418 0 CURVE SMOOTH",
"460 0 LINE SMOOTH",
"475 0 OFFCURVE",
"482 7 OFFCURVE",
"482 22 CURVE SMOOTH",
"482 334 LINE SMOOTH",
"482 392 OFFCURVE",
"469 438 OFFCURVE",
"443 471 CURVE SMOOTH",
"417 504 OFFCURVE",
"375 521 OFFCURVE",
"316 521 CURVE SMOOTH",
"279 521 OFFCURVE",
"249 515 OFFCURVE",
"225 504 CURVE SMOOTH",
"200 493 OFFCURVE",
"177 475 OFFCURVE",
"156 452 CURVE",
"154 452 LINE",
"154 491 LINE SMOOTH",
"154 505 OFFCURVE",
"147 513 OFFCURVE",
"132 513 CURVE SMOOTH",
"91 513 LINE SMOOTH",
"77 513 OFFCURVE",
"69 505 OFFCURVE",
"69 491 CURVE SMOOTH",
"69 22 LINE SMOOTH",
"69 7 OFFCURVE",
"77 0 OFFCURVE",
"91 0 CURVE SMOOTH"
);
}
);
width = 551;
},
{
anchors = (
{
name = mark0;
position = "{0, 0}";
},
{
name = mark1;
position = "{293, 0}";
},
{
name = mark2;
position = "{293, 522}";
}
);
layerId = "A47C7914-817C-44A4-AF12-15F849B12484";
paths = (
{
closed = 1;
nodes = (
"174 0 LINE SMOOTH",
"193 0 OFFCURVE",
"203 10 OFFCURVE",
"203 29 CURVE SMOOTH",
"203 222 LINE SMOOTH",
"203 305 OFFCURVE",
"212 360 OFFCURVE",
"229 387 CURVE SMOOTH",
"246 414 OFFCURVE",
"272 427 OFFCURVE",
"306 427 CURVE SMOOTH",
"338 427 OFFCURVE",
"359 417 OFFCURVE",
"369 399 CURVE SMOOTH",
"379 380 OFFCURVE",
"384 335 OFFCURVE",
"384 265 CURVE SMOOTH",
"384 29 LINE SMOOTH",
"384 10 OFFCURVE",
"394 0 OFFCURVE",
"413 0 CURVE SMOOTH",
"491 0 LINE SMOOTH",
"511 0 OFFCURVE",
"521 10 OFFCURVE",
"521 29 CURVE SMOOTH",
"521 300 LINE SMOOTH",
"521 384 OFFCURVE",
"504 443 OFFCURVE",
"471 475 CURVE SMOOTH",
"438 506 OFFCURVE",
"396 522 OFFCURVE",
"345 522 CURVE SMOOTH",
"280 522 OFFCURVE",
"234 506 OFFCURVE",
"204 455 CURVE",
"202 455 LINE",
"202 483 LINE SMOOTH",
"202 503 OFFCURVE",
"192 513 OFFCURVE",
"173 513 CURVE SMOOTH",
"96 513 LINE SMOOTH",
"76 513 OFFCURVE",
"66 503 OFFCURVE",
"66 483 CURVE SMOOTH",
"66 29 LINE SMOOTH",
"66 10 OFFCURVE",
"76 0 OFFCURVE",
"96 0 CURVE SMOOTH"
);
}
);
width = 586;
}
);
unicode = 006E;
},
{
glyphname = o;
lastChange = "2016-09-03 11:05:29 +0000";
layers = (
{
anchors = (
{
name = mark0;
position = "{280, 0}";
},
{
name = mark1;
position = "{561, -195}";
},
{
name = mark2;
position = "{561, 721}";
},
{
name = mark3;
position = "{280, 0}";
},
{
name = mark4;
position = "{280, 521}";
}
);
layerId = UUID0;
paths = (
{
closed = 1;
nodes = (
"42 180 OFFCURVE",
"62 117 OFFCURVE",
"102 66 CURVE SMOOTH",
"143 17 OFFCURVE",
"202 -8 OFFCURVE",
"280 -8 CURVE SMOOTH",
"358 -8 OFFCURVE",
"417 17 OFFCURVE",
"458 66 CURVE SMOOTH",
"499 117 OFFCURVE",
"519 180 OFFCURVE",
"519 256 CURVE SMOOTH",
"519 333 OFFCURVE",
"499 396 OFFCURVE",
"458 446 CURVE SMOOTH",
"417 496 OFFCURVE",
"358 521 OFFCURVE",
"280 521 CURVE SMOOTH",
"202 521 OFFCURVE",
"143 496 OFFCURVE",
"102 446 CURVE SMOOTH",
"62 396 OFFCURVE",
"42 333 OFFCURVE",
"42 256 CURVE SMOOTH"
);
},
{
closed = 1;
nodes = (
"132 325 OFFCURVE",
"146 375 OFFCURVE",
"173 408 CURVE SMOOTH",
"200 441 OFFCURVE",
"236 458 OFFCURVE",
"280 458 CURVE SMOOTH",
"325 458 OFFCURVE",
"361 441 OFFCURVE",
"388 408 CURVE SMOOTH",
"415 375 OFFCURVE",
"428 325 OFFCURVE",
"428 256 CURVE SMOOTH",
"428 188 OFFCURVE",
"415 137 OFFCURVE",
"388 104 CURVE SMOOTH",
"361 72 OFFCURVE",
"325 55 OFFCURVE",
"280 55 CURVE SMOOTH",
"236 55 OFFCURVE",
"200 72 OFFCURVE",
"173 104 CURVE SMOOTH",
"146 137 OFFCURVE",
"132 188 OFFCURVE",
"132 256 CURVE SMOOTH"
);
}
);
width = 561;
},
{
anchors = (
{
name = mark0;
position = "{294, 0}";
},
{
name = mark1;
position = "{294, 0}";
},
{
name = mark2;
position = "{294, 522}";
}
);
layerId = "A47C7914-817C-44A4-AF12-15F849B12484";
paths = (
{
closed = 1;
nodes = (
"39 173 OFFCURVE",
"61 108 OFFCURVE",
"103 61 CURVE SMOOTH",
"146 14 OFFCURVE",
"210 -10 OFFCURVE",
"294 -10 CURVE SMOOTH",
"379 -10 OFFCURVE",
"443 14 OFFCURVE",
"485 61 CURVE SMOOTH",
"528 108 OFFCURVE",
"550 173 OFFCURVE",
"550 256 CURVE SMOOTH",
"550 339 OFFCURVE",
"528 404 OFFCURVE",
"485 452 CURVE SMOOTH",
"443 499 OFFCURVE",
"379 522 OFFCURVE",
"294 522 CURVE SMOOTH",
"210 522 OFFCURVE",
"146 499 OFFCURVE",
"103 452 CURVE SMOOTH",
"61 404 OFFCURVE",
"39 339 OFFCURVE",
"39 256 CURVE SMOOTH"
);
},
{
closed = 1;
nodes = (
"184 318 OFFCURVE",
"193 362 OFFCURVE",
"212 388 CURVE SMOOTH",
"231 414 OFFCURVE",
"259 427 OFFCURVE",
"294 427 CURVE SMOOTH",
"330 427 OFFCURVE",
"357 414 OFFCURVE",
"376 388 CURVE SMOOTH",
"396 362 OFFCURVE",
"405 318 OFFCURVE",
"405 256 CURVE SMOOTH",
"405 194 OFFCURVE",
"396 150 OFFCURVE",
"376 125 CURVE SMOOTH",
"357 99 OFFCURVE",
"330 86 OFFCURVE",
"294 86 CURVE SMOOTH",
"259 86 OFFCURVE",
"231 99 OFFCURVE",
"212 125 CURVE SMOOTH",
"193 150 OFFCURVE",
"184 194 OFFCURVE",
"184 256 CURVE SMOOTH"
);
}
);
width = 589;
}
);
unicode = 006F;
},
{
glyphname = p;
lastChange = "2016-09-03 11:05:29 +0000";
layers = (
{
anchors = (
{
name = mark0;
position = "{0, 0}";
},
{
name = mark1;
position = "{546, -195}";
},
{
name = mark2;
position = "{546, 721}";
},
{
name = mark3;
position = "{287, -195}";
},
{
name = mark4;
position = "{287, 521}";
}
);
layerId = UUID0;
paths = (
{
closed = 1;
nodes = (
"133 -195 LINE",
"148 -195 OFFCURVE",
"155 -188 OFFCURVE",
"155 -173 CURVE SMOOTH",
"155 31 LINE SMOOTH",
"155 42 OFFCURVE",
"155 51 OFFCURVE",
"154 61 CURVE",
"155 61 LINE",
"173 40 OFFCURVE",
"193 22 OFFCURVE",
"216 10 CURVE SMOOTH",
"238 -2 OFFCURVE",
"268 -8 OFFCURVE",
"306 -8 CURVE SMOOTH",
"371 -8 OFFCURVE",
"420 18 OFFCURVE",
"454 71 CURVE SMOOTH",
"488 125 OFFCURVE",
"505 187 OFFCURVE",
"505 256 CURVE SMOOTH",
"505 326 OFFCURVE",
"488 388 OFFCURVE",
"454 441 CURVE SMOOTH",
"420 494 OFFCURVE",
"371 521 OFFCURVE",
"306 521 CURVE SMOOTH",
"268 521 OFFCURVE",
"238 515 OFFCURVE",
"216 502 CURVE SMOOTH",
"193 490 OFFCURVE",
"173 473 OFFCURVE",
"155 452 CURVE",
"154 452 LINE",
"151 491 LINE SMOOTH",
"150 505 OFFCURVE",
"144 513 OFFCURVE",
"132 513 CURVE SMOOTH",
"91 513 LINE SMOOTH",
"77 513 OFFCURVE",
"69 505 OFFCURVE",
"69 491 CURVE SMOOTH",
"69 -173 LINE SMOOTH",
"69 -188 OFFCURVE",
"77 -195 OFFCURVE",
"91 -195 CURVE SMOOTH"
);
},
{
closed = 1;
nodes = (
"155 313 LINE",
"155 361 OFFCURVE",
"167 397 OFFCURVE",
"190 421 CURVE SMOOTH",
"213 445 OFFCURVE",
"243 458 OFFCURVE",
"278 458 CURVE SMOOTH",
"327 458 OFFCURVE",
"362 439 OFFCURVE",
"383 402 CURVE SMOOTH",
"404 365 OFFCURVE",
"414 316 OFFCURVE",
"414 256 CURVE SMOOTH",
"414 196 OFFCURVE",
"404 148 OFFCURVE",
"383 111 CURVE SMOOTH",
"362 74 OFFCURVE",
"327 55 OFFCURVE",
"278 55 CURVE SMOOTH",
"243 55 OFFCURVE",
"213 67 OFFCURVE",
"190 91 CURVE SMOOTH",
"167 115 OFFCURVE",
"155 151 OFFCURVE",
"155 200 CURVE SMOOTH"
);
}
);
width = 546;
},
{
anchors = (
{
name = mark0;
position = "{0, 0}";
},
{
name = mark1;
position = "{305, -195}";
},
{
name = mark2;
position = "{305, 522}";
}
);
layerId = "A47C7914-817C-44A4-AF12-15F849B12484";
paths = (
{
closed = 1;
nodes = (
"174 -195 LINE",
"193 -195 OFFCURVE",
"203 -186 OFFCURVE",
"203 -166 CURVE SMOOTH",
"203 19 LINE SMOOTH",
"203 32 OFFCURVE",
"203 44 OFFCURVE",
"201 58 CURVE",
"203 58 LINE",
"220 30 OFFCURVE",
"239 11 OFFCURVE",
"260 3 CURVE SMOOTH",
"281 -5 OFFCURVE",
"306 -10 OFFCURVE",
"335 -10 CURVE SMOOTH",
"412 -10 OFFCURVE",
"465 17 OFFCURVE",
"496 69 CURVE SMOOTH",
"527 123 OFFCURVE",
"543 185 OFFCURVE",
"543 256 CURVE SMOOTH",
"543 328 OFFCURVE",
"527 390 OFFCURVE",
"496 443 CURVE",
"465 496 OFFCURVE",
"412 522 OFFCURVE",
"335 522 CURVE SMOOTH",
"306 522 OFFCURVE",
"281 518 OFFCURVE",
"260 510 CURVE SMOOTH",
"239 501 OFFCURVE",
"220 483 OFFCURVE",
"203 455 CURVE",
"201 455 LINE",
"199 483 LINE SMOOTH",
"198 503 OFFCURVE",
"189 513 OFFCURVE",
"173 513 CURVE SMOOTH",
"96 513 LINE SMOOTH",
"76 513 OFFCURVE",
"66 503 OFFCURVE",
"66 483 CURVE SMOOTH",
"66 -166 LINE SMOOTH",
"66 -186 OFFCURVE",
"76 -195 OFFCURVE",
"96 -195 CURVE SMOOTH"
);
},
{
closed = 1;
nodes = (
"203 278 LINE",
"203 322 OFFCURVE",
"212 358 OFFCURVE",
"229 385 CURVE SMOOTH",
"247 413 OFFCURVE",
"268 427 OFFCURVE",
"292 427 CURVE SMOOTH",
"336 427 OFFCURVE",
"365 411 OFFCURVE",
"378 380 CURVE SMOOTH",
"392 350 OFFCURVE",
"398 309 OFFCURVE",
"398 256 CURVE SMOOTH",
"398 204 OFFCURVE",
"392 163 OFFCURVE",
"378 132 CURVE SMOOTH",
"365 101 OFFCURVE",
"336 86 OFFCURVE",
"292 86 CURVE SMOOTH",
"268 86 OFFCURVE",
"247 100 OFFCURVE",
"229 127 CURVE",
"212 155 OFFCURVE",
"203 190 OFFCURVE",
"203 234 CURVE SMOOTH"
);
}
);
width = 582;
}
);
unicode = 0070;
},
{
glyphname = q;
lastChange = "2016-09-03 11:05:29 +0000";
layers = (
{
anchors = (
{
name = mark0;
position = "{0, 0}";
},
{
name = mark1;
position = "{546, -195}";
},
{
name = mark2;
position = "{546, 721}";
},
{
name = mark3;
position = "{259, -195}";
},
{
name = mark4;
position = "{259, 521}";
}
);
layerId = UUID0;
paths = (
{
closed = 1;
nodes = (
"42 187 OFFCURVE",
"59 125 OFFCURVE",
"92 71 CURVE SMOOTH",
"126 18 OFFCURVE",
"176 -8 OFFCURVE",
"241 -8 CURVE SMOOTH",
"278 -8 OFFCURVE",
"308 -2 OFFCURVE",
"331 10 CURVE SMOOTH",
"353 22 OFFCURVE",
"373 40 OFFCURVE",
"391 61 CURVE",
"392 61 LINE",
"392 51 OFFCURVE",
"391 42 OFFCURVE",
"391 31 CURVE SMOOTH",
"391 -173 LINE SMOOTH",
"391 -188 OFFCURVE",
"398 -195 OFFCURVE",
"413 -195 CURVE SMOOTH",
"455 -195 LINE SMOOTH",
"470 -195 OFFCURVE",
"477 -188 OFFCURVE",
"477 -173 CURVE SMOOTH",
"477 491 LINE SMOOTH",
"477 505 OFFCURVE",
"470 513 OFFCURVE",
"455 513 CURVE SMOOTH",
"414 513 LINE SMOOTH",
"402 513 OFFCURVE",
"396 505 OFFCURVE",
"395 491 CURVE SMOOTH",
"392 452 LINE",
"391 452 LINE",
"373 473 OFFCURVE",
"353 490 OFFCURVE",
"331 502 CURVE SMOOTH",
"308 515 OFFCURVE",
"278 521 OFFCURVE",
"241 521 CURVE SMOOTH",
"176 521 OFFCURVE",
"126 494 OFFCURVE",
"92 441 CURVE SMOOTH",
"59 388 OFFCURVE",
"42 326 OFFCURVE",
"42 256 CURVE SMOOTH"
);
},
{
closed = 1;
nodes = (
"132 316 OFFCURVE",
"143 365 OFFCURVE",
"163 402 CURVE SMOOTH",
"184 439 OFFCURVE",
"219 458 OFFCURVE",
"269 458 CURVE SMOOTH",
"304 458 OFFCURVE",
"333 445 OFFCURVE",
"356 421 CURVE SMOOTH",
"379 397 OFFCURVE",
"391 361 OFFCURVE",
"391 313 CURVE SMOOTH",
"391 200 LINE SMOOTH",
"391 151 OFFCURVE",
"379 115 OFFCURVE",
"356 91 CURVE SMOOTH",
"333 67 OFFCURVE",
"304 55 OFFCURVE",
"269 55 CURVE SMOOTH",
"219 55 OFFCURVE",
"184 74 OFFCURVE",
"163 111 CURVE SMOOTH",
"143 148 OFFCURVE",
"132 196 OFFCURVE",
"132 256 CURVE SMOOTH"
);
}
);
width = 546;
},
{
anchors = (
{
name = mark0;
position = "{0, 0}";
},
{
name = mark1;
position = "{277, -195}";
},
{
name = mark2;
position = "{277, 522}";
}
);
layerId = "A47C7914-817C-44A4-AF12-15F849B12484";
paths = (
{
closed = 1;
nodes = (
"39 185 OFFCURVE",
"55 123 OFFCURVE",
"85 69 CURVE",
"117 17 OFFCURVE",
"170 -10 OFFCURVE",
"247 -10 CURVE SMOOTH",
"276 -10 OFFCURVE",
"301 -5 OFFCURVE",
"322 3 CURVE SMOOTH",
"343 11 OFFCURVE",
"362 30 OFFCURVE",
"379 58 CURVE",
"381 58 LINE",
"379 44 OFFCURVE",
"379 32 OFFCURVE",
"379 19 CURVE SMOOTH",
"379 -166 LINE SMOOTH",
"379 -186 OFFCURVE",
"389 -195 OFFCURVE",
"408 -195 CURVE SMOOTH",
"486 -195 LINE SMOOTH",
"506 -195 OFFCURVE",
"516 -186 OFFCURVE",
"516 -166 CURVE SMOOTH",
"516 483 LINE SMOOTH",
"516 503 OFFCURVE",
"506 513 OFFCURVE",
"486 513 CURVE SMOOTH",
"409 513 LINE SMOOTH",
"393 513 OFFCURVE",
"384 503 OFFCURVE",
"383 483 CURVE SMOOTH",
"381 455 LINE",
"379 455 LINE",
"362 483 OFFCURVE",
"343 501 OFFCURVE",
"322 510 CURVE SMOOTH",
"301 518 OFFCURVE",
"276 522 OFFCURVE",
"247 522 CURVE SMOOTH",
"170 522 OFFCURVE",
"117 496 OFFCURVE",
"85 443 CURVE SMOOTH",
"55 390 OFFCURVE",
"39 328 OFFCURVE",
"39 256 CURVE SMOOTH"
);
},
{
closed = 1;
nodes = (
"184 309 OFFCURVE",
"190 350 OFFCURVE",
"204 380 CURVE SMOOTH",
"217 411 OFFCURVE",
"246 427 OFFCURVE",
"290 427 CURVE SMOOTH",
"314 427 OFFCURVE",
"335 413 OFFCURVE",
"353 385 CURVE",
"370 358 OFFCURVE",
"379 322 OFFCURVE",
"379 278 CURVE SMOOTH",
"379 234 LINE SMOOTH",
"379 190 OFFCURVE",
"370 155 OFFCURVE",
"353 127 CURVE SMOOTH",
"335 100 OFFCURVE",
"314 86 OFFCURVE",
"290 86 CURVE SMOOTH",
"246 86 OFFCURVE",
"217 101 OFFCURVE",
"204 132 CURVE SMOOTH",
"190 163 OFFCURVE",
"184 204 OFFCURVE",
"184 256 CURVE SMOOTH"
);
}
);
width = 582;
}
);
unicode = 0071;
},
{
glyphname = r;
lastChange = "2016-09-03 11:05:29 +0000";
layers = (
{
anchors = (
{
name = mark0;
position = "{0, 0}";
},
{
name = mark1;
position = "{353, -195}";
},
{
name = mark2;
position = "{353, 721}";
},
{
name = mark3;
position = "{112, 0}";
},
{
name = mark4;
position = "{212, 521}";
}
);
layerId = UUID0;
paths = (
{
closed = 1;
nodes = (
"133 0 LINE SMOOTH",
"148 0 OFFCURVE",
"155 7 OFFCURVE",
"155 22 CURVE SMOOTH",
"155 266 LINE SMOOTH",
"155 325 OFFCURVE",
"167 372 OFFCURVE",
"192 406 CURVE SMOOTH",
"217 440 OFFCURVE",
"249 458 OFFCURVE",
"287 458 CURVE SMOOTH",
"297 458 OFFCURVE",
"308 457 OFFCURVE",
"319 454 CURVE SMOOTH",
"326 453 OFFCURVE",
"330 455 OFFCURVE",
"332 461 CURVE SMOOTH",
"343 501 LINE SMOOTH",
"345 508 OFFCURVE",
"342 513 OFFCURVE",
"334 516 CURVE SMOOTH",
"326 519 OFFCURVE",
"312 521 OFFCURVE",
"291 521 CURVE SMOOTH",
"228 521 OFFCURVE",
"188 491 OFFCURVE",
"156 432 CURVE",
"154 432 LINE",
"154 491 LINE SMOOTH",
"154 505 OFFCURVE",
"147 513 OFFCURVE",
"132 513 CURVE SMOOTH",
"91 513 LINE SMOOTH",
"77 513 OFFCURVE",
"69 505 OFFCURVE",
"69 491 CURVE SMOOTH",
"69 22 LINE SMOOTH",
"69 7 OFFCURVE",
"77 0 OFFCURVE",
"91 0 CURVE SMOOTH"
);
}
);
width = 353;
},
{
anchors = (
{
name = mark0;
position = "{0, 0}";
},
{
name = mark1;
position = "{135, 0}";
},
{
name = mark2;
position = "{228, 522}";
}
);
layerId = "A47C7914-817C-44A4-AF12-15F849B12484";
paths = (
{
closed = 1;
nodes = (
"174 0 LINE SMOOTH",
"193 0 OFFCURVE",
"203 10 OFFCURVE",
"203 29 CURVE SMOOTH",
"203 207 LINE SMOOTH",
"203 279 OFFCURVE",
"213 333 OFFCURVE",
"234 371 CURVE SMOOTH",
"254 408 OFFCURVE",
"280 427 OFFCURVE",
"312 427 CURVE SMOOTH",
"319 427 OFFCURVE",
"328 425 OFFCURVE",
"336 422 CURVE SMOOTH",
"351 417 OFFCURVE",
"359 421 OFFCURVE",
"362 434 CURVE SMOOTH",
"376 492 LINE SMOOTH",
"378 503 OFFCURVE",
"374 511 OFFCURVE",
"363 516 CURVE SMOOTH",
"351 520 OFFCURVE",
"335 522 OFFCURVE",
"317 522 CURVE SMOOTH",
"290 522 OFFCURVE",
"267 515 OFFCURVE",
"247 499 CURVE SMOOTH",
"227 482 OFFCURVE",
"212 464 OFFCURVE",
"204 443 CURVE",
"202 443 LINE",
"202 483 LINE SMOOTH",
"202 503 OFFCURVE",
"192 513 OFFCURVE",
"173 513 CURVE SMOOTH",
"96 513 LINE SMOOTH",
"76 513 OFFCURVE",
"66 503 OFFCURVE",
"66 483 CURVE SMOOTH",
"66 29 LINE SMOOTH",
"66 10 OFFCURVE",
"76 0 OFFCURVE",
"96 0 CURVE SMOOTH"
);
}
);
width = 384;
}
);
unicode = 0072;
},
{
glyphname = s;
lastChange = "2016-09-03 11:05:29 +0000";
layers = (
{
anchors = (
{
name = mark0;
position = "{0, 0}";
},
{
name = mark1;
position = "{461, -195}";
},
{
name = mark2;
position = "{461, 721}";
},
{
name = mark3;
position = "{232, 0}";
},
{
name = mark4;
position = "{232, 521}";
}
);
layerId = UUID0;
paths = (
{
closed = 1;
nodes = (
"60 38 OFFCURVE",
"82 26 OFFCURVE",
"116 12 CURVE SMOOTH",
"151 -1 OFFCURVE",
"193 -8 OFFCURVE",
"241 -8 CURVE SMOOTH",
"277 -8 OFFCURVE",
"308 -4 OFFCURVE",
"333 3 CURVE SMOOTH",
"358 12 OFFCURVE",
"381 28 OFFCURVE",
"402 52 CURVE SMOOTH",
"423 76 OFFCURVE",
"433 105 OFFCURVE",
"433 140 CURVE SMOOTH",
"433 196 OFFCURVE",
"416 238 OFFCURVE",
"344 271 CURVE SMOOTH",
"308 289 OFFCURVE",
"263 298 OFFCURVE",
"208 313 CURVE SMOOTH",
"154 326 OFFCURVE",
"142 353 OFFCURVE",
"142 386 CURVE SMOOTH",
"142 434 OFFCURVE",
"185 455 OFFCURVE",
"244 455 CURVE SMOOTH",
"260 455 OFFCURVE",
"280 451 OFFCURVE",
"302 444 CURVE SMOOTH",
"324 437 OFFCURVE",
"341 428 OFFCURVE",
"353 420 CURVE SMOOTH",
"367 410 OFFCURVE",
"378 410 OFFCURVE",
"385 419 CURVE SMOOTH",
"407 448 LINE SMOOTH",
"414 458 OFFCURVE",
"413 467 OFFCURVE",
"402 474 CURVE SMOOTH",
"384 487 OFFCURVE",
"363 498 OFFCURVE",
"338 507 CURVE SMOOTH",
"314 516 OFFCURVE",
"282 521 OFFCURVE",
"241 521 CURVE SMOOTH",
"214 521 OFFCURVE",
"186 517 OFFCURVE",
"157 508 CURVE SMOOTH",
"128 500 OFFCURVE",
"104 485 OFFCURVE",
"84 462 CURVE SMOOTH",
"65 439 OFFCURVE",
"56 412 OFFCURVE",
"56 380 CURVE SMOOTH",
"56 350 OFFCURVE",
"62 325 OFFCURVE",
"73 308 CURVE SMOOTH",
"85 290 OFFCURVE",
"99 276 OFFCURVE",
"115 266 CURVE SMOOTH",
"131 255 OFFCURVE",
"148 248 OFFCURVE",
"166 242 CURVE SMOOTH",
"193 234 OFFCURVE",
"214 228 OFFCURVE",
"230 223 CURVE",
"247 219 OFFCURVE",
"264 214 OFFCURVE",
"280 208 CURVE SMOOTH",
"300 201 OFFCURVE",
"325 189 OFFCURVE",
"334 168 CURVE",
"340 158 OFFCURVE",
"342 146 OFFCURVE",
"342 135 CURVE SMOOTH",
"342 94 OFFCURVE",
"317 71 OFFCURVE",
"290 62 CURVE SMOOTH",
"275 57 OFFCURVE",
"260 55 OFFCURVE",
"242 55 CURVE SMOOTH",
"181 55 OFFCURVE",
"135 74 OFFCURVE",
"97 104 CURVE SMOOTH",
"83 114 OFFCURVE",
"72 115 OFFCURVE",
"65 105 CURVE SMOOTH",
"43 74 LINE SMOOTH",
"37 66 OFFCURVE",
"39 57 OFFCURVE",
"49 48 CURVE SMOOTH"
);
}
);
width = 461;
},
{
anchors = (
{
name = mark0;
position = "{0, 0}";
},
{
name = mark1;
position = "{245, 0}";
},
{
name = mark2;
position = "{266, 522}";
}
);
layerId = "A47C7914-817C-44A4-AF12-15F849B12484";
paths = (
{
closed = 1;
nodes = (
"102 1 OFFCURVE",
"164 -10 OFFCURVE",
"256 -10 CURVE SMOOTH",
"338 -10 OFFCURVE",
"401 11 OFFCURVE",
"438 65 CURVE SMOOTH",
"458 92 OFFCURVE",
"467 121 OFFCURVE",
"467 153 CURVE SMOOTH",
"467 200 OFFCURVE",
"453 238 OFFCURVE",
"422 262 CURVE SMOOTH",
"406 274 OFFCURVE",
"390 284 OFFCURVE",
"374 290 CURVE SMOOTH",
"335 305 OFFCURVE",
"298 314 OFFCURVE",
"262 326 CURVE SMOOTH",
"237 334 OFFCURVE",
"198 342 OFFCURVE",
"198 380 CURVE SMOOTH",
"198 417 OFFCURVE",
"239 427 OFFCURVE",
"274 427 CURVE SMOOTH",
"311 427 OFFCURVE",
"338 416 OFFCURVE",
"369 398 CURVE SMOOTH",
"389 387 OFFCURVE",
"404 388 OFFCURVE",
"413 401 CURVE SMOOTH",
"443 445 LINE SMOOTH",
"453 459 OFFCURVE",
"448 472 OFFCURVE",
"428 484 CURVE SMOOTH",
"416 492 OFFCURVE",
"395 500 OFFCURVE",
"366 509 CURVE SMOOTH",
"337 518 OFFCURVE",
"308 522 OFFCURVE",
"277 522 CURVE SMOOTH",
"187 522 OFFCURVE",
"128 506 OFFCURVE",
"89 457 CURVE SMOOTH",
"70 432 OFFCURVE",
"61 403 OFFCURVE",
"61 371 CURVE SMOOTH",
"61 322 OFFCURVE",
"76 291 OFFCURVE",
"108 264 CURVE",
"125 250 OFFCURVE",
"142 240 OFFCURVE",
"159 232 CURVE SMOOTH",
"180 223 OFFCURVE",
"202 215 OFFCURVE",
"224 208 CURVE SMOOTH",
"247 202 OFFCURVE",
"264 197 OFFCURVE",
"276 194 CURVE SMOOTH",
"303 187 OFFCURVE",
"330 175 OFFCURVE",
"330 145 CURVE SMOOTH",
"330 95 OFFCURVE",
"286 86 OFFCURVE",
"244 86 CURVE SMOOTH",
"223 86 OFFCURVE",
"200 89 OFFCURVE",
"174 95 CURVE SMOOTH",
"149 101 OFFCURVE",
"127 110 OFFCURVE",
"109 122 CURVE SMOOTH",
"90 134 OFFCURVE",
"77 132 OFFCURVE",
"68 116 CURVE SMOOTH",
"43 71 LINE SMOOTH",
"36 58 OFFCURVE",
"40 45 OFFCURVE",
"56 34 CURVE SMOOTH"
);
}
);
width = 491;
}
);
unicode = 0073;
},
